<svg width="400" height="382" viewBox="0 0 400 382" fill="none" xmlns="http://www.w3.org/2000/svg">
<path d="M0 16C0 7.16345 7.16344 0 16 0H384C392.837 0 400 7.16344 400 16V366C400 374.837 392.837 382 384 382H16C7.16345 382 0 374.837 0 366V16Z" fill="white"/>
<path d="M44 44.536C44 34.8512 51.8511 27 61.536 27H300.464C310.149 27 318 34.8511 318 44.536V338.264C318 347.949 310.149 355.8 300.464 355.8H61.536C51.8511 355.8 44 347.949 44 338.264V44.536Z" fill="white"/>
<path d="M61.4 63V48.6H67.48C67.62 48.6 67.8067 48.6067 68.04 48.62C68.28 48.6267 68.4933 48.6467 68.68 48.68C69.54 48.8133 70.2433 49.0967 70.79 49.53C71.3433 49.9633 71.75 50.51 72.01 51.17C72.27 51.8233 72.4 52.5533 72.4 53.36C72.4 54.1667 72.2667 54.9 72 55.56C71.74 56.2133 71.3333 56.7567 70.78 57.19C70.2333 57.6233 69.5333 57.9067 68.68 58.04C68.4933 58.0667 68.28 58.0867 68.04 58.1C67.8 58.1133 67.6133 58.12 67.48 58.12H64.12V63H61.4ZM64.12 55.58H67.36C67.5 55.58 67.6533 55.5733 67.82 55.56C67.9867 55.5467 68.14 55.52 68.28 55.48C68.6467 55.38 68.93 55.2133 69.13 54.98C69.33 54.74 69.4667 54.4767 69.54 54.19C69.62 53.8967 69.66 53.62 69.66 53.36C69.66 53.1 69.62 52.8267 69.54 52.54C69.4667 52.2467 69.33 51.9833 69.13 51.75C68.93 51.51 68.6467 51.34 68.28 51.24C68.14 51.2 67.9867 51.1733 67.82 51.16C67.6533 51.1467 67.5 51.14 67.36 51.14H64.12V55.58ZM79.4278 63.3C78.3211 63.3 77.3445 63.0633 76.4978 62.59C75.6578 62.11 74.9978 61.4533 74.5178 60.62C74.0445 59.78 73.8078 58.82 73.8078 57.74C73.8078 56.56 74.0411 55.5333 74.5078 54.66C74.9745 53.7867 75.6178 53.11 76.4378 52.63C77.2578 52.1433 78.2011 51.9 79.2678 51.9C80.4011 51.9 81.3645 52.1667 82.1578 52.7C82.9511 53.2333 83.5378 53.9833 83.9178 54.95C84.2978 55.9167 84.4311 57.0533 84.3178 58.36H81.6278V57.36C81.6278 56.26 81.4511 55.47 81.0978 54.99C80.7511 54.5033 80.1811 54.26 79.3878 54.26C78.4611 54.26 77.7778 54.5433 77.3378 55.11C76.9045 55.67 76.6878 56.5 76.6878 57.6C76.6878 58.6067 76.9045 59.3867 77.3378 59.94C77.7778 60.4867 78.4211 60.76 79.2678 60.76C79.8011 60.76 80.2578 60.6433 80.6378 60.41C81.0178 60.1767 81.3078 59.84 81.5078 59.4L84.2278 60.18C83.8211 61.1667 83.1778 61.9333 82.2978 62.48C81.4245 63.0267 80.4678 63.3 79.4278 63.3ZM75.8478 58.36V56.34H83.0078V58.36H75.8478ZM91.7358 51C91.1491 51 90.6158 50.8567 90.1358 50.57C89.6558 50.2833 89.2724 49.9 88.9858 49.42C88.6991 48.94 88.5558 48.4067 88.5558 47.82H90.6558C90.6558 48.12 90.7591 48.3767 90.9658 48.59C91.1791 48.7967 91.4358 48.9 91.7358 48.9C92.0358 48.9 92.2891 48.7967 92.4958 48.59C92.7091 48.3767 92.8158 48.12 92.8158 47.82H94.9158C94.9158 48.4067 94.7724 48.94 94.4858 49.42C94.1991 49.9 93.8158 50.2833 93.3358 50.57C92.8558 50.8567 92.3224 51 91.7358 51ZM96.1958 52.2V63H93.5958V56.4L88.7158 63H86.5558V52.2H89.1558V58.58L94.0558 52.2H96.1958ZM101.638 63V54.6H98.0977V52.2H107.898V54.6H104.358V63H101.638ZM119.418 52.2V63H116.818V56.4L111.938 63H109.778V52.2H112.378V58.58L117.278 52.2H119.418ZM122.2 63V52.2H124.92V56.32H129.36V52.2H132.08V63H129.36V58.86H124.92V63H122.2ZM134.877 63V52.2H142.677V54.74H137.597V63H134.877ZM157.548 65.4V63H148.568V52.2H151.288V60.46H155.488V52.2H158.207V60.6H160.268V65.4H157.548ZM166.889 63.3C165.782 63.3 164.805 63.0633 163.959 62.59C163.119 62.11 162.459 61.4533 161.979 60.62C161.505 59.78 161.269 58.82 161.269 57.74C161.269 56.56 161.502 55.5333 161.969 54.66C162.435 53.7867 163.079 53.11 163.899 52.63C164.719 52.1433 165.662 51.9 166.729 51.9C167.862 51.9 168.825 52.1667 169.619 52.7C170.412 53.2333 170.999 53.9833 171.379 54.95C171.759 55.9167 171.892 57.0533 171.779 58.36H169.089V57.36C169.089 56.26 168.912 55.47 168.559 54.99C168.212 54.5033 167.642 54.26 166.849 54.26C165.922 54.26 165.239 54.5433 164.799 55.11C164.365 55.67 164.149 56.5 164.149 57.6C164.149 58.6067 164.365 59.3867 164.799 59.94C165.239 60.4867 165.882 60.76 166.729 60.76C167.262 60.76 167.719 60.6433 168.099 60.41C168.479 60.1767 168.769 59.84 168.969 59.4L171.689 60.18C171.282 61.1667 170.639 61.9333 169.759 62.48C168.885 63.0267 167.929 63.3 166.889 63.3ZM163.309 58.36V56.34H170.469V58.36H163.309ZM174.017 63V52.2H176.737V56.32H181.177V52.2H183.897V63H181.177V58.86H176.737V63H174.017Z" fill="#1B1F3B" fill-opacity="0.9"/>
<g clip-path="url(#clip0_751_44492)">
<rect x="60" y="93.304" width="26.304" height="26.304" rx="8.768" fill="#436CFB"/>
<path fill-rule="evenodd" clip-rule="evenodd" d="M79.4327 101.324C79.8461 101.766 79.8229 102.459 79.3807 102.873L72.1197 111.641C71.6985 112.035 71.044 112.035 70.6227 111.641L66.9237 108.254C66.4815 107.841 66.4582 107.147 66.8715 106.705C67.2849 106.263 67.9785 106.239 68.4206 106.653L71.3711 109.34L77.8836 101.272C78.3257 100.858 79.0193 100.881 79.4327 101.324Z" fill="white"/>
</g>
<path d="M97.368 102.924V101.544H98.703V102.924H97.368ZM97.368 112.456V104.356H98.703V112.456H97.368ZM100.953 112.456V101.656H105.221C105.326 101.656 105.451 101.661 105.596 101.671C105.741 101.676 105.881 101.691 106.016 101.716C106.601 101.806 107.091 102.006 107.486 102.316C107.886 102.626 108.186 103.019 108.386 103.494C108.586 103.964 108.686 104.486 108.686 105.061C108.686 105.631 108.583 106.154 108.378 106.629C108.178 107.099 107.878 107.491 107.478 107.806C107.083 108.116 106.596 108.316 106.016 108.406C105.881 108.426 105.741 108.441 105.596 108.451C105.451 108.461 105.326 108.466 105.221 108.466H102.288V112.456H100.953ZM102.288 107.199H105.176C105.271 107.199 105.378 107.194 105.498 107.184C105.623 107.174 105.741 107.156 105.851 107.131C106.196 107.051 106.476 106.906 106.691 106.696C106.911 106.481 107.071 106.231 107.171 105.946C107.271 105.656 107.321 105.361 107.321 105.061C107.321 104.761 107.271 104.469 107.171 104.184C107.071 103.894 106.911 103.641 106.691 103.426C106.476 103.211 106.196 103.066 105.851 102.991C105.741 102.961 105.623 102.944 105.498 102.939C105.378 102.929 105.271 102.924 105.176 102.924H102.288V107.199ZM115.949 112.456V108.399C115.949 108.014 115.914 107.644 115.844 107.289C115.779 106.934 115.662 106.616 115.492 106.336C115.327 106.051 115.102 105.826 114.817 105.661C114.537 105.496 114.182 105.414 113.752 105.414C113.417 105.414 113.112 105.471 112.837 105.586C112.567 105.696 112.334 105.866 112.139 106.096C111.944 106.326 111.792 106.616 111.682 106.966C111.577 107.311 111.524 107.719 111.524 108.189L110.647 107.919C110.647 107.134 110.787 106.461 111.067 105.901C111.352 105.336 111.749 104.904 112.259 104.604C112.774 104.299 113.379 104.146 114.074 104.146C114.599 104.146 115.047 104.229 115.417 104.394C115.787 104.559 116.094 104.779 116.339 105.054C116.584 105.324 116.777 105.629 116.917 105.969C117.057 106.304 117.154 106.646 117.209 106.996C117.269 107.341 117.299 107.669 117.299 107.979V112.456H115.949ZM110.174 112.456V101.656H111.374V107.619H111.524V112.456H110.174ZM122.699 112.681C121.894 112.681 121.199 112.499 120.614 112.134C120.034 111.769 119.587 111.264 119.272 110.619C118.957 109.974 118.799 109.234 118.799 108.399C118.799 107.549 118.959 106.804 119.279 106.164C119.599 105.524 120.052 105.026 120.637 104.671C121.222 104.311 121.909 104.131 122.699 104.131C123.509 104.131 124.207 104.314 124.792 104.679C125.377 105.039 125.824 105.541 126.134 106.186C126.449 106.826 126.607 107.564 126.607 108.399C126.607 109.244 126.449 109.989 126.134 110.634C125.819 111.274 125.369 111.776 124.784 112.141C124.199 112.501 123.504 112.681 122.699 112.681ZM122.699 111.414C123.539 111.414 124.164 111.134 124.574 110.574C124.984 110.014 125.189 109.289 125.189 108.399C125.189 107.484 124.982 106.756 124.567 106.216C124.152 105.671 123.529 105.399 122.699 105.399C122.134 105.399 121.669 105.526 121.304 105.781C120.939 106.036 120.667 106.389 120.487 106.839C120.307 107.289 120.217 107.809 120.217 108.399C120.217 109.309 120.427 110.039 120.847 110.589C121.267 111.139 121.884 111.414 122.699 111.414ZM134.026 112.456V108.399C134.026 108.014 133.991 107.644 133.921 107.289C133.856 106.934 133.738 106.616 133.568 106.336C133.403 106.051 133.178 105.826 132.893 105.661C132.613 105.496 132.258 105.414 131.828 105.414C131.493 105.414 131.188 105.471 130.913 105.586C130.643 105.696 130.411 105.866 130.216 106.096C130.021 106.326 129.868 106.616 129.758 106.966C129.653 107.311 129.601 107.719 129.601 108.189L128.723 107.919C128.723 107.134 128.863 106.461 129.143 105.901C129.428 105.336 129.826 104.904 130.336 104.604C130.851 104.299 131.456 104.146 132.151 104.146C132.676 104.146 133.123 104.229 133.493 104.394C133.863 104.559 134.171 104.779 134.416 105.054C134.661 105.324 134.853 105.629 134.993 105.969C135.133 106.304 135.231 106.646 135.286 106.996C135.346 107.341 135.376 107.669 135.376 107.979V112.456H134.026ZM128.251 112.456V104.356H129.451V106.524H129.601V112.456H128.251ZM140.762 112.681C139.967 112.681 139.272 112.506 138.677 112.156C138.087 111.801 137.627 111.309 137.297 110.679C136.967 110.044 136.802 109.304 136.802 108.459C136.802 107.574 136.965 106.809 137.29 106.164C137.615 105.514 138.067 105.014 138.647 104.664C139.232 104.309 139.917 104.131 140.702 104.131C141.517 104.131 142.21 104.319 142.78 104.694C143.355 105.069 143.785 105.604 144.07 106.299C144.36 106.994 144.485 107.821 144.445 108.781H143.095V108.301C143.08 107.306 142.877 106.564 142.487 106.074C142.097 105.579 141.517 105.331 140.747 105.331C139.922 105.331 139.295 105.596 138.865 106.126C138.435 106.656 138.22 107.416 138.22 108.406C138.22 109.361 138.435 110.101 138.865 110.626C139.295 111.151 139.907 111.414 140.702 111.414C141.237 111.414 141.702 111.291 142.097 111.046C142.492 110.801 142.802 110.449 143.027 109.989L144.31 110.431C143.995 111.146 143.52 111.701 142.885 112.096C142.255 112.486 141.547 112.681 140.762 112.681ZM137.77 108.781V107.709H143.755V108.781H137.77ZM151 112.456V103.134L148.967 104.364V102.871L151 101.656H152.357V112.456H151ZM158.406 112.681C157.851 112.681 157.334 112.566 156.854 112.336C156.379 112.106 155.971 111.791 155.631 111.391C155.296 110.986 155.056 110.521 154.911 109.996L156.194 109.651C156.284 110.006 156.444 110.314 156.674 110.574C156.904 110.829 157.171 111.029 157.476 111.174C157.786 111.314 158.109 111.384 158.444 111.384C158.884 111.384 159.279 111.279 159.629 111.069C159.984 110.854 160.264 110.571 160.469 110.221C160.674 109.866 160.776 109.479 160.776 109.059C160.776 108.624 160.669 108.231 160.454 107.881C160.244 107.526 159.961 107.246 159.606 107.041C159.251 106.836 158.864 106.734 158.444 106.734C157.969 106.734 157.561 106.834 157.221 107.034C156.886 107.229 156.621 107.469 156.426 107.754L155.241 107.304L155.571 101.656H161.369V102.924H156.216L156.809 102.369L156.531 106.891L156.239 106.509C156.539 106.189 156.896 105.941 157.311 105.766C157.731 105.591 158.159 105.504 158.594 105.504C159.264 105.504 159.864 105.661 160.394 105.976C160.924 106.286 161.344 106.711 161.654 107.251C161.964 107.786 162.119 108.389 162.119 109.059C162.119 109.724 161.949 110.331 161.609 110.881C161.269 111.426 160.816 111.864 160.251 112.194C159.691 112.519 159.076 112.681 158.406 112.681ZM166.915 112.456V101.656H171.183C171.288 101.656 171.413 101.661 171.558 101.671C171.703 101.676 171.843 101.691 171.978 101.716C172.563 101.806 173.053 102.006 173.448 102.316C173.848 102.626 174.148 103.019 174.348 103.494C174.548 103.964 174.648 104.486 174.648 105.061C174.648 105.631 174.545 106.154 174.34 106.629C174.14 107.099 173.84 107.491 173.44 107.806C173.045 108.116 172.558 108.316 171.978 108.406C171.843 108.426 171.703 108.441 171.558 108.451C171.413 108.461 171.288 108.466 171.183 108.466H168.25V112.456H166.915ZM168.25 107.199H171.138C171.233 107.199 171.34 107.194 171.46 107.184C171.585 107.174 171.703 107.156 171.813 107.131C172.158 107.051 172.438 106.906 172.653 106.696C172.873 106.481 173.033 106.231 173.133 105.946C173.233 105.656 173.283 105.361 173.283 105.061C173.283 104.761 173.233 104.469 173.133 104.184C173.033 103.894 172.873 103.641 172.653 103.426C172.438 103.211 172.158 103.066 171.813 102.991C171.703 102.961 171.585 102.944 171.46 102.939C171.34 102.929 171.233 102.924 171.138 102.924H168.25V107.199ZM176.144 112.456V104.356H177.336V106.314L177.141 106.059C177.236 105.809 177.359 105.579 177.509 105.369C177.664 105.159 177.836 104.986 178.026 104.851C178.236 104.681 178.474 104.551 178.739 104.461C179.004 104.371 179.274 104.319 179.549 104.304C179.824 104.284 180.081 104.301 180.321 104.356V105.609C180.041 105.534 179.734 105.514 179.399 105.549C179.064 105.584 178.754 105.706 178.469 105.916C178.209 106.101 178.006 106.326 177.861 106.591C177.721 106.856 177.624 107.144 177.569 107.454C177.514 107.759 177.486 108.071 177.486 108.391V112.456H176.144ZM185.043 112.681C184.238 112.681 183.543 112.499 182.958 112.134C182.378 111.769 181.93 111.264 181.615 110.619C181.3 109.974 181.143 109.234 181.143 108.399C181.143 107.549 181.303 106.804 181.623 106.164C181.943 105.524 182.395 105.026 182.98 104.671C183.565 104.311 184.253 104.131 185.043 104.131C185.853 104.131 186.55 104.314 187.135 104.679C187.72 105.039 188.168 105.541 188.478 106.186C188.793 106.826 188.95 107.564 188.95 108.399C188.95 109.244 188.793 109.989 188.478 110.634C188.163 111.274 187.713 111.776 187.128 112.141C186.543 112.501 185.848 112.681 185.043 112.681ZM185.043 111.414C185.883 111.414 186.508 111.134 186.918 110.574C187.328 110.014 187.533 109.289 187.533 108.399C187.533 107.484 187.325 106.756 186.91 106.216C186.495 105.671 185.873 105.399 185.043 105.399C184.478 105.399 184.013 105.526 183.648 105.781C183.283 106.036 183.01 106.389 182.83 106.839C182.65 107.289 182.56 107.809 182.56 108.399C182.56 109.309 182.77 110.039 183.19 110.589C183.61 111.139 184.228 111.414 185.043 111.414ZM193.605 112.456V101.656H194.82L198.9 110.259L202.957 101.656H204.187V112.449H202.92V104.589L199.252 112.456H198.54L194.872 104.589V112.456H193.605ZM208.593 112.681C207.988 112.681 207.48 112.571 207.07 112.351C206.665 112.126 206.358 111.831 206.148 111.466C205.943 111.101 205.84 110.701 205.84 110.266C205.84 109.841 205.92 109.474 206.08 109.164C206.245 108.849 206.475 108.589 206.77 108.384C207.065 108.174 207.418 108.009 207.828 107.889C208.213 107.784 208.643 107.694 209.118 107.619C209.598 107.539 210.083 107.466 210.573 107.401C211.063 107.336 211.52 107.274 211.945 107.214L211.465 107.491C211.48 106.771 211.335 106.239 211.03 105.894C210.73 105.549 210.21 105.376 209.47 105.376C208.98 105.376 208.55 105.489 208.18 105.714C207.815 105.934 207.558 106.294 207.408 106.794L206.14 106.411C206.335 105.701 206.713 105.144 207.273 104.739C207.833 104.334 208.57 104.131 209.485 104.131C210.22 104.131 210.85 104.264 211.375 104.529C211.905 104.789 212.285 105.184 212.515 105.714C212.63 105.964 212.703 106.236 212.733 106.531C212.763 106.821 212.778 107.126 212.778 107.446V112.456H211.593V110.514L211.87 110.694C211.565 111.349 211.138 111.844 210.588 112.179C210.043 112.514 209.378 112.681 208.593 112.681ZM208.795 111.564C209.275 111.564 209.69 111.479 210.04 111.309C210.395 111.134 210.68 110.906 210.895 110.626C211.11 110.341 211.25 110.031 211.315 109.696C211.39 109.446 211.43 109.169 211.435 108.864C211.445 108.554 211.45 108.316 211.45 108.151L211.915 108.354C211.48 108.414 211.053 108.471 210.633 108.526C210.213 108.581 209.815 108.641 209.44 108.706C209.065 108.766 208.728 108.839 208.428 108.924C208.208 108.994 208 109.084 207.805 109.194C207.615 109.304 207.46 109.446 207.34 109.621C207.225 109.791 207.168 110.004 207.168 110.259C207.168 110.479 207.223 110.689 207.333 110.889C207.448 111.089 207.623 111.251 207.858 111.376C208.098 111.501 208.41 111.564 208.795 111.564ZM213.828 112.456L216.925 108.361L213.895 104.356H215.485L217.705 107.326L219.903 104.356H221.493L218.463 108.361L221.568 112.456H219.97L217.705 109.396L215.425 112.456H213.828Z" fill="#1B1F3B" fill-opacity="0.9"/>
<path d="M260.482 112.456V101.656H261.832L267.465 110.094V101.656H268.815V112.456H267.465L261.832 104.011V112.456H260.482ZM272.707 106.831C272.212 106.831 271.76 106.711 271.35 106.471C270.94 106.226 270.612 105.901 270.367 105.496C270.127 105.086 270.007 104.631 270.007 104.131C270.007 103.641 270.132 103.191 270.382 102.781C270.632 102.371 270.962 102.044 271.372 101.799C271.782 101.554 272.227 101.431 272.707 101.431C273.202 101.431 273.652 101.554 274.057 101.799C274.467 102.039 274.795 102.364 275.04 102.774C275.285 103.179 275.407 103.631 275.407 104.131C275.407 104.631 275.285 105.086 275.04 105.496C274.795 105.901 274.467 106.226 274.057 106.471C273.652 106.711 273.202 106.831 272.707 106.831ZM272.707 105.654C272.982 105.654 273.235 105.584 273.465 105.444C273.7 105.304 273.885 105.119 274.02 104.889C274.16 104.659 274.23 104.406 274.23 104.131C274.23 103.856 274.16 103.604 274.02 103.374C273.885 103.139 273.7 102.954 273.465 102.819C273.235 102.679 272.982 102.609 272.707 102.609C272.432 102.609 272.18 102.679 271.95 102.819C271.72 102.954 271.535 103.139 271.395 103.374C271.255 103.604 271.185 103.856 271.185 104.131C271.185 104.406 271.255 104.659 271.395 104.889C271.535 105.119 271.72 105.304 271.95 105.444C272.18 105.584 272.432 105.654 272.707 105.654ZM270.457 108.564V107.461H274.957V108.564H270.457ZM282.096 112.456V103.134L280.064 104.364V102.871L282.096 101.656H283.454V112.456H282.096Z" fill="#191C30" fill-opacity="0.45"/>
<g clip-path="url(#clip1_751_44492)">
<rect x="60" y="141.528" width="26.304" height="26.304" rx="8.768" fill="#436CFB"/>
<path fill-rule="evenodd" clip-rule="evenodd" d="M79.4327 149.547C79.8461 149.99 79.8229 150.683 79.3807 151.096L72.1197 159.865C71.6985 160.258 71.044 160.258 70.6227 159.865L66.9237 156.478C66.4815 156.065 66.4582 155.371 66.8715 154.929C67.2849 154.487 67.9785 154.463 68.4206 154.877L71.3711 157.564L77.8836 149.495C78.3257 149.082 79.0193 149.105 79.4327 149.547Z" fill="white"/>
</g>
<path d="M97.368 151.147V149.767H98.703V151.147H97.368ZM97.368 160.68V152.58H98.703V160.68H97.368ZM100.953 160.68V149.88H105.221C105.326 149.88 105.451 149.885 105.596 149.895C105.741 149.9 105.881 149.915 106.016 149.94C106.601 150.03 107.091 150.23 107.486 150.54C107.886 150.85 108.186 151.242 108.386 151.717C108.586 152.187 108.686 152.71 108.686 153.285C108.686 153.855 108.583 154.377 108.378 154.852C108.178 155.322 107.878 155.715 107.478 156.03C107.083 156.34 106.596 156.54 106.016 156.63C105.881 156.65 105.741 156.665 105.596 156.675C105.451 156.685 105.326 156.69 105.221 156.69H102.288V160.68H100.953ZM102.288 155.422H105.176C105.271 155.422 105.378 155.417 105.498 155.407C105.623 155.397 105.741 155.38 105.851 155.355C106.196 155.275 106.476 155.13 106.691 154.92C106.911 154.705 107.071 154.455 107.171 154.17C107.271 153.88 107.321 153.585 107.321 153.285C107.321 152.985 107.271 152.692 107.171 152.407C107.071 152.117 106.911 151.865 106.691 151.65C106.476 151.435 106.196 151.29 105.851 151.215C105.741 151.185 105.623 151.167 105.498 151.162C105.378 151.152 105.271 151.147 105.176 151.147H102.288V155.422ZM115.949 160.68V156.622C115.949 156.237 115.914 155.867 115.844 155.512C115.779 155.157 115.662 154.84 115.492 154.56C115.327 154.275 115.102 154.05 114.817 153.885C114.537 153.72 114.182 153.637 113.752 153.637C113.417 153.637 113.112 153.695 112.837 153.81C112.567 153.92 112.334 154.09 112.139 154.32C111.944 154.55 111.792 154.84 111.682 155.19C111.577 155.535 111.524 155.942 111.524 156.412L110.647 156.142C110.647 155.357 110.787 154.685 111.067 154.125C111.352 153.56 111.749 153.127 112.259 152.827C112.774 152.522 113.379 152.37 114.074 152.37C114.599 152.37 115.047 152.452 115.417 152.617C115.787 152.782 116.094 153.002 116.339 153.277C116.584 153.547 116.777 153.852 116.917 154.192C117.057 154.527 117.154 154.87 117.209 155.22C117.269 155.565 117.299 155.892 117.299 156.202V160.68H115.949ZM110.174 160.68V149.88H111.374V155.842H111.524V160.68H110.174ZM122.699 160.905C121.894 160.905 121.199 160.722 120.614 160.357C120.034 159.992 119.587 159.487 119.272 158.842C118.957 158.197 118.799 157.457 118.799 156.622C118.799 155.772 118.959 155.027 119.279 154.387C119.599 153.747 120.052 153.25 120.637 152.895C121.222 152.535 121.909 152.355 122.699 152.355C123.509 152.355 124.207 152.537 124.792 152.902C125.377 153.262 125.824 153.765 126.134 154.41C126.449 155.05 126.607 155.787 126.607 156.622C126.607 157.467 126.449 158.212 126.134 158.857C125.819 159.497 125.369 160 124.784 160.365C124.199 160.725 123.504 160.905 122.699 160.905ZM122.699 159.637C123.539 159.637 124.164 159.357 124.574 158.797C124.984 158.237 125.189 157.512 125.189 156.622C125.189 155.707 124.982 154.98 124.567 154.44C124.152 153.895 123.529 153.622 122.699 153.622C122.134 153.622 121.669 153.75 121.304 154.005C120.939 154.26 120.667 154.612 120.487 155.062C120.307 155.512 120.217 156.032 120.217 156.622C120.217 157.532 120.427 158.262 120.847 158.812C121.267 159.362 121.884 159.637 122.699 159.637ZM134.026 160.68V156.622C134.026 156.237 133.991 155.867 133.921 155.512C133.856 155.157 133.738 154.84 133.568 154.56C133.403 154.275 133.178 154.05 132.893 153.885C132.613 153.72 132.258 153.637 131.828 153.637C131.493 153.637 131.188 153.695 130.913 153.81C130.643 153.92 130.411 154.09 130.216 154.32C130.021 154.55 129.868 154.84 129.758 155.19C129.653 155.535 129.601 155.942 129.601 156.412L128.723 156.142C128.723 155.357 128.863 154.685 129.143 154.125C129.428 153.56 129.826 153.127 130.336 152.827C130.851 152.522 131.456 152.37 132.151 152.37C132.676 152.37 133.123 152.452 133.493 152.617C133.863 152.782 134.171 153.002 134.416 153.277C134.661 153.547 134.853 153.852 134.993 154.192C135.133 154.527 135.231 154.87 135.286 155.22C135.346 155.565 135.376 155.892 135.376 156.202V160.68H134.026ZM128.251 160.68V152.58H129.451V154.747H129.601V160.68H128.251ZM140.762 160.905C139.967 160.905 139.272 160.73 138.677 160.38C138.087 160.025 137.627 159.532 137.297 158.902C136.967 158.267 136.802 157.527 136.802 156.682C136.802 155.797 136.965 155.032 137.29 154.387C137.615 153.737 138.067 153.237 138.647 152.887C139.232 152.532 139.917 152.355 140.702 152.355C141.517 152.355 142.21 152.542 142.78 152.917C143.355 153.292 143.785 153.827 144.07 154.522C144.36 155.217 144.485 156.045 144.445 157.005H143.095V156.525C143.08 155.53 142.877 154.787 142.487 154.297C142.097 153.802 141.517 153.555 140.747 153.555C139.922 153.555 139.295 153.82 138.865 154.35C138.435 154.88 138.22 155.64 138.22 156.63C138.22 157.585 138.435 158.325 138.865 158.85C139.295 159.375 139.907 159.637 140.702 159.637C141.237 159.637 141.702 159.515 142.097 159.27C142.492 159.025 142.802 158.672 143.027 158.212L144.31 158.655C143.995 159.37 143.52 159.925 142.885 160.32C142.255 160.71 141.547 160.905 140.762 160.905ZM137.77 157.005V155.932H143.755V157.005H137.77ZM151 160.68V151.357L148.967 152.587V151.095L151 149.88H152.357V160.68H151ZM158.406 160.905C157.851 160.905 157.334 160.79 156.854 160.56C156.379 160.33 155.971 160.015 155.631 159.615C155.296 159.21 155.056 158.745 154.911 158.22L156.194 157.875C156.284 158.23 156.444 158.537 156.674 158.797C156.904 159.052 157.171 159.252 157.476 159.397C157.786 159.537 158.109 159.607 158.444 159.607C158.884 159.607 159.279 159.502 159.629 159.292C159.984 159.077 160.264 158.795 160.469 158.445C160.674 158.09 160.776 157.702 160.776 157.282C160.776 156.847 160.669 156.455 160.454 156.105C160.244 155.75 159.961 155.47 159.606 155.265C159.251 155.06 158.864 154.957 158.444 154.957C157.969 154.957 157.561 155.057 157.221 155.257C156.886 155.452 156.621 155.692 156.426 155.977L155.241 155.527L155.571 149.88H161.369V151.147H156.216L156.809 150.592L156.531 155.115L156.239 154.732C156.539 154.412 156.896 154.165 157.311 153.99C157.731 153.815 158.159 153.727 158.594 153.727C159.264 153.727 159.864 153.885 160.394 154.2C160.924 154.51 161.344 154.935 161.654 155.475C161.964 156.01 162.119 156.612 162.119 157.282C162.119 157.947 161.949 158.555 161.609 159.105C161.269 159.65 160.816 160.087 160.251 160.417C159.691 160.742 159.076 160.905 158.406 160.905ZM166.915 160.68V149.88H171.183C171.288 149.88 171.413 149.885 171.558 149.895C171.703 149.9 171.843 149.915 171.978 149.94C172.563 150.03 173.053 150.23 173.448 150.54C173.848 150.85 174.148 151.242 174.348 151.717C174.548 152.187 174.648 152.71 174.648 153.285C174.648 153.855 174.545 154.377 174.34 154.852C174.14 155.322 173.84 155.715 173.44 156.03C173.045 156.34 172.558 156.54 171.978 156.63C171.843 156.65 171.703 156.665 171.558 156.675C171.413 156.685 171.288 156.69 171.183 156.69H168.25V160.68H166.915ZM168.25 155.422H171.138C171.233 155.422 171.34 155.417 171.46 155.407C171.585 155.397 171.703 155.38 171.813 155.355C172.158 155.275 172.438 155.13 172.653 154.92C172.873 154.705 173.033 154.455 173.133 154.17C173.233 153.88 173.283 153.585 173.283 153.285C173.283 152.985 173.233 152.692 173.133 152.407C173.033 152.117 172.873 151.865 172.653 151.65C172.438 151.435 172.158 151.29 171.813 151.215C171.703 151.185 171.585 151.167 171.46 151.162C171.34 151.152 171.233 151.147 171.138 151.147H168.25V155.422ZM176.144 160.68V152.58H177.336V154.537L177.141 154.282C177.236 154.032 177.359 153.802 177.509 153.592C177.664 153.382 177.836 153.21 178.026 153.075C178.236 152.905 178.474 152.775 178.739 152.685C179.004 152.595 179.274 152.542 179.549 152.527C179.824 152.507 180.081 152.525 180.321 152.58V153.832C180.041 153.757 179.734 153.737 179.399 153.772C179.064 153.807 178.754 153.93 178.469 154.14C178.209 154.325 178.006 154.55 177.861 154.815C177.721 155.08 177.624 155.367 177.569 155.677C177.514 155.982 177.486 156.295 177.486 156.615V160.68H176.144ZM185.043 160.905C184.238 160.905 183.543 160.722 182.958 160.357C182.378 159.992 181.93 159.487 181.615 158.842C181.3 158.197 181.143 157.457 181.143 156.622C181.143 155.772 181.303 155.027 181.623 154.387C181.943 153.747 182.395 153.25 182.98 152.895C183.565 152.535 184.253 152.355 185.043 152.355C185.853 152.355 186.55 152.537 187.135 152.902C187.72 153.262 188.168 153.765 188.478 154.41C188.793 155.05 188.95 155.787 188.95 156.622C188.95 157.467 188.793 158.212 188.478 158.857C188.163 159.497 187.713 160 187.128 160.365C186.543 160.725 185.848 160.905 185.043 160.905ZM185.043 159.637C185.883 159.637 186.508 159.357 186.918 158.797C187.328 158.237 187.533 157.512 187.533 156.622C187.533 155.707 187.325 154.98 186.91 154.44C186.495 153.895 185.873 153.622 185.043 153.622C184.478 153.622 184.013 153.75 183.648 154.005C183.283 154.26 183.01 154.612 182.83 155.062C182.65 155.512 182.56 156.032 182.56 156.622C182.56 157.532 182.77 158.262 183.19 158.812C183.61 159.362 184.228 159.637 185.043 159.637ZM193.605 160.68V149.88H194.82L198.9 158.482L202.957 149.88H204.187V160.672H202.92V152.812L199.252 160.68H198.54L194.872 152.812V160.68H193.605ZM208.593 160.905C207.988 160.905 207.48 160.795 207.07 160.575C206.665 160.35 206.358 160.055 206.148 159.69C205.943 159.325 205.84 158.925 205.84 158.49C205.84 158.065 205.92 157.697 206.08 157.387C206.245 157.072 206.475 156.812 206.77 156.607C207.065 156.397 207.418 156.232 207.828 156.112C208.213 156.007 208.643 155.917 209.118 155.842C209.598 155.762 210.083 155.69 210.573 155.625C211.063 155.56 211.52 155.497 211.945 155.437L211.465 155.715C211.48 154.995 211.335 154.462 211.03 154.117C210.73 153.772 210.21 153.6 209.47 153.6C208.98 153.6 208.55 153.712 208.18 153.937C207.815 154.157 207.558 154.517 207.408 155.017L206.14 154.635C206.335 153.925 206.713 153.367 207.273 152.962C207.833 152.557 208.57 152.355 209.485 152.355C210.22 152.355 210.85 152.487 211.375 152.752C211.905 153.012 212.285 153.407 212.515 153.937C212.63 154.187 212.703 154.46 212.733 154.755C212.763 155.045 212.778 155.35 212.778 155.67V160.68H211.593V158.737L211.87 158.917C211.565 159.572 211.138 160.067 210.588 160.402C210.043 160.737 209.378 160.905 208.593 160.905ZM208.795 159.787C209.275 159.787 209.69 159.702 210.04 159.532C210.395 159.357 210.68 159.13 210.895 158.85C211.11 158.565 211.25 158.255 211.315 157.92C211.39 157.67 211.43 157.392 211.435 157.087C211.445 156.777 211.45 156.54 211.45 156.375L211.915 156.577C211.48 156.637 211.053 156.695 210.633 156.75C210.213 156.805 209.815 156.865 209.44 156.93C209.065 156.99 208.728 157.062 208.428 157.147C208.208 157.217 208 157.307 207.805 157.417C207.615 157.527 207.46 157.67 207.34 157.845C207.225 158.015 207.168 158.227 207.168 158.482C207.168 158.702 207.223 158.912 207.333 159.112C207.448 159.312 207.623 159.475 207.858 159.6C208.098 159.725 208.41 159.787 208.795 159.787ZM213.828 160.68L216.925 156.585L213.895 152.58H215.485L217.705 155.55L219.903 152.58H221.493L218.463 156.585L221.568 160.68H219.97L217.705 157.62L215.425 160.68H213.828Z" fill="#1B1F3B" fill-opacity="0.9"/>
<path d="M260.482 160.68V149.88H261.832L267.465 158.317V149.88H268.815V160.68H267.465L261.832 152.235V160.68H260.482ZM272.707 155.055C272.212 155.055 271.76 154.935 271.35 154.695C270.94 154.45 270.612 154.125 270.367 153.72C270.127 153.31 270.007 152.855 270.007 152.355C270.007 151.865 270.132 151.415 270.382 151.005C270.632 150.595 270.962 150.267 271.372 150.022C271.782 149.777 272.227 149.655 272.707 149.655C273.202 149.655 273.652 149.777 274.057 150.022C274.467 150.262 274.795 150.587 275.04 150.997C275.285 151.402 275.407 151.855 275.407 152.355C275.407 152.855 275.285 153.31 275.04 153.72C274.795 154.125 274.467 154.45 274.057 154.695C273.652 154.935 273.202 155.055 272.707 155.055ZM272.707 153.877C272.982 153.877 273.235 153.807 273.465 153.667C273.7 153.527 273.885 153.342 274.02 153.112C274.16 152.882 274.23 152.63 274.23 152.355C274.23 152.08 274.16 151.827 274.02 151.597C273.885 151.362 273.7 151.177 273.465 151.042C273.235 150.902 272.982 150.832 272.707 150.832C272.432 150.832 272.18 150.902 271.95 151.042C271.72 151.177 271.535 151.362 271.395 151.597C271.255 151.827 271.185 152.08 271.185 152.355C271.185 152.63 271.255 152.882 271.395 153.112C271.535 153.342 271.72 153.527 271.95 153.667C272.18 153.807 272.432 153.877 272.707 153.877ZM270.457 156.787V155.685H274.957V156.787H270.457ZM282.096 160.68V151.357L280.064 152.587V151.095L282.096 149.88H283.454V160.68H282.096Z" fill="#191C30" fill-opacity="0.45"/>
<rect x="60" y="189.752" width="26.304" height="26.304" rx="8.768" fill="#E7E9EE"/>
<path d="M97.368 199.372V197.992H98.703V199.372H97.368ZM97.368 208.904V200.804H98.703V208.904H97.368ZM100.953 208.904V198.104H105.221C105.326 198.104 105.451 198.109 105.596 198.119C105.741 198.124 105.881 198.139 106.016 198.164C106.601 198.254 107.091 198.454 107.486 198.764C107.886 199.074 108.186 199.467 108.386 199.942C108.586 200.412 108.686 200.934 108.686 201.509C108.686 202.079 108.583 202.602 108.378 203.077C108.178 203.547 107.878 203.939 107.478 204.254C107.083 204.564 106.596 204.764 106.016 204.854C105.881 204.874 105.741 204.889 105.596 204.899C105.451 204.909 105.326 204.914 105.221 204.914H102.288V208.904H100.953ZM102.288 203.647H105.176C105.271 203.647 105.378 203.642 105.498 203.632C105.623 203.622 105.741 203.604 105.851 203.579C106.196 203.499 106.476 203.354 106.691 203.144C106.911 202.929 107.071 202.679 107.171 202.394C107.271 202.104 107.321 201.809 107.321 201.509C107.321 201.209 107.271 200.917 107.171 200.632C107.071 200.342 106.911 200.089 106.691 199.874C106.476 199.659 106.196 199.514 105.851 199.439C105.741 199.409 105.623 199.392 105.498 199.387C105.378 199.377 105.271 199.372 105.176 199.372H102.288V203.647ZM115.949 208.904V204.847C115.949 204.462 115.914 204.092 115.844 203.737C115.779 203.382 115.662 203.064 115.492 202.784C115.327 202.499 115.102 202.274 114.817 202.109C114.537 201.944 114.182 201.862 113.752 201.862C113.417 201.862 113.112 201.919 112.837 202.034C112.567 202.144 112.334 202.314 112.139 202.544C111.944 202.774 111.792 203.064 111.682 203.414C111.577 203.759 111.524 204.167 111.524 204.637L110.647 204.367C110.647 203.582 110.787 202.909 111.067 202.349C111.352 201.784 111.749 201.352 112.259 201.052C112.774 200.747 113.379 200.594 114.074 200.594C114.599 200.594 115.047 200.677 115.417 200.842C115.787 201.007 116.094 201.227 116.339 201.502C116.584 201.772 116.777 202.077 116.917 202.417C117.057 202.752 117.154 203.094 117.209 203.444C117.269 203.789 117.299 204.117 117.299 204.427V208.904H115.949ZM110.174 208.904V198.104H111.374V204.067H111.524V208.904H110.174ZM122.699 209.129C121.894 209.129 121.199 208.947 120.614 208.582C120.034 208.217 119.587 207.712 119.272 207.067C118.957 206.422 118.799 205.682 118.799 204.847C118.799 203.997 118.959 203.252 119.279 202.612C119.599 201.972 120.052 201.474 120.637 201.119C121.222 200.759 121.909 200.579 122.699 200.579C123.509 200.579 124.207 200.762 124.792 201.127C125.377 201.487 125.824 201.989 126.134 202.634C126.449 203.274 126.607 204.012 126.607 204.847C126.607 205.692 126.449 206.437 126.134 207.082C125.819 207.722 125.369 208.224 124.784 208.589C124.199 208.949 123.504 209.129 122.699 209.129ZM122.699 207.862C123.539 207.862 124.164 207.582 124.574 207.022C124.984 206.462 125.189 205.737 125.189 204.847C125.189 203.932 124.982 203.204 124.567 202.664C124.152 202.119 123.529 201.847 122.699 201.847C122.134 201.847 121.669 201.974 121.304 202.229C120.939 202.484 120.667 202.837 120.487 203.287C120.307 203.737 120.217 204.257 120.217 204.847C120.217 205.757 120.427 206.487 120.847 207.037C121.267 207.587 121.884 207.862 122.699 207.862ZM134.026 208.904V204.847C134.026 204.462 133.991 204.092 133.921 203.737C133.856 203.382 133.738 203.064 133.568 202.784C133.403 202.499 133.178 202.274 132.893 202.109C132.613 201.944 132.258 201.862 131.828 201.862C131.493 201.862 131.188 201.919 130.913 202.034C130.643 202.144 130.411 202.314 130.216 202.544C130.021 202.774 129.868 203.064 129.758 203.414C129.653 203.759 129.601 204.167 129.601 204.637L128.723 204.367C128.723 203.582 128.863 202.909 129.143 202.349C129.428 201.784 129.826 201.352 130.336 201.052C130.851 200.747 131.456 200.594 132.151 200.594C132.676 200.594 133.123 200.677 133.493 200.842C133.863 201.007 134.171 201.227 134.416 201.502C134.661 201.772 134.853 202.077 134.993 202.417C135.133 202.752 135.231 203.094 135.286 203.444C135.346 203.789 135.376 204.117 135.376 204.427V208.904H134.026ZM128.251 208.904V200.804H129.451V202.972H129.601V208.904H128.251ZM140.762 209.129C139.967 209.129 139.272 208.954 138.677 208.604C138.087 208.249 137.627 207.757 137.297 207.127C136.967 206.492 136.802 205.752 136.802 204.907C136.802 204.022 136.965 203.257 137.29 202.612C137.615 201.962 138.067 201.462 138.647 201.112C139.232 200.757 139.917 200.579 140.702 200.579C141.517 200.579 142.21 200.767 142.78 201.142C143.355 201.517 143.785 202.052 144.07 202.747C144.36 203.442 144.485 204.269 144.445 205.229H143.095V204.749C143.08 203.754 142.877 203.012 142.487 202.522C142.097 202.027 141.517 201.779 140.747 201.779C139.922 201.779 139.295 202.044 138.865 202.574C138.435 203.104 138.22 203.864 138.22 204.854C138.22 205.809 138.435 206.549 138.865 207.074C139.295 207.599 139.907 207.862 140.702 207.862C141.237 207.862 141.702 207.739 142.097 207.494C142.492 207.249 142.802 206.897 143.027 206.437L144.31 206.879C143.995 207.594 143.52 208.149 142.885 208.544C142.255 208.934 141.547 209.129 140.762 209.129ZM137.77 205.229V204.157H143.755V205.229H137.77ZM151 208.904V199.582L148.967 200.812V199.319L151 198.104H152.357V208.904H151ZM158.406 209.129C157.851 209.129 157.334 209.014 156.854 208.784C156.379 208.554 155.971 208.239 155.631 207.839C155.296 207.434 155.056 206.969 154.911 206.444L156.194 206.099C156.284 206.454 156.444 206.762 156.674 207.022C156.904 207.277 157.171 207.477 157.476 207.622C157.786 207.762 158.109 207.832 158.444 207.832C158.884 207.832 159.279 207.727 159.629 207.517C159.984 207.302 160.264 207.019 160.469 206.669C160.674 206.314 160.776 205.927 160.776 205.507C160.776 205.072 160.669 204.679 160.454 204.329C160.244 203.974 159.961 203.694 159.606 203.489C159.251 203.284 158.864 203.182 158.444 203.182C157.969 203.182 157.561 203.282 157.221 203.482C156.886 203.677 156.621 203.917 156.426 204.202L155.241 203.752L155.571 198.104H161.369V199.372H156.216L156.809 198.817L156.531 203.339L156.239 202.957C156.539 202.637 156.896 202.389 157.311 202.214C157.731 202.039 158.159 201.952 158.594 201.952C159.264 201.952 159.864 202.109 160.394 202.424C160.924 202.734 161.344 203.159 161.654 203.699C161.964 204.234 162.119 204.837 162.119 205.507C162.119 206.172 161.949 206.779 161.609 207.329C161.269 207.874 160.816 208.312 160.251 208.642C159.691 208.967 159.076 209.129 158.406 209.129ZM166.915 208.904V198.104H171.183C171.288 198.104 171.413 198.109 171.558 198.119C171.703 198.124 171.843 198.139 171.978 198.164C172.563 198.254 173.053 198.454 173.448 198.764C173.848 199.074 174.148 199.467 174.348 199.942C174.548 200.412 174.648 200.934 174.648 201.509C174.648 202.079 174.545 202.602 174.34 203.077C174.14 203.547 173.84 203.939 173.44 204.254C173.045 204.564 172.558 204.764 171.978 204.854C171.843 204.874 171.703 204.889 171.558 204.899C171.413 204.909 171.288 204.914 171.183 204.914H168.25V208.904H166.915ZM168.25 203.647H171.138C171.233 203.647 171.34 203.642 171.46 203.632C171.585 203.622 171.703 203.604 171.813 203.579C172.158 203.499 172.438 203.354 172.653 203.144C172.873 202.929 173.033 202.679 173.133 202.394C173.233 202.104 173.283 201.809 173.283 201.509C173.283 201.209 173.233 200.917 173.133 200.632C173.033 200.342 172.873 200.089 172.653 199.874C172.438 199.659 172.158 199.514 171.813 199.439C171.703 199.409 171.585 199.392 171.46 199.387C171.34 199.377 171.233 199.372 171.138 199.372H168.25V203.647ZM176.144 208.904V200.804H177.336V202.762L177.141 202.507C177.236 202.257 177.359 202.027 177.509 201.817C177.664 201.607 177.836 201.434 178.026 201.299C178.236 201.129 178.474 200.999 178.739 200.909C179.004 200.819 179.274 200.767 179.549 200.752C179.824 200.732 180.081 200.749 180.321 200.804V202.057C180.041 201.982 179.734 201.962 179.399 201.997C179.064 202.032 178.754 202.154 178.469 202.364C178.209 202.549 178.006 202.774 177.861 203.039C177.721 203.304 177.624 203.592 177.569 203.902C177.514 204.207 177.486 204.519 177.486 204.839V208.904H176.144ZM185.043 209.129C184.238 209.129 183.543 208.947 182.958 208.582C182.378 208.217 181.93 207.712 181.615 207.067C181.3 206.422 181.143 205.682 181.143 204.847C181.143 203.997 181.303 203.252 181.623 202.612C181.943 201.972 182.395 201.474 182.98 201.119C183.565 200.759 184.253 200.579 185.043 200.579C185.853 200.579 186.55 200.762 187.135 201.127C187.72 201.487 188.168 201.989 188.478 202.634C188.793 203.274 188.95 204.012 188.95 204.847C188.95 205.692 188.793 206.437 188.478 207.082C188.163 207.722 187.713 208.224 187.128 208.589C186.543 208.949 185.848 209.129 185.043 209.129ZM185.043 207.862C185.883 207.862 186.508 207.582 186.918 207.022C187.328 206.462 187.533 205.737 187.533 204.847C187.533 203.932 187.325 203.204 186.91 202.664C186.495 202.119 185.873 201.847 185.043 201.847C184.478 201.847 184.013 201.974 183.648 202.229C183.283 202.484 183.01 202.837 182.83 203.287C182.65 203.737 182.56 204.257 182.56 204.847C182.56 205.757 182.77 206.487 183.19 207.037C183.61 207.587 184.228 207.862 185.043 207.862ZM193.605 208.904V198.104H194.82L198.9 206.707L202.957 198.104H204.187V208.897H202.92V201.037L199.252 208.904H198.54L194.872 201.037V208.904H193.605ZM208.593 209.129C207.988 209.129 207.48 209.019 207.07 208.799C206.665 208.574 206.358 208.279 206.148 207.914C205.943 207.549 205.84 207.149 205.84 206.714C205.84 206.289 205.92 205.922 206.08 205.612C206.245 205.297 206.475 205.037 206.77 204.832C207.065 204.622 207.418 204.457 207.828 204.337C208.213 204.232 208.643 204.142 209.118 204.067C209.598 203.987 210.083 203.914 210.573 203.849C211.063 203.784 211.52 203.722 211.945 203.662L211.465 203.939C211.48 203.219 211.335 202.687 211.03 202.342C210.73 201.997 210.21 201.824 209.47 201.824C208.98 201.824 208.55 201.937 208.18 202.162C207.815 202.382 207.558 202.742 207.408 203.242L206.14 202.859C206.335 202.149 206.713 201.592 207.273 201.187C207.833 200.782 208.57 200.579 209.485 200.579C210.22 200.579 210.85 200.712 211.375 200.977C211.905 201.237 212.285 201.632 212.515 202.162C212.63 202.412 212.703 202.684 212.733 202.979C212.763 203.269 212.778 203.574 212.778 203.894V208.904H211.593V206.962L211.87 207.142C211.565 207.797 211.138 208.292 210.588 208.627C210.043 208.962 209.378 209.129 208.593 209.129ZM208.795 208.012C209.275 208.012 209.69 207.927 210.04 207.757C210.395 207.582 210.68 207.354 210.895 207.074C211.11 206.789 211.25 206.479 211.315 206.144C211.39 205.894 211.43 205.617 211.435 205.312C211.445 205.002 211.45 204.764 211.45 204.599L211.915 204.802C211.48 204.862 211.053 204.919 210.633 204.974C210.213 205.029 209.815 205.089 209.44 205.154C209.065 205.214 208.728 205.287 208.428 205.372C208.208 205.442 208 205.532 207.805 205.642C207.615 205.752 207.46 205.894 207.34 206.069C207.225 206.239 207.168 206.452 207.168 206.707C207.168 206.927 207.223 207.137 207.333 207.337C207.448 207.537 207.623 207.699 207.858 207.824C208.098 207.949 208.41 208.012 208.795 208.012ZM213.828 208.904L216.925 204.809L213.895 200.804H215.485L217.705 203.774L219.903 200.804H221.493L218.463 204.809L221.568 208.904H219.97L217.705 205.844L215.425 208.904H213.828Z" fill="#1B1F3B" fill-opacity="0.9"/>
<path d="M260.482 208.904V198.104H261.832L267.465 206.542V198.104H268.815V208.904H267.465L261.832 200.459V208.904H260.482ZM272.707 203.279C272.212 203.279 271.76 203.159 271.35 202.919C270.94 202.674 270.612 202.349 270.367 201.944C270.127 201.534 270.007 201.079 270.007 200.579C270.007 200.089 270.132 199.639 270.382 199.229C270.632 198.819 270.962 198.492 271.372 198.247C271.782 198.002 272.227 197.879 272.707 197.879C273.202 197.879 273.652 198.002 274.057 198.247C274.467 198.487 274.795 198.812 275.04 199.222C275.285 199.627 275.407 200.079 275.407 200.579C275.407 201.079 275.285 201.534 275.04 201.944C274.795 202.349 274.467 202.674 274.057 202.919C273.652 203.159 273.202 203.279 272.707 203.279ZM272.707 202.102C272.982 202.102 273.235 202.032 273.465 201.892C273.7 201.752 273.885 201.567 274.02 201.337C274.16 201.107 274.23 200.854 274.23 200.579C274.23 200.304 274.16 200.052 274.02 199.822C273.885 199.587 273.7 199.402 273.465 199.267C273.235 199.127 272.982 199.057 272.707 199.057C272.432 199.057 272.18 199.127 271.95 199.267C271.72 199.402 271.535 199.587 271.395 199.822C271.255 200.052 271.185 200.304 271.185 200.579C271.185 200.854 271.255 201.107 271.395 201.337C271.535 201.567 271.72 201.752 271.95 201.892C272.18 202.032 272.432 202.102 272.707 202.102ZM270.457 205.012V203.909H274.957V205.012H270.457ZM279.914 208.897L279.921 207.697L284.714 203.384C285.114 203.024 285.381 202.684 285.516 202.364C285.656 202.039 285.726 201.707 285.726 201.367C285.726 200.952 285.631 200.577 285.441 200.242C285.251 199.907 284.991 199.642 284.661 199.447C284.336 199.252 283.966 199.154 283.551 199.154C283.121 199.154 282.739 199.257 282.404 199.462C282.069 199.662 281.804 199.929 281.609 200.264C281.419 200.599 281.326 200.964 281.331 201.359H279.966C279.966 200.679 280.124 200.079 280.439 199.559C280.754 199.034 281.181 198.624 281.721 198.329C282.266 198.029 282.884 197.879 283.574 197.879C284.244 197.879 284.844 198.034 285.374 198.344C285.904 198.649 286.321 199.067 286.626 199.597C286.936 200.122 287.091 200.717 287.091 201.382C287.091 201.852 287.031 202.259 286.911 202.604C286.796 202.949 286.616 203.269 286.371 203.564C286.126 203.854 285.819 204.164 285.449 204.494L281.466 208.072L281.294 207.622H287.091V208.897H279.914Z" fill="#DD4C1E" fill-opacity="0.75"/>
<rect x="60" y="237.976" width="26.304" height="26.304" rx="8.768" fill="#E7E9EE"/>
<path d="M97.368 247.596V246.216H98.703V247.596H97.368ZM97.368 257.128V249.028H98.703V257.128H97.368ZM100.953 257.128V246.328H105.221C105.326 246.328 105.451 246.333 105.596 246.343C105.741 246.348 105.881 246.363 106.016 246.388C106.601 246.478 107.091 246.678 107.486 246.988C107.886 247.298 108.186 247.691 108.386 248.166C108.586 248.636 108.686 249.158 108.686 249.733C108.686 250.303 108.583 250.826 108.378 251.301C108.178 251.771 107.878 252.163 107.478 252.478C107.083 252.788 106.596 252.988 106.016 253.078C105.881 253.098 105.741 253.113 105.596 253.123C105.451 253.133 105.326 253.138 105.221 253.138H102.288V257.128H100.953ZM102.288 251.871H105.176C105.271 251.871 105.378 251.866 105.498 251.856C105.623 251.846 105.741 251.828 105.851 251.803C106.196 251.723 106.476 251.578 106.691 251.368C106.911 251.153 107.071 250.903 107.171 250.618C107.271 250.328 107.321 250.033 107.321 249.733C107.321 249.433 107.271 249.141 107.171 248.856C107.071 248.566 106.911 248.313 106.691 248.098C106.476 247.883 106.196 247.738 105.851 247.663C105.741 247.633 105.623 247.616 105.498 247.611C105.378 247.601 105.271 247.596 105.176 247.596H102.288V251.871ZM115.949 257.128V253.071C115.949 252.686 115.914 252.316 115.844 251.961C115.779 251.606 115.662 251.288 115.492 251.008C115.327 250.723 115.102 250.498 114.817 250.333C114.537 250.168 114.182 250.086 113.752 250.086C113.417 250.086 113.112 250.143 112.837 250.258C112.567 250.368 112.334 250.538 112.139 250.768C111.944 250.998 111.792 251.288 111.682 251.638C111.577 251.983 111.524 252.391 111.524 252.861L110.647 252.591C110.647 251.806 110.787 251.133 111.067 250.573C111.352 250.008 111.749 249.576 112.259 249.276C112.774 248.971 113.379 248.818 114.074 248.818C114.599 248.818 115.047 248.901 115.417 249.066C115.787 249.231 116.094 249.451 116.339 249.726C116.584 249.996 116.777 250.301 116.917 250.641C117.057 250.976 117.154 251.318 117.209 251.668C117.269 252.013 117.299 252.341 117.299 252.651V257.128H115.949ZM110.174 257.128V246.328H111.374V252.291H111.524V257.128H110.174ZM122.699 257.353C121.894 257.353 121.199 257.171 120.614 256.806C120.034 256.441 119.587 255.936 119.272 255.291C118.957 254.646 118.799 253.906 118.799 253.071C118.799 252.221 118.959 251.476 119.279 250.836C119.599 250.196 120.052 249.698 120.637 249.343C121.222 248.983 121.909 248.803 122.699 248.803C123.509 248.803 124.207 248.986 124.792 249.351C125.377 249.711 125.824 250.213 126.134 250.858C126.449 251.498 126.607 252.236 126.607 253.071C126.607 253.916 126.449 254.661 126.134 255.306C125.819 255.946 125.369 256.448 124.784 256.813C124.199 257.173 123.504 257.353 122.699 257.353ZM122.699 256.086C123.539 256.086 124.164 255.806 124.574 255.246C124.984 254.686 125.189 253.961 125.189 253.071C125.189 252.156 124.982 251.428 124.567 250.888C124.152 250.343 123.529 250.071 122.699 250.071C122.134 250.071 121.669 250.198 121.304 250.453C120.939 250.708 120.667 251.061 120.487 251.511C120.307 251.961 120.217 252.481 120.217 253.071C120.217 253.981 120.427 254.711 120.847 255.261C121.267 255.811 121.884 256.086 122.699 256.086ZM134.026 257.128V253.071C134.026 252.686 133.991 252.316 133.921 251.961C133.856 251.606 133.738 251.288 133.568 251.008C133.403 250.723 133.178 250.498 132.893 250.333C132.613 250.168 132.258 250.086 131.828 250.086C131.493 250.086 131.188 250.143 130.913 250.258C130.643 250.368 130.411 250.538 130.216 250.768C130.021 250.998 129.868 251.288 129.758 251.638C129.653 251.983 129.601 252.391 129.601 252.861L128.723 252.591C128.723 251.806 128.863 251.133 129.143 250.573C129.428 250.008 129.826 249.576 130.336 249.276C130.851 248.971 131.456 248.818 132.151 248.818C132.676 248.818 133.123 248.901 133.493 249.066C133.863 249.231 134.171 249.451 134.416 249.726C134.661 249.996 134.853 250.301 134.993 250.641C135.133 250.976 135.231 251.318 135.286 251.668C135.346 252.013 135.376 252.341 135.376 252.651V257.128H134.026ZM128.251 257.128V249.028H129.451V251.196H129.601V257.128H128.251ZM140.762 257.353C139.967 257.353 139.272 257.178 138.677 256.828C138.087 256.473 137.627 255.981 137.297 255.351C136.967 254.716 136.802 253.976 136.802 253.131C136.802 252.246 136.965 251.481 137.29 250.836C137.615 250.186 138.067 249.686 138.647 249.336C139.232 248.981 139.917 248.803 140.702 248.803C141.517 248.803 142.21 248.991 142.78 249.366C143.355 249.741 143.785 250.276 144.07 250.971C144.36 251.666 144.485 252.493 144.445 253.453H143.095V252.973C143.08 251.978 142.877 251.236 142.487 250.746C142.097 250.251 141.517 250.003 140.747 250.003C139.922 250.003 139.295 250.268 138.865 250.798C138.435 251.328 138.22 252.088 138.22 253.078C138.22 254.033 138.435 254.773 138.865 255.298C139.295 255.823 139.907 256.086 140.702 256.086C141.237 256.086 141.702 255.963 142.097 255.718C142.492 255.473 142.802 255.121 143.027 254.661L144.31 255.103C143.995 255.818 143.52 256.373 142.885 256.768C142.255 257.158 141.547 257.353 140.762 257.353ZM137.77 253.453V252.381H143.755V253.453H137.77ZM151 257.128V247.806L148.967 249.036V247.543L151 246.328H152.357V257.128H151ZM158.406 257.353C157.851 257.353 157.334 257.238 156.854 257.008C156.379 256.778 155.971 256.463 155.631 256.063C155.296 255.658 155.056 255.193 154.911 254.668L156.194 254.323C156.284 254.678 156.444 254.986 156.674 255.246C156.904 255.501 157.171 255.701 157.476 255.846C157.786 255.986 158.109 256.056 158.444 256.056C158.884 256.056 159.279 255.951 159.629 255.741C159.984 255.526 160.264 255.243 160.469 254.893C160.674 254.538 160.776 254.151 160.776 253.731C160.776 253.296 160.669 252.903 160.454 252.553C160.244 252.198 159.961 251.918 159.606 251.713C159.251 251.508 158.864 251.406 158.444 251.406C157.969 251.406 157.561 251.506 157.221 251.706C156.886 251.901 156.621 252.141 156.426 252.426L155.241 251.976L155.571 246.328H161.369V247.596H156.216L156.809 247.041L156.531 251.563L156.239 251.181C156.539 250.861 156.896 250.613 157.311 250.438C157.731 250.263 158.159 250.176 158.594 250.176C159.264 250.176 159.864 250.333 160.394 250.648C160.924 250.958 161.344 251.383 161.654 251.923C161.964 252.458 162.119 253.061 162.119 253.731C162.119 254.396 161.949 255.003 161.609 255.553C161.269 256.098 160.816 256.536 160.251 256.866C159.691 257.191 159.076 257.353 158.406 257.353ZM166.915 257.128V246.328H171.183C171.288 246.328 171.413 246.333 171.558 246.343C171.703 246.348 171.843 246.363 171.978 246.388C172.563 246.478 173.053 246.678 173.448 246.988C173.848 247.298 174.148 247.691 174.348 248.166C174.548 248.636 174.648 249.158 174.648 249.733C174.648 250.303 174.545 250.826 174.34 251.301C174.14 251.771 173.84 252.163 173.44 252.478C173.045 252.788 172.558 252.988 171.978 253.078C171.843 253.098 171.703 253.113 171.558 253.123C171.413 253.133 171.288 253.138 171.183 253.138H168.25V257.128H166.915ZM168.25 251.871H171.138C171.233 251.871 171.34 251.866 171.46 251.856C171.585 251.846 171.703 251.828 171.813 251.803C172.158 251.723 172.438 251.578 172.653 251.368C172.873 251.153 173.033 250.903 173.133 250.618C173.233 250.328 173.283 250.033 173.283 249.733C173.283 249.433 173.233 249.141 173.133 248.856C173.033 248.566 172.873 248.313 172.653 248.098C172.438 247.883 172.158 247.738 171.813 247.663C171.703 247.633 171.585 247.616 171.46 247.611C171.34 247.601 171.233 247.596 171.138 247.596H168.25V251.871ZM176.144 257.128V249.028H177.336V250.986L177.141 250.731C177.236 250.481 177.359 250.251 177.509 250.041C177.664 249.831 177.836 249.658 178.026 249.523C178.236 249.353 178.474 249.223 178.739 249.133C179.004 249.043 179.274 248.991 179.549 248.976C179.824 248.956 180.081 248.973 180.321 249.028V250.281C180.041 250.206 179.734 250.186 179.399 250.221C179.064 250.256 178.754 250.378 178.469 250.588C178.209 250.773 178.006 250.998 177.861 251.263C177.721 251.528 177.624 251.816 177.569 252.126C177.514 252.431 177.486 252.743 177.486 253.063V257.128H176.144ZM185.043 257.353C184.238 257.353 183.543 257.171 182.958 256.806C182.378 256.441 181.93 255.936 181.615 255.291C181.3 254.646 181.143 253.906 181.143 253.071C181.143 252.221 181.303 251.476 181.623 250.836C181.943 250.196 182.395 249.698 182.98 249.343C183.565 248.983 184.253 248.803 185.043 248.803C185.853 248.803 186.55 248.986 187.135 249.351C187.72 249.711 188.168 250.213 188.478 250.858C188.793 251.498 188.95 252.236 188.95 253.071C188.95 253.916 188.793 254.661 188.478 255.306C188.163 255.946 187.713 256.448 187.128 256.813C186.543 257.173 185.848 257.353 185.043 257.353ZM185.043 256.086C185.883 256.086 186.508 255.806 186.918 255.246C187.328 254.686 187.533 253.961 187.533 253.071C187.533 252.156 187.325 251.428 186.91 250.888C186.495 250.343 185.873 250.071 185.043 250.071C184.478 250.071 184.013 250.198 183.648 250.453C183.283 250.708 183.01 251.061 182.83 251.511C182.65 251.961 182.56 252.481 182.56 253.071C182.56 253.981 182.77 254.711 183.19 255.261C183.61 255.811 184.228 256.086 185.043 256.086ZM193.605 257.128V246.328H194.82L198.9 254.931L202.957 246.328H204.187V257.121H202.92V249.261L199.252 257.128H198.54L194.872 249.261V257.128H193.605ZM208.593 257.353C207.988 257.353 207.48 257.243 207.07 257.023C206.665 256.798 206.358 256.503 206.148 256.138C205.943 255.773 205.84 255.373 205.84 254.938C205.84 254.513 205.92 254.146 206.08 253.836C206.245 253.521 206.475 253.261 206.77 253.056C207.065 252.846 207.418 252.681 207.828 252.561C208.213 252.456 208.643 252.366 209.118 252.291C209.598 252.211 210.083 252.138 210.573 252.073C211.063 252.008 211.52 251.946 211.945 251.886L211.465 252.163C211.48 251.443 211.335 250.911 211.03 250.566C210.73 250.221 210.21 250.048 209.47 250.048C208.98 250.048 208.55 250.161 208.18 250.386C207.815 250.606 207.558 250.966 207.408 251.466L206.14 251.083C206.335 250.373 206.713 249.816 207.273 249.411C207.833 249.006 208.57 248.803 209.485 248.803C210.22 248.803 210.85 248.936 211.375 249.201C211.905 249.461 212.285 249.856 212.515 250.386C212.63 250.636 212.703 250.908 212.733 251.203C212.763 251.493 212.778 251.798 212.778 252.118V257.128H211.593V255.186L211.87 255.366C211.565 256.021 211.138 256.516 210.588 256.851C210.043 257.186 209.378 257.353 208.593 257.353ZM208.795 256.236C209.275 256.236 209.69 256.151 210.04 255.981C210.395 255.806 210.68 255.578 210.895 255.298C211.11 255.013 211.25 254.703 211.315 254.368C211.39 254.118 211.43 253.841 211.435 253.536C211.445 253.226 211.45 252.988 211.45 252.823L211.915 253.026C211.48 253.086 211.053 253.143 210.633 253.198C210.213 253.253 209.815 253.313 209.44 253.378C209.065 253.438 208.728 253.511 208.428 253.596C208.208 253.666 208 253.756 207.805 253.866C207.615 253.976 207.46 254.118 207.34 254.293C207.225 254.463 207.168 254.676 207.168 254.931C207.168 255.151 207.223 255.361 207.333 255.561C207.448 255.761 207.623 255.923 207.858 256.048C208.098 256.173 208.41 256.236 208.795 256.236ZM213.828 257.128L216.925 253.033L213.895 249.028H215.485L217.705 251.998L219.903 249.028H221.493L218.463 253.033L221.568 257.128H219.97L217.705 254.068L215.425 257.128H213.828Z" fill="#1B1F3B" fill-opacity="0.9"/>
<path d="M260.482 257.128V246.328H261.832L267.465 254.766V246.328H268.815V257.128H267.465L261.832 248.683V257.128H260.482ZM272.707 251.503C272.212 251.503 271.76 251.383 271.35 251.143C270.94 250.898 270.612 250.573 270.367 250.168C270.127 249.758 270.007 249.303 270.007 248.803C270.007 248.313 270.132 247.863 270.382 247.453C270.632 247.043 270.962 246.716 271.372 246.471C271.782 246.226 272.227 246.103 272.707 246.103C273.202 246.103 273.652 246.226 274.057 246.471C274.467 246.711 274.795 247.036 275.04 247.446C275.285 247.851 275.407 248.303 275.407 248.803C275.407 249.303 275.285 249.758 275.04 250.168C274.795 250.573 274.467 250.898 274.057 251.143C273.652 251.383 273.202 251.503 272.707 251.503ZM272.707 250.326C272.982 250.326 273.235 250.256 273.465 250.116C273.7 249.976 273.885 249.791 274.02 249.561C274.16 249.331 274.23 249.078 274.23 248.803C274.23 248.528 274.16 248.276 274.02 248.046C273.885 247.811 273.7 247.626 273.465 247.491C273.235 247.351 272.982 247.281 272.707 247.281C272.432 247.281 272.18 247.351 271.95 247.491C271.72 247.626 271.535 247.811 271.395 248.046C271.255 248.276 271.185 248.528 271.185 248.803C271.185 249.078 271.255 249.331 271.395 249.561C271.535 249.791 271.72 249.976 271.95 250.116C272.18 250.256 272.432 250.326 272.707 250.326ZM270.457 253.236V252.133H274.957V253.236H270.457ZM279.914 257.121L279.921 255.921L284.714 251.608C285.114 251.248 285.381 250.908 285.516 250.588C285.656 250.263 285.726 249.931 285.726 249.591C285.726 249.176 285.631 248.801 285.441 248.466C285.251 248.131 284.991 247.866 284.661 247.671C284.336 247.476 283.966 247.378 283.551 247.378C283.121 247.378 282.739 247.481 282.404 247.686C282.069 247.886 281.804 248.153 281.609 248.488C281.419 248.823 281.326 249.188 281.331 249.583H279.966C279.966 248.903 280.124 248.303 280.439 247.783C280.754 247.258 281.181 246.848 281.721 246.553C282.266 246.253 282.884 246.103 283.574 246.103C284.244 246.103 284.844 246.258 285.374 246.568C285.904 246.873 286.321 247.291 286.626 247.821C286.936 248.346 287.091 248.941 287.091 249.606C287.091 250.076 287.031 250.483 286.911 250.828C286.796 251.173 286.616 251.493 286.371 251.788C286.126 252.078 285.819 252.388 285.449 252.718L281.466 256.296L281.294 255.846H287.091V257.121H279.914Z" fill="#DD4C1E" fill-opacity="0.75"/>
<rect x="60" y="286.2" width="26.304" height="26.304" rx="8.768" fill="#E7E9EE"/>
<path d="M97.368 295.82V294.44H98.703V295.82H97.368ZM97.368 305.352V297.252H98.703V305.352H97.368ZM100.953 305.352V294.552H105.221C105.326 294.552 105.451 294.557 105.596 294.567C105.741 294.572 105.881 294.587 106.016 294.612C106.601 294.702 107.091 294.902 107.486 295.212C107.886 295.522 108.186 295.915 108.386 296.39C108.586 296.86 108.686 297.382 108.686 297.957C108.686 298.527 108.583 299.05 108.378 299.525C108.178 299.995 107.878 300.387 107.478 300.702C107.083 301.012 106.596 301.212 106.016 301.302C105.881 301.322 105.741 301.337 105.596 301.347C105.451 301.357 105.326 301.362 105.221 301.362H102.288V305.352H100.953ZM102.288 300.095H105.176C105.271 300.095 105.378 300.09 105.498 300.08C105.623 300.07 105.741 300.052 105.851 300.027C106.196 299.947 106.476 299.802 106.691 299.592C106.911 299.377 107.071 299.127 107.171 298.842C107.271 298.552 107.321 298.257 107.321 297.957C107.321 297.657 107.271 297.365 107.171 297.08C107.071 296.79 106.911 296.537 106.691 296.322C106.476 296.107 106.196 295.962 105.851 295.887C105.741 295.857 105.623 295.84 105.498 295.835C105.378 295.825 105.271 295.82 105.176 295.82H102.288V300.095ZM115.949 305.352V301.295C115.949 300.91 115.914 300.54 115.844 300.185C115.779 299.83 115.662 299.512 115.492 299.232C115.327 298.947 115.102 298.722 114.817 298.557C114.537 298.392 114.182 298.31 113.752 298.31C113.417 298.31 113.112 298.367 112.837 298.482C112.567 298.592 112.334 298.762 112.139 298.992C111.944 299.222 111.792 299.512 111.682 299.862C111.577 300.207 111.524 300.615 111.524 301.085L110.647 300.815C110.647 300.03 110.787 299.357 111.067 298.797C111.352 298.232 111.749 297.8 112.259 297.5C112.774 297.195 113.379 297.042 114.074 297.042C114.599 297.042 115.047 297.125 115.417 297.29C115.787 297.455 116.094 297.675 116.339 297.95C116.584 298.22 116.777 298.525 116.917 298.865C117.057 299.2 117.154 299.542 117.209 299.892C117.269 300.237 117.299 300.565 117.299 300.875V305.352H115.949ZM110.174 305.352V294.552H111.374V300.515H111.524V305.352H110.174ZM122.699 305.577C121.894 305.577 121.199 305.395 120.614 305.03C120.034 304.665 119.587 304.16 119.272 303.515C118.957 302.87 118.799 302.13 118.799 301.295C118.799 300.445 118.959 299.7 119.279 299.06C119.599 298.42 120.052 297.922 120.637 297.567C121.222 297.207 121.909 297.027 122.699 297.027C123.509 297.027 124.207 297.21 124.792 297.575C125.377 297.935 125.824 298.437 126.134 299.082C126.449 299.722 126.607 300.46 126.607 301.295C126.607 302.14 126.449 302.885 126.134 303.53C125.819 304.17 125.369 304.672 124.784 305.037C124.199 305.397 123.504 305.577 122.699 305.577ZM122.699 304.31C123.539 304.31 124.164 304.03 124.574 303.47C124.984 302.91 125.189 302.185 125.189 301.295C125.189 300.38 124.982 299.652 124.567 299.112C124.152 298.567 123.529 298.295 122.699 298.295C122.134 298.295 121.669 298.422 121.304 298.677C120.939 298.932 120.667 299.285 120.487 299.735C120.307 300.185 120.217 300.705 120.217 301.295C120.217 302.205 120.427 302.935 120.847 303.485C121.267 304.035 121.884 304.31 122.699 304.31ZM134.026 305.352V301.295C134.026 300.91 133.991 300.54 133.921 300.185C133.856 299.83 133.738 299.512 133.568 299.232C133.403 298.947 133.178 298.722 132.893 298.557C132.613 298.392 132.258 298.31 131.828 298.31C131.493 298.31 131.188 298.367 130.913 298.482C130.643 298.592 130.411 298.762 130.216 298.992C130.021 299.222 129.868 299.512 129.758 299.862C129.653 300.207 129.601 300.615 129.601 301.085L128.723 300.815C128.723 300.03 128.863 299.357 129.143 298.797C129.428 298.232 129.826 297.8 130.336 297.5C130.851 297.195 131.456 297.042 132.151 297.042C132.676 297.042 133.123 297.125 133.493 297.29C133.863 297.455 134.171 297.675 134.416 297.95C134.661 298.22 134.853 298.525 134.993 298.865C135.133 299.2 135.231 299.542 135.286 299.892C135.346 300.237 135.376 300.565 135.376 300.875V305.352H134.026ZM128.251 305.352V297.252H129.451V299.42H129.601V305.352H128.251ZM140.762 305.577C139.967 305.577 139.272 305.402 138.677 305.052C138.087 304.697 137.627 304.205 137.297 303.575C136.967 302.94 136.802 302.2 136.802 301.355C136.802 300.47 136.965 299.705 137.29 299.06C137.615 298.41 138.067 297.91 138.647 297.56C139.232 297.205 139.917 297.027 140.702 297.027C141.517 297.027 142.21 297.215 142.78 297.59C143.355 297.965 143.785 298.5 144.07 299.195C144.36 299.89 144.485 300.717 144.445 301.677H143.095V301.197C143.08 300.202 142.877 299.46 142.487 298.97C142.097 298.475 141.517 298.227 140.747 298.227C139.922 298.227 139.295 298.492 138.865 299.022C138.435 299.552 138.22 300.312 138.22 301.302C138.22 302.257 138.435 302.997 138.865 303.522C139.295 304.047 139.907 304.31 140.702 304.31C141.237 304.31 141.702 304.187 142.097 303.942C142.492 303.697 142.802 303.345 143.027 302.885L144.31 303.327C143.995 304.042 143.52 304.597 142.885 304.992C142.255 305.382 141.547 305.577 140.762 305.577ZM137.77 301.677V300.605H143.755V301.677H137.77ZM151 305.352V296.03L148.967 297.26V295.767L151 294.552H152.357V305.352H151ZM158.406 305.577C157.851 305.577 157.334 305.462 156.854 305.232C156.379 305.002 155.971 304.687 155.631 304.287C155.296 303.882 155.056 303.417 154.911 302.892L156.194 302.547C156.284 302.902 156.444 303.21 156.674 303.47C156.904 303.725 157.171 303.925 157.476 304.07C157.786 304.21 158.109 304.28 158.444 304.28C158.884 304.28 159.279 304.175 159.629 303.965C159.984 303.75 160.264 303.467 160.469 303.117C160.674 302.762 160.776 302.375 160.776 301.955C160.776 301.52 160.669 301.127 160.454 300.777C160.244 300.422 159.961 300.142 159.606 299.937C159.251 299.732 158.864 299.63 158.444 299.63C157.969 299.63 157.561 299.73 157.221 299.93C156.886 300.125 156.621 300.365 156.426 300.65L155.241 300.2L155.571 294.552H161.369V295.82H156.216L156.809 295.265L156.531 299.787L156.239 299.405C156.539 299.085 156.896 298.837 157.311 298.662C157.731 298.487 158.159 298.4 158.594 298.4C159.264 298.4 159.864 298.557 160.394 298.872C160.924 299.182 161.344 299.607 161.654 300.147C161.964 300.682 162.119 301.285 162.119 301.955C162.119 302.62 161.949 303.227 161.609 303.777C161.269 304.322 160.816 304.76 160.251 305.09C159.691 305.415 159.076 305.577 158.406 305.577ZM166.915 305.352V294.552H171.183C171.288 294.552 171.413 294.557 171.558 294.567C171.703 294.572 171.843 294.587 171.978 294.612C172.563 294.702 173.053 294.902 173.448 295.212C173.848 295.522 174.148 295.915 174.348 296.39C174.548 296.86 174.648 297.382 174.648 297.957C174.648 298.527 174.545 299.05 174.34 299.525C174.14 299.995 173.84 300.387 173.44 300.702C173.045 301.012 172.558 301.212 171.978 301.302C171.843 301.322 171.703 301.337 171.558 301.347C171.413 301.357 171.288 301.362 171.183 301.362H168.25V305.352H166.915ZM168.25 300.095H171.138C171.233 300.095 171.34 300.09 171.46 300.08C171.585 300.07 171.703 300.052 171.813 300.027C172.158 299.947 172.438 299.802 172.653 299.592C172.873 299.377 173.033 299.127 173.133 298.842C173.233 298.552 173.283 298.257 173.283 297.957C173.283 297.657 173.233 297.365 173.133 297.08C173.033 296.79 172.873 296.537 172.653 296.322C172.438 296.107 172.158 295.962 171.813 295.887C171.703 295.857 171.585 295.84 171.46 295.835C171.34 295.825 171.233 295.82 171.138 295.82H168.25V300.095ZM176.144 305.352V297.252H177.336V299.21L177.141 298.955C177.236 298.705 177.359 298.475 177.509 298.265C177.664 298.055 177.836 297.882 178.026 297.747C178.236 297.577 178.474 297.447 178.739 297.357C179.004 297.267 179.274 297.215 179.549 297.2C179.824 297.18 180.081 297.197 180.321 297.252V298.505C180.041 298.43 179.734 298.41 179.399 298.445C179.064 298.48 178.754 298.602 178.469 298.812C178.209 298.997 178.006 299.222 177.861 299.487C177.721 299.752 177.624 300.04 177.569 300.35C177.514 300.655 177.486 300.967 177.486 301.287V305.352H176.144ZM185.043 305.577C184.238 305.577 183.543 305.395 182.958 305.03C182.378 304.665 181.93 304.16 181.615 303.515C181.3 302.87 181.143 302.13 181.143 301.295C181.143 300.445 181.303 299.7 181.623 299.06C181.943 298.42 182.395 297.922 182.98 297.567C183.565 297.207 184.253 297.027 185.043 297.027C185.853 297.027 186.55 297.21 187.135 297.575C187.72 297.935 188.168 298.437 188.478 299.082C188.793 299.722 188.95 300.46 188.95 301.295C188.95 302.14 188.793 302.885 188.478 303.53C188.163 304.17 187.713 304.672 187.128 305.037C186.543 305.397 185.848 305.577 185.043 305.577ZM185.043 304.31C185.883 304.31 186.508 304.03 186.918 303.47C187.328 302.91 187.533 302.185 187.533 301.295C187.533 300.38 187.325 299.652 186.91 299.112C186.495 298.567 185.873 298.295 185.043 298.295C184.478 298.295 184.013 298.422 183.648 298.677C183.283 298.932 183.01 299.285 182.83 299.735C182.65 300.185 182.56 300.705 182.56 301.295C182.56 302.205 182.77 302.935 183.19 303.485C183.61 304.035 184.228 304.31 185.043 304.31ZM193.605 305.352V294.552H194.82L198.9 303.155L202.957 294.552H204.187V305.345H202.92V297.485L199.252 305.352H198.54L194.872 297.485V305.352H193.605ZM208.593 305.577C207.988 305.577 207.48 305.467 207.07 305.247C206.665 305.022 206.358 304.727 206.148 304.362C205.943 303.997 205.84 303.597 205.84 303.162C205.84 302.737 205.92 302.37 206.08 302.06C206.245 301.745 206.475 301.485 206.77 301.28C207.065 301.07 207.418 300.905 207.828 300.785C208.213 300.68 208.643 300.59 209.118 300.515C209.598 300.435 210.083 300.362 210.573 300.297C211.063 300.232 211.52 300.17 211.945 300.11L211.465 300.387C211.48 299.667 211.335 299.135 211.03 298.79C210.73 298.445 210.21 298.272 209.47 298.272C208.98 298.272 208.55 298.385 208.18 298.61C207.815 298.83 207.558 299.19 207.408 299.69L206.14 299.307C206.335 298.597 206.713 298.04 207.273 297.635C207.833 297.23 208.57 297.027 209.485 297.027C210.22 297.027 210.85 297.16 211.375 297.425C211.905 297.685 212.285 298.08 212.515 298.61C212.63 298.86 212.703 299.132 212.733 299.427C212.763 299.717 212.778 300.022 212.778 300.342V305.352H211.593V303.41L211.87 303.59C211.565 304.245 211.138 304.74 210.588 305.075C210.043 305.41 209.378 305.577 208.593 305.577ZM208.795 304.46C209.275 304.46 209.69 304.375 210.04 304.205C210.395 304.03 210.68 303.802 210.895 303.522C211.11 303.237 211.25 302.927 211.315 302.592C211.39 302.342 211.43 302.065 211.435 301.76C211.445 301.45 211.45 301.212 211.45 301.047L211.915 301.25C211.48 301.31 211.053 301.367 210.633 301.422C210.213 301.477 209.815 301.537 209.44 301.602C209.065 301.662 208.728 301.735 208.428 301.82C208.208 301.89 208 301.98 207.805 302.09C207.615 302.2 207.46 302.342 207.34 302.517C207.225 302.687 207.168 302.9 207.168 303.155C207.168 303.375 207.223 303.585 207.333 303.785C207.448 303.985 207.623 304.147 207.858 304.272C208.098 304.397 208.41 304.46 208.795 304.46ZM213.828 305.352L216.925 301.257L213.895 297.252H215.485L217.705 300.222L219.903 297.252H221.493L218.463 301.257L221.568 305.352H219.97L217.705 302.292L215.425 305.352H213.828Z" fill="#1B1F3B" fill-opacity="0.9"/>
<path d="M260.482 305.352V294.552H261.832L267.465 302.99V294.552H268.815V305.352H267.465L261.832 296.907V305.352H260.482ZM272.707 299.727C272.212 299.727 271.76 299.607 271.35 299.367C270.94 299.122 270.612 298.797 270.367 298.392C270.127 297.982 270.007 297.527 270.007 297.027C270.007 296.537 270.132 296.087 270.382 295.677C270.632 295.267 270.962 294.94 271.372 294.695C271.782 294.45 272.227 294.327 272.707 294.327C273.202 294.327 273.652 294.45 274.057 294.695C274.467 294.935 274.795 295.26 275.04 295.67C275.285 296.075 275.407 296.527 275.407 297.027C275.407 297.527 275.285 297.982 275.04 298.392C274.795 298.797 274.467 299.122 274.057 299.367C273.652 299.607 273.202 299.727 272.707 299.727ZM272.707 298.55C272.982 298.55 273.235 298.48 273.465 298.34C273.7 298.2 273.885 298.015 274.02 297.785C274.16 297.555 274.23 297.302 274.23 297.027C274.23 296.752 274.16 296.5 274.02 296.27C273.885 296.035 273.7 295.85 273.465 295.715C273.235 295.575 272.982 295.505 272.707 295.505C272.432 295.505 272.18 295.575 271.95 295.715C271.72 295.85 271.535 296.035 271.395 296.27C271.255 296.5 271.185 296.752 271.185 297.027C271.185 297.302 271.255 297.555 271.395 297.785C271.535 298.015 271.72 298.2 271.95 298.34C272.18 298.48 272.432 298.55 272.707 298.55ZM270.457 301.46V300.357H274.957V301.46H270.457ZM283.176 305.562C282.641 305.562 282.144 305.465 281.684 305.27C281.224 305.07 280.826 304.79 280.491 304.43C280.161 304.065 279.919 303.632 279.764 303.132L281.046 302.765C281.211 303.265 281.486 303.645 281.871 303.905C282.256 304.165 282.689 304.292 283.169 304.287C283.609 304.277 283.989 304.177 284.309 303.987C284.634 303.792 284.884 303.527 285.059 303.192C285.239 302.857 285.329 302.47 285.329 302.03C285.329 301.36 285.129 300.817 284.729 300.402C284.329 299.982 283.804 299.772 283.154 299.772C282.974 299.772 282.784 299.797 282.584 299.847C282.389 299.897 282.206 299.967 282.036 300.057L281.391 299L285.396 295.377L285.569 295.827H280.191V294.552H286.559V295.835L283.146 299.105L283.131 298.632C283.846 298.582 284.471 298.7 285.006 298.985C285.541 299.27 285.956 299.677 286.251 300.207C286.551 300.737 286.701 301.345 286.701 302.03C286.701 302.72 286.546 303.33 286.236 303.86C285.926 304.39 285.506 304.807 284.976 305.112C284.446 305.412 283.846 305.562 283.176 305.562ZM291.366 303.365V300.5H288.501V299.397H291.366V296.54H292.469V299.397H295.326V300.5H292.469V303.365H291.366Z" fill="#DD4C1E" fill-opacity="0.75"/>
<g filter="url(#filter0_dd_751_44492)">
<path d="M277 238C277 229.163 284.163 222 293 222H325C333.837 222 341 229.163 341 238V270C341 278.837 333.837 286 325 286H293C284.163 286 277 278.837 277 270V238Z" fill="white" shape-rendering="crispEdges"/>
<path d="M311.793 247.333H306.207C303.78 247.333 302.333 248.78 302.333 251.207V256.787C302.333 259.22 303.78 260.667 306.207 260.667H311.787C314.213 260.667 315.66 259.22 315.66 256.793V251.207C315.667 248.78 314.22 247.333 311.793 247.333ZM306.087 258.1C306.087 258.373 305.86 258.6 305.587 258.6C305.313 258.6 305.087 258.373 305.087 258.1V256.72C305.087 256.447 305.313 256.22 305.587 256.22C305.86 256.22 306.087 256.447 306.087 256.72V258.1ZM309.5 258.1C309.5 258.373 309.273 258.6 309 258.6C308.727 258.6 308.5 258.373 308.5 258.1V255.333C308.5 255.06 308.727 254.833 309 254.833C309.273 254.833 309.5 255.06 309.5 255.333V258.1ZM312.913 258.1C312.913 258.373 312.687 258.6 312.413 258.6C312.14 258.6 311.913 258.373 311.913 258.1V253.953C311.913 253.68 312.14 253.453 312.413 253.453C312.687 253.453 312.913 253.68 312.913 253.953V258.1ZM312.913 251.847C312.913 252.12 312.687 252.347 312.413 252.347C312.14 252.347 311.913 252.12 311.913 251.847V251.2C310.213 252.947 308.087 254.18 305.707 254.773C305.667 254.787 305.627 254.787 305.587 254.787C305.36 254.787 305.16 254.633 305.1 254.407C305.033 254.14 305.193 253.867 305.467 253.8C307.713 253.24 309.713 252.06 311.3 250.393H310.467C310.193 250.393 309.967 250.167 309.967 249.893C309.967 249.62 310.193 249.393 310.467 249.393H312.42C312.447 249.393 312.467 249.407 312.493 249.407C312.527 249.413 312.56 249.413 312.593 249.427C312.627 249.44 312.653 249.46 312.687 249.48C312.707 249.493 312.727 249.5 312.747 249.513C312.753 249.52 312.753 249.527 312.76 249.527C312.787 249.553 312.807 249.58 312.827 249.607C312.847 249.633 312.867 249.653 312.873 249.68C312.887 249.707 312.887 249.733 312.893 249.767C312.9 249.8 312.913 249.833 312.913 249.873C312.913 249.88 312.92 249.887 312.92 249.893V251.847H312.913Z" fill="#1B1F3B" fill-opacity="0.9"/>
</g>
<defs>
<filter id="filter0_dd_751_44492" x="262" y="222" width="94" height="104" filterUnits="userSpaceOnUse" color-interpolation-filters="sRGB">
<feFlood flood-opacity="0" result="BackgroundImageFix"/>
<feColorMatrix in="SourceAlpha" type="matrix" values="0 0 0 0 0 0 0 0 0 0 0 0 0 0 0 0 0 0 127 0" result="hardAlpha"/>
<feOffset dy="11"/>
<feGaussianBlur stdDeviation="5.5"/>
<feComposite in2="hardAlpha" operator="out"/>
<feColorMatrix type="matrix" values="0 0 0 0 0 0 0 0 0 0 0 0 0 0 0 0 0 0 0.04 0"/>
<feBlend mode="normal" in2="BackgroundImageFix" result="effect1_dropShadow_751_44492"/>
<feColorMatrix in="SourceAlpha" type="matrix" values="0 0 0 0 0 0 0 0 0 0 0 0 0 0 0 0 0 0 127 0" result="hardAlpha"/>
<feOffset dy="25"/>
<feGaussianBlur stdDeviation="7.5"/>
<feComposite in2="hardAlpha" operator="out"/>
<feColorMatrix type="matrix" values="0 0 0 0 0 0 0 0 0 0 0 0 0 0 0 0 0 0 0.03 0"/>
<feBlend mode="normal" in2="effect1_dropShadow_751_44492" result="effect2_dropShadow_751_44492"/>
<feBlend mode="normal" in="SourceGraphic" in2="effect2_dropShadow_751_44492" result="shape"/>
</filter>
<clipPath id="clip0_751_44492">
<rect x="60" y="93.304" width="26.304" height="26.304" rx="8.768" fill="white"/>
</clipPath>
<clipPath id="clip1_751_44492">
<rect x="60" y="141.528" width="26.304" height="26.304" rx="8.768" fill="white"/>
</clipPath>
</defs>
</svg>
