<svg width="32" height="32" viewBox="0 0 32 32" fill="none" xmlns="http://www.w3.org/2000/svg">
<path d="M5.33333 5.33325C3.5787 5.33325 2.13333 6.77862 2.13333 8.53325V22.3999C2.13333 23.2197 2.45773 23.9643 2.97292 24.5333H0C0 26.3007 1.43253 27.7332 3.2 27.7332H28.8C30.5675 27.7332 32 26.3007 32 24.5333H29.0271C29.5423 23.9643 29.8667 23.2197 29.8667 22.3999V8.53325C29.8667 6.77862 28.4213 5.33325 26.6667 5.33325H5.33333ZM5.33333 7.46659H26.6667C27.2694 7.46659 27.7333 7.93055 27.7333 8.53325V22.3999C27.7333 23.0026 27.2694 23.4666 26.6667 23.4666H5.33333C4.73063 23.4666 4.26667 23.0026 4.26667 22.3999V8.53325C4.26667 7.93055 4.73063 7.46659 5.33333 7.46659Z" fill="black"/>
</svg>
