<svg width="32" height="32" viewBox="0 0 32 32" fill="none" xmlns="http://www.w3.org/2000/svg">
<path d="M13.0521 4.2666C12.2435 4.2666 11.5053 4.72257 11.1437 5.44577L10.7229 6.28744C10.3613 7.00957 9.62202 7.4666 8.81455 7.4666H4.26663C3.08797 7.4666 2.1333 8.42127 2.1333 9.59994V23.4666C2.1333 24.6453 3.08797 25.5999 4.26663 25.5999H27.7333C28.912 25.5999 29.8666 24.6453 29.8666 23.4666V9.59994C29.8666 8.42127 28.912 7.4666 27.7333 7.4666H23.1854C22.3769 7.4666 21.6387 7.01063 21.2771 6.28744L20.8562 5.44577C20.4946 4.72363 19.7554 4.2666 18.9479 4.2666H13.0521ZM6.39997 5.33327C5.81117 5.33327 5.3333 5.81113 5.3333 6.39994H8.5333C8.5333 5.81113 8.05543 5.33327 7.46663 5.33327H6.39997ZM16 8.53327C20.1173 8.53327 23.4666 11.8826 23.4666 15.9999C23.4666 20.1173 20.1173 23.4666 16 23.4666C11.8826 23.4666 8.5333 20.1173 8.5333 15.9999C8.5333 11.8826 11.8826 8.53327 16 8.53327ZM25.6 9.59994C26.1888 9.59994 26.6666 10.0778 26.6666 10.6666C26.6666 11.2554 26.1888 11.7333 25.6 11.7333C25.0112 11.7333 24.5333 11.2554 24.5333 10.6666C24.5333 10.0778 25.0112 9.59994 25.6 9.59994ZM16 10.6666C14.5855 10.6666 13.2289 11.2285 12.2287 12.2287C11.2285 13.2289 10.6666 14.5854 10.6666 15.9999C10.6666 17.4144 11.2285 18.771 12.2287 19.7712C13.2289 20.7714 14.5855 21.3333 16 21.3333C17.4145 21.3333 18.771 20.7714 19.7712 19.7712C20.7714 18.771 21.3333 17.4144 21.3333 15.9999C21.3333 14.5854 20.7714 13.2289 19.7712 12.2287C18.771 11.2285 17.4145 10.6666 16 10.6666Z" fill="black"/>
</svg>
