<svg width="400" height="382" viewBox="0 0 400 382" fill="none" xmlns="http://www.w3.org/2000/svg">
<g clip-path="url(#clip0_751_44548)">
<path d="M0 16C0 7.16345 7.16344 0 16 0H384C392.837 0 400 7.16344 400 16V366C400 374.837 392.837 382 384 382H16C7.16345 382 0 374.837 0 366V16Z" fill="white"/>
<mask id="mask0_751_44548" style="mask-type:alpha" maskUnits="userSpaceOnUse" x="-56" y="16" width="505" height="350">
<rect x="-56" y="16.8933" width="504.088" height="348.213" fill="#F8F9FB"/>
</mask>
<g mask="url(#mask0_751_44548)">
<path opacity="0.35" d="M576.162 460.819C576.162 664.956 407.822 830.454 200.147 830.454C-7.52803 830.454 -175.868 664.956 -175.868 460.819C-175.868 256.683 -7.52803 91.185 200.147 91.185C407.822 91.185 576.162 256.683 576.162 460.819Z" fill="white" stroke="url(#paint0_linear_751_44548)" stroke-width="0.911552"/>
<path opacity="0.35" d="M478.626 461.275C478.626 612.298 353.954 734.741 200.146 734.741C46.3388 734.741 -78.3328 612.298 -78.3328 461.275C-78.3328 310.252 46.3388 187.81 200.146 187.81C353.954 187.81 478.626 310.252 478.626 461.275Z" fill="white" stroke="url(#paint1_linear_751_44548)" stroke-width="0.911552"/>
<path opacity="0.35" d="M384.736 461.275C384.736 560.946 302.102 641.763 200.147 641.763C98.1911 641.763 15.5573 560.946 15.5573 461.275C15.5573 361.604 98.1911 280.788 200.147 280.788C302.102 280.788 384.736 361.604 384.736 461.275Z" fill="white" stroke="url(#paint2_linear_751_44548)" stroke-width="0.911552"/>
</g>
<g filter="url(#filter0_d_751_44548)">
<rect x="80.4087" y="176.166" width="62.6481" height="61.9856" rx="10.9386" fill="white"/>
<g clip-path="url(#clip1_751_44548)">
<path d="M122.968 195.45C120.176 192.667 116.161 192.356 111.255 192.356C106.343 192.356 102.323 192.671 99.532 195.461C96.7415 198.249 96.4585 202.265 96.4585 207.173C96.4585 212.082 96.7415 216.098 99.5331 218.888C102.324 221.678 106.344 221.96 111.255 221.96C116.167 221.96 120.186 221.678 122.977 218.888C125.768 216.098 126.052 212.082 126.052 207.173C126.052 202.258 125.765 198.239 122.968 195.45Z" fill="#FF6900"/>
<path d="M119.841 201.527C119.943 201.527 120.028 201.609 120.028 201.71V212.66C120.028 212.759 119.943 212.841 119.841 212.841H117.443C117.34 212.841 117.256 212.759 117.256 212.66V201.71C117.256 201.609 117.34 201.527 117.443 201.527H119.841ZM109.433 201.527C111.242 201.527 113.134 201.61 114.067 202.544C114.984 203.463 115.084 205.293 115.088 207.07V212.66C115.088 212.759 115.004 212.841 114.902 212.841H112.503C112.401 212.841 112.317 212.759 112.317 212.66V206.974C112.314 205.982 112.257 204.961 111.746 204.448C111.305 204.006 110.483 203.905 109.629 203.884H105.281C105.179 203.884 105.096 203.966 105.096 204.065V212.66C105.096 212.759 105.011 212.841 104.909 212.841H102.509C102.407 212.841 102.324 212.759 102.324 212.66V201.71C102.324 201.609 102.407 201.527 102.509 201.527H109.433ZM109.97 205.888C110.072 205.888 110.155 205.97 110.155 206.07V212.66C110.155 212.759 110.072 212.841 109.97 212.841H107.451C107.347 212.841 107.264 212.759 107.264 212.66V206.07C107.264 205.97 107.347 205.888 107.451 205.888H109.97Z" fill="white"/>
</g>
</g>
<g filter="url(#filter1_d_751_44548)">
<rect x="258.829" y="176.415" width="62.6481" height="61.9856" rx="10.9386" fill="white"/>
<path d="M286.427 214.575V212.086H288.916V204.618H286.427V202.082H291.404V212.039H293.939V214.528H286.427V214.575ZM302.625 220.775V204.572H300.137V218.285H280.23V198.372H293.939V195.883H277.742V220.775H302.625ZM302.625 202.082V198.325H306.381V195.883H302.625V192.126H300.137V195.883H296.381V198.372H300.137V202.129H302.625V202.082Z" fill="#EB0028"/>
</g>
<g filter="url(#filter2_d_751_44548)">
<rect x="169.695" y="59.7366" width="64.4907" height="63.8087" rx="10.9386" fill="white"/>
<path d="M226.989 86.8606C227.669 90.8554 217.053 96.0869 203.273 98.5453C189.496 101.004 177.775 99.7562 177.096 95.7597C176.417 91.7644 187.036 86.5346 200.814 84.0768C214.592 81.6173 226.31 82.8647 226.989 86.8606Z" fill="#034EA2"/>
<path d="M214.168 92.9291L214.097 88.8567H215.381V93.9895H213.535L212.254 89.7771H212.227L212.298 93.9895H211.022V88.8567H212.948L214.14 92.9291H214.168Z" fill="white"/>
<path d="M190.832 89.3373L190.122 94.0435H188.722L189.684 88.8567H191.99L192.947 94.0435H191.552L190.862 89.3373H190.832Z" fill="white"/>
<path d="M196.209 94.0435L195.342 89.3803H195.314L195.282 94.0435H193.983L194.098 88.8567H196.213L196.853 92.8216H196.881L197.522 88.8567H199.636L199.749 94.0435H198.453L198.419 89.3803H198.392L197.525 94.0435H196.209Z" fill="white"/>
<path d="M186.541 92.58C186.591 92.7056 186.576 92.8671 186.552 92.9647C186.509 93.1372 186.392 93.313 186.047 93.313C185.722 93.313 185.525 93.1267 185.525 92.8418V92.3397H184.134L184.133 92.7415C184.133 93.8978 185.043 94.2466 186.018 94.2466C186.956 94.2466 187.728 93.9259 187.851 93.0617C187.914 92.6136 187.867 92.3204 187.846 92.2096C187.627 91.1239 185.659 90.7998 185.512 90.1924C185.488 90.0883 185.495 89.978 185.507 89.919C185.543 89.7537 185.656 89.5713 185.981 89.5713C186.284 89.5713 186.463 89.7587 186.463 90.042C186.463 90.1373 186.463 90.3622 186.463 90.3622H187.756V89.9979C187.756 88.868 186.742 88.6917 186.008 88.6917C185.085 88.6917 184.332 88.9964 184.194 89.8408C184.157 90.0739 184.151 90.2817 184.206 90.5418C184.432 91.6017 186.274 91.9087 186.541 92.58H186.541Z" fill="white"/>
<path d="M203.401 92.5708C203.452 92.6953 203.435 92.8524 203.412 92.9499C203.37 93.1219 203.254 93.295 202.911 93.295C202.591 93.295 202.395 93.1087 202.395 92.8303L202.394 92.3327H201.018L201.016 92.7289C201.016 93.8737 201.918 94.2192 202.883 94.2192C203.811 94.2192 204.576 93.9029 204.697 93.0464C204.76 92.6016 204.715 92.3123 204.693 92.2037C204.475 91.1279 202.527 90.8071 202.382 90.2058C202.357 90.1022 202.364 89.9931 202.377 89.9374C202.414 89.7709 202.525 89.5929 202.846 89.5929C203.147 89.5929 203.322 89.7759 203.322 90.057C203.322 90.1512 203.322 90.3739 203.322 90.3739H204.605V90.0134C204.605 88.8957 203.6 88.7205 202.872 88.7205C201.96 88.7205 201.213 89.0214 201.078 89.8597C201.04 90.0895 201.036 90.2934 201.09 90.5525C201.313 91.6013 203.137 91.9061 203.401 92.5708H203.401Z" fill="white"/>
<path d="M207.76 93.2673C208.119 93.2673 208.232 93.0181 208.256 92.8908C208.267 92.8346 208.27 92.7597 208.269 92.6924V88.8542H209.58V92.575C209.583 92.6704 209.573 92.8666 209.569 92.9156C209.477 93.884 208.712 94.1981 207.759 94.1981C206.805 94.1981 206.039 93.884 205.949 92.9156C205.944 92.8666 205.935 92.6704 205.938 92.575V88.8542H207.248V92.6924C207.248 92.7597 207.25 92.8352 207.26 92.8908C207.288 93.0181 207.397 93.2673 207.76 93.2673Z" fill="white"/>
<path d="M218.573 93.2126C218.949 93.2126 219.08 92.975 219.104 92.8367C219.114 92.7771 219.117 92.7049 219.116 92.6394V91.8865H218.584V91.1292H220.422V92.5214C220.421 92.6184 220.419 92.6901 220.404 92.8631C220.317 93.8067 219.499 94.1434 218.58 94.1434C217.659 94.1434 216.842 93.8067 216.755 92.8631C216.74 92.6901 216.737 92.6184 216.736 92.5214L216.737 90.3372C216.737 90.2452 216.749 90.0821 216.758 89.9955C216.874 89.0261 217.659 88.7141 218.58 88.7141C219.499 88.7141 220.304 89.0244 220.4 89.9955C220.417 90.1609 220.411 90.3372 220.411 90.3372V90.5103H219.104V90.2198C219.105 90.2204 219.102 90.0964 219.087 90.0225C219.065 89.9079 218.965 89.6444 218.57 89.6444C218.192 89.6444 218.081 89.8936 218.054 90.0225C218.038 90.0909 218.032 90.1835 218.032 90.2672V92.6394C218.031 92.7049 218.034 92.7771 218.045 92.8367C218.068 92.9756 218.198 93.2126 218.573 93.2126Z" fill="white"/>
</g>
<g filter="url(#filter3_d_751_44548)">
<rect x="44.0889" y="101" width="51.5926" height="51.0469" rx="10.9386" fill="white"/>
<path d="M79.1978 123.563V124.281H79.8981C80.204 124.281 80.405 124.474 80.5194 124.598C80.6111 124.701 82.6281 126.989 82.6765 127.049C82.7249 127.109 82.7249 127.11 82.7249 127.148V128.282C82.7248 128.334 82.7196 128.385 82.7095 128.436C82.6951 128.469 82.6738 128.499 82.647 128.523C82.6201 128.546 82.5884 128.564 82.554 128.574C82.4878 128.583 82.4212 128.587 82.3545 128.587L81.6534 128.586V129.304H85.5861V128.586H84.8461C84.7798 128.586 84.7136 128.582 84.648 128.573C84.6137 128.563 84.582 128.546 84.5553 128.522C84.5285 128.498 84.5074 128.468 84.4933 128.436C84.4829 128.385 84.4776 128.333 84.4772 128.281V127.148C84.4729 127.111 84.4822 127.073 84.5036 127.042L86.6856 124.552C86.8858 124.329 86.99 124.28 87.2526 124.28H87.9765V123.563H84.7354V124.279H85.2246C85.2508 124.277 85.2769 124.283 85.2998 124.296C85.3227 124.309 85.3415 124.328 85.3538 124.351C85.3662 124.375 85.3716 124.401 85.3695 124.427C85.3674 124.453 85.3578 124.478 85.3419 124.499C85.3316 124.514 83.9849 126.098 83.9681 126.113C83.9512 126.129 83.9403 126.125 83.9278 126.108C83.9154 126.091 82.5848 124.499 82.5848 124.499C82.491 124.384 82.5644 124.279 82.6744 124.279H83.1511V123.563L79.1978 123.563Z" fill="#113360"/>
<path d="M69.5522 123.563V124.28H70.18C70.6333 124.28 70.6642 124.533 70.6642 124.753V128.111C70.6642 128.312 70.6758 128.588 70.3868 128.588H69.6123V129.305H72.9196V128.588H72.1128C71.7908 128.588 71.776 128.441 71.7724 128.127V125.251L76.3147 129.305H77.4699L77.409 124.726C77.4149 124.391 77.4354 124.28 77.7816 124.28H78.5054V123.563H75.1315V124.28H75.8724C76.2128 124.28 76.2699 124.411 76.2743 124.726L76.3147 127.122L72.3716 123.563H69.5522Z" fill="#113360"/>
<path d="M54.6578 123.202C53.9471 123.202 53.1396 123.335 52.4574 123.642C51.8208 123.927 51.3023 124.384 51.3023 125.142C51.3013 125.538 51.4522 125.921 51.724 126.21C51.9081 126.38 52.2052 126.669 52.9812 126.839C53.3281 126.913 54.0696 127.031 54.8082 127.109C55.5468 127.186 56.2627 127.255 56.5561 127.334C56.7893 127.393 57.1817 127.474 57.1817 127.914C57.1817 128.354 56.7688 128.487 56.6969 128.515C56.625 128.544 56.1291 128.771 55.2387 128.771C54.6488 128.755 54.0642 128.654 53.5026 128.473C53.1704 128.354 52.822 128.197 52.4971 127.8C52.366 127.614 52.2932 127.392 52.288 127.164H51.4812V129.424H52.3775V129.118C52.3774 129.095 52.3833 129.073 52.3946 129.053C52.406 129.033 52.4224 129.017 52.4421 129.006C52.4618 128.995 52.4842 128.989 52.5069 128.989C52.5296 128.989 52.5518 128.996 52.5712 129.008C52.9934 129.191 53.4326 129.333 53.8825 129.432C54.3534 129.53 54.6579 129.601 55.2431 129.601C55.8608 129.613 56.4763 129.526 57.0665 129.344C57.4584 129.236 57.8261 129.054 58.1498 128.809C58.3318 128.669 58.4789 128.489 58.5796 128.282C58.6803 128.076 58.7317 127.849 58.7299 127.619C58.733 127.183 58.5648 126.763 58.2614 126.45C58.0926 126.286 57.8971 126.152 57.6833 126.054C57.4535 125.95 57.2149 125.867 56.9704 125.806C56.5053 125.692 55.461 125.55 54.9615 125.5C54.4378 125.445 53.529 125.37 53.166 125.257C53.056 125.223 52.8315 125.117 52.8315 124.856C52.8315 124.671 52.9342 124.514 53.1366 124.387C53.4586 124.185 54.1085 124.059 54.7862 124.059C55.4422 124.051 56.0928 124.179 56.6976 124.433C56.8601 124.504 57.0129 124.595 57.1523 124.704C57.3796 124.899 57.537 125.162 57.6004 125.454H58.3244V123.487H57.5176V123.715C57.5176 123.789 57.4442 123.886 57.2975 123.806C56.9338 123.616 55.9113 123.207 54.6578 123.202Z" fill="#113360"/>
<path d="M64.3687 123.202C63.0976 123.202 61.748 123.642 60.9852 124.335C60.6944 124.6 60.4623 124.923 60.3037 125.283C60.1452 125.643 60.0637 126.032 60.0646 126.426C60.0601 126.821 60.1399 127.212 60.2986 127.574C60.4574 127.935 60.6914 128.259 60.9852 128.523C61.8067 129.262 63.0389 129.658 64.3687 129.658C65.7006 129.658 66.9593 129.266 67.7609 128.523C68.046 128.253 68.2734 127.928 68.4294 127.567C68.5855 127.207 68.6669 126.818 68.6689 126.426C68.6728 126.033 68.594 125.644 68.4375 125.284C68.2811 124.924 68.0505 124.602 67.7609 124.337C66.9006 123.556 65.7747 123.202 64.3687 123.202ZM64.3687 124.041C65.064 124.041 65.7336 124.291 66.1847 124.735C66.6211 125.165 66.8491 125.773 66.8491 126.423C66.8491 127.104 66.6417 127.655 66.1847 128.11C65.7278 128.565 65.0735 128.809 64.3687 128.809C63.669 128.809 63.0007 128.56 62.5497 128.11C62.3339 127.886 62.1645 127.622 62.0513 127.332C61.938 127.043 61.883 126.734 61.8895 126.423C61.8895 125.776 62.1147 125.166 62.5497 124.735C63.0007 124.289 63.6734 124.041 64.3687 124.041Z" fill="#113360"/>
</g>
<g filter="url(#filter4_d_751_44548)">
<rect x="169.695" y="256.632" width="64.4907" height="63.8087" rx="10.9386" fill="white"/>
<path d="M207.353 272.552C205.984 272.71 204.047 273.918 203.085 275.21C202.531 275.95 202.204 276.656 201.922 277.719L201.781 278.25L201.787 278.816C201.794 279.125 201.811 279.414 201.828 279.461C201.872 279.572 201.956 279.589 202.547 279.593C203.038 279.596 203.069 279.593 203.489 279.468C204.612 279.142 205.436 278.651 206.021 277.954C206.162 277.783 206.374 277.554 206.485 277.44C206.855 277.076 207.329 276.269 207.591 275.57C207.854 274.867 207.971 274.214 208.005 273.286L208.025 272.69L207.938 272.603C207.84 272.505 207.786 272.502 207.353 272.552Z" fill="#656A76"/>
<path d="M207.039 279.505C206.373 279.539 204.581 280.036 203.293 280.541C202.513 280.847 202.513 280.847 202.358 280.874C202.089 280.918 201.43 280.726 200.297 280.268C199.695 280.03 199.076 279.848 198.162 279.639C197.778 279.555 197.143 279.545 196.867 279.623C196.756 279.653 196.406 279.724 196.09 279.777C195.411 279.898 195.028 280.016 194.517 280.268C192.973 281.022 191.921 282.105 191.087 283.8C190.717 284.547 190.445 285.277 190.243 286.054C189.944 287.208 189.937 289.421 190.229 290.763C190.263 290.928 190.293 291.123 190.293 291.2C190.293 291.362 190.324 291.483 190.606 292.596C190.868 293.626 190.841 293.542 191.342 294.8C192.045 296.566 192.267 296.956 193.703 298.937C194.291 299.748 194.591 300.118 195.024 300.558C195.478 301.022 195.845 301.292 196.363 301.547C196.948 301.833 197.203 301.897 197.741 301.894C198.431 301.894 198.986 301.752 200.041 301.308C200.707 301.029 200.751 301.016 201.961 300.767C202.325 300.689 202.661 300.696 203.172 300.78C203.347 300.807 203.609 300.848 203.75 300.868C204.036 300.908 204.325 301.002 205.072 301.302C205.973 301.665 206.609 301.826 207.274 301.867C208.243 301.927 209.178 301.497 210.176 300.538C211.195 299.553 212.147 298.204 213.108 296.384C213.367 295.893 213.781 294.887 213.851 294.584C213.882 294.463 213.932 294.312 213.969 294.251C214.003 294.191 214.033 294.107 214.033 294.07C214.033 293.949 213.788 293.757 213.354 293.538C212.537 293.118 211.733 292.398 211.192 291.587C210.805 291.005 210.415 290.134 210.317 289.62C210.153 288.772 210.106 287.843 210.2 287.198C210.223 287.029 210.307 286.676 210.388 286.407C210.734 285.24 210.973 284.772 211.514 284.194C211.679 284.022 211.814 283.864 211.814 283.851C211.814 283.794 212.638 283.104 212.839 282.993C212.95 282.929 213.092 282.832 213.152 282.771C213.337 282.589 213.31 282.519 212.846 281.974C212.224 281.244 211.441 280.645 210.519 280.198C209.944 279.919 209.547 279.781 208.993 279.666C208.424 279.545 207.577 279.475 207.039 279.505Z" fill="#656A76"/>
</g>
<g filter="url(#filter5_d_751_44548)">
<rect x="306.089" y="98" width="51.5926" height="51.0469" rx="10.9386" fill="white"/>
<g clip-path="url(#clip2_751_44548)">
<path d="M315.427 122.048H315.046C314.559 122.048 314.159 121.897 313.847 121.599C313.52 121.258 313.354 120.838 313.354 120.35V118.272C313.354 118.121 313.408 117.989 313.52 117.881C313.632 117.769 313.759 117.716 313.91 117.716C314.071 117.716 314.203 117.769 314.31 117.881C314.422 117.989 314.481 118.121 314.481 118.272V120.35C314.481 120.457 314.5 120.575 314.544 120.696C314.637 120.843 314.788 120.921 315.012 120.921H315.193H318.787C319.28 120.921 319.68 121.072 319.987 121.37C320.314 121.711 320.479 122.131 320.479 122.619V126.595C320.479 126.746 320.426 126.873 320.314 126.985C320.206 127.093 320.075 127.151 319.928 127.151C319.767 127.151 319.631 127.093 319.524 126.985C319.411 126.873 319.358 126.746 319.358 126.595V122.619C319.358 122.511 319.333 122.394 319.294 122.277C319.202 122.126 319.046 122.048 318.826 122.048H315.427Z" fill="#1F1B20"/>
<path d="M314.481 124.892V126.595C314.481 126.746 314.422 126.873 314.315 126.985C314.203 127.097 314.071 127.151 313.925 127.151C313.764 127.151 313.627 127.097 313.52 126.985C313.408 126.873 313.354 126.746 313.354 126.595V124.892V123.302C313.354 123.151 313.408 123.024 313.52 122.911C313.627 122.799 313.759 122.746 313.91 122.746C314.071 122.746 314.203 122.799 314.315 122.911C314.422 123.024 314.481 123.151 314.481 123.302V124.892Z" fill="#1F1B20"/>
<path d="M350.572 122.048H351.289C351.44 122.048 351.571 121.994 351.679 121.882C351.791 121.775 351.845 121.638 351.845 121.477C351.845 121.326 351.791 121.194 351.679 121.087C351.571 120.975 351.44 120.921 351.289 120.921H350.572H347.992C347.504 120.921 347.099 121.077 346.777 121.385C346.46 121.702 346.299 122.112 346.299 122.619V126.595C346.299 126.746 346.353 126.878 346.465 126.985C346.572 127.098 346.709 127.151 346.87 127.151C347.016 127.151 347.148 127.098 347.26 126.985C347.367 126.878 347.426 126.746 347.426 126.595V122.619C347.426 122.238 347.606 122.048 347.977 122.048H350.572Z" fill="#1F1B20"/>
<path d="M331.194 125.112V126.595C331.194 126.746 331.14 126.873 331.028 126.985C330.921 127.097 330.789 127.151 330.638 127.151C330.482 127.151 330.345 127.097 330.238 126.985C330.126 126.873 330.072 126.746 330.072 126.595V125.112V123.302C330.072 123.151 330.126 123.024 330.238 122.911C330.345 122.799 330.477 122.746 330.623 122.746C330.784 122.746 330.921 122.799 331.028 122.911C331.14 123.024 331.194 123.151 331.194 123.302V125.112Z" fill="#1F1B20"/>
<path d="M331.345 122.048H330.623C330.477 122.048 330.345 121.994 330.238 121.882C330.126 121.775 330.072 121.638 330.072 121.477C330.072 121.326 330.126 121.194 330.238 121.087C330.345 120.975 330.477 120.921 330.623 120.921H331.345H335.008C335.496 120.921 335.9 121.077 336.222 121.385C336.539 121.702 336.7 122.112 336.7 122.619V126.595C336.7 126.746 336.647 126.873 336.534 126.985C336.427 127.093 336.291 127.151 336.13 127.151C335.978 127.151 335.852 127.093 335.739 126.985C335.632 126.873 335.579 126.746 335.579 126.595V122.619C335.579 122.238 335.393 122.048 335.023 122.048H331.345Z" fill="#1F1B20"/>
<path d="M323.865 127.151H323.382C322.894 127.151 322.48 126.985 322.143 126.654C321.841 126.341 321.694 125.941 321.694 125.454V122.619C321.694 122.19 321.816 121.819 322.065 121.511C322.377 121.116 322.806 120.921 323.367 120.921H326.581H327.171C327.659 120.921 328.074 121.087 328.415 121.419C328.713 121.726 328.864 122.131 328.864 122.619V123.239V125.463C328.864 125.888 328.737 126.254 328.488 126.561C328.166 126.956 327.727 127.151 327.171 127.151H323.382H323.865ZM322.816 124.829V125.488C322.816 125.707 322.889 125.863 323.04 125.956C323.162 126 323.275 126.024 323.382 126.024H323.865H327.191C327.42 126.024 327.581 125.946 327.674 125.795C327.718 125.678 327.737 125.561 327.737 125.454V123.239V122.585C327.737 122.365 327.664 122.204 327.513 122.116C327.396 122.073 327.279 122.048 327.171 122.048H326.581H323.348C323.128 122.048 322.972 122.126 322.879 122.277C322.836 122.395 322.816 122.512 322.816 122.619V125.488V124.829Z" fill="#1F1B20"/>
<path d="M340.092 127.151H339.614C339.122 127.151 338.707 126.985 338.371 126.654C338.068 126.341 337.922 125.941 337.922 125.454V122.619C337.922 122.19 338.044 121.819 338.293 121.511C338.605 121.116 339.039 120.921 339.595 120.921H342.809H343.399C343.887 120.921 344.301 121.087 344.643 121.419C344.94 121.726 345.091 122.131 345.091 122.619V123.239V125.463C345.091 125.888 344.964 126.254 344.716 126.561C344.394 126.956 343.955 127.151 343.399 127.151H339.614H340.092ZM339.044 124.829V125.488C339.044 125.707 339.117 125.863 339.268 125.956C339.39 126 339.502 126.024 339.614 126.024H340.092H343.418C343.648 126.024 343.809 125.946 343.901 125.795C343.945 125.678 343.965 125.561 343.965 125.454V123.239V122.585C343.965 122.365 343.891 122.204 343.745 122.116C343.623 122.073 343.506 122.048 343.399 122.048H342.809H339.575C339.356 122.048 339.2 122.126 339.107 122.277C339.063 122.395 339.044 122.512 339.044 122.619V125.488V124.829Z" fill="#1F1B20"/>
</g>
</g>
<rect x="-52" y="187" width="505" height="195.072" fill="url(#paint3_linear_751_44548)"/>
<rect x="358" y="382" width="382" height="42" transform="rotate(-90 358 382)" fill="url(#paint4_linear_751_44548)"/>
<rect x="43" width="382" height="43" transform="rotate(90 43 0)" fill="url(#paint5_linear_751_44548)"/>
</g>
<defs>
<filter id="filter0_d_751_44548" x="74.9394" y="173.431" width="73.5866" height="72.9242" filterUnits="userSpaceOnUse" color-interpolation-filters="sRGB">
<feFlood flood-opacity="0" result="BackgroundImageFix"/>
<feColorMatrix in="SourceAlpha" type="matrix" values="0 0 0 0 0 0 0 0 0 0 0 0 0 0 0 0 0 0 127 0" result="hardAlpha"/>
<feOffset dy="2.73466"/>
<feGaussianBlur stdDeviation="2.73466"/>
<feColorMatrix type="matrix" values="0 0 0 0 0 0 0 0 0 0 0 0 0 0 0 0 0 0 0.05 0"/>
<feBlend mode="normal" in2="BackgroundImageFix" result="effect1_dropShadow_751_44548"/>
<feBlend mode="normal" in="SourceGraphic" in2="effect1_dropShadow_751_44548" result="shape"/>
</filter>
<filter id="filter1_d_751_44548" x="253.359" y="173.68" width="73.5866" height="72.9242" filterUnits="userSpaceOnUse" color-interpolation-filters="sRGB">
<feFlood flood-opacity="0" result="BackgroundImageFix"/>
<feColorMatrix in="SourceAlpha" type="matrix" values="0 0 0 0 0 0 0 0 0 0 0 0 0 0 0 0 0 0 127 0" result="hardAlpha"/>
<feOffset dy="2.73466"/>
<feGaussianBlur stdDeviation="2.73466"/>
<feColorMatrix type="matrix" values="0 0 0 0 0 0 0 0 0 0 0 0 0 0 0 0 0 0 0.05 0"/>
<feBlend mode="normal" in2="BackgroundImageFix" result="effect1_dropShadow_751_44548"/>
<feBlend mode="normal" in="SourceGraphic" in2="effect1_dropShadow_751_44548" result="shape"/>
</filter>
<filter id="filter2_d_751_44548" x="164.226" y="57.0019" width="75.4293" height="74.7472" filterUnits="userSpaceOnUse" color-interpolation-filters="sRGB">
<feFlood flood-opacity="0" result="BackgroundImageFix"/>
<feColorMatrix in="SourceAlpha" type="matrix" values="0 0 0 0 0 0 0 0 0 0 0 0 0 0 0 0 0 0 127 0" result="hardAlpha"/>
<feOffset dy="2.73466"/>
<feGaussianBlur stdDeviation="2.73466"/>
<feColorMatrix type="matrix" values="0 0 0 0 0 0 0 0 0 0 0 0 0 0 0 0 0 0 0.05 0"/>
<feBlend mode="normal" in2="BackgroundImageFix" result="effect1_dropShadow_751_44548"/>
<feBlend mode="normal" in="SourceGraphic" in2="effect1_dropShadow_751_44548" result="shape"/>
</filter>
<filter id="filter3_d_751_44548" x="38.6196" y="98.2653" width="62.5314" height="61.9855" filterUnits="userSpaceOnUse" color-interpolation-filters="sRGB">
<feFlood flood-opacity="0" result="BackgroundImageFix"/>
<feColorMatrix in="SourceAlpha" type="matrix" values="0 0 0 0 0 0 0 0 0 0 0 0 0 0 0 0 0 0 127 0" result="hardAlpha"/>
<feOffset dy="2.73466"/>
<feGaussianBlur stdDeviation="2.73466"/>
<feColorMatrix type="matrix" values="0 0 0 0 0 0 0 0 0 0 0 0 0 0 0 0 0 0 0.05 0"/>
<feBlend mode="normal" in2="BackgroundImageFix" result="effect1_dropShadow_751_44548"/>
<feBlend mode="normal" in="SourceGraphic" in2="effect1_dropShadow_751_44548" result="shape"/>
</filter>
<filter id="filter4_d_751_44548" x="164.226" y="253.897" width="75.4293" height="74.7472" filterUnits="userSpaceOnUse" color-interpolation-filters="sRGB">
<feFlood flood-opacity="0" result="BackgroundImageFix"/>
<feColorMatrix in="SourceAlpha" type="matrix" values="0 0 0 0 0 0 0 0 0 0 0 0 0 0 0 0 0 0 127 0" result="hardAlpha"/>
<feOffset dy="2.73466"/>
<feGaussianBlur stdDeviation="2.73466"/>
<feColorMatrix type="matrix" values="0 0 0 0 0 0 0 0 0 0 0 0 0 0 0 0 0 0 0.05 0"/>
<feBlend mode="normal" in2="BackgroundImageFix" result="effect1_dropShadow_751_44548"/>
<feBlend mode="normal" in="SourceGraphic" in2="effect1_dropShadow_751_44548" result="shape"/>
</filter>
<filter id="filter5_d_751_44548" x="300.62" y="95.2653" width="62.5314" height="61.9855" filterUnits="userSpaceOnUse" color-interpolation-filters="sRGB">
<feFlood flood-opacity="0" result="BackgroundImageFix"/>
<feColorMatrix in="SourceAlpha" type="matrix" values="0 0 0 0 0 0 0 0 0 0 0 0 0 0 0 0 0 0 127 0" result="hardAlpha"/>
<feOffset dy="2.73466"/>
<feGaussianBlur stdDeviation="2.73466"/>
<feColorMatrix type="matrix" values="0 0 0 0 0 0 0 0 0 0 0 0 0 0 0 0 0 0 0.05 0"/>
<feBlend mode="normal" in2="BackgroundImageFix" result="effect1_dropShadow_751_44548"/>
<feBlend mode="normal" in="SourceGraphic" in2="effect1_dropShadow_751_44548" result="shape"/>
</filter>
<linearGradient id="paint0_linear_751_44548" x1="200.147" y1="64.8675" x2="200.147" y2="316.896" gradientUnits="userSpaceOnUse">
<stop stop-opacity="0.39"/>
<stop offset="1" stop-color="white" stop-opacity="0"/>
</linearGradient>
<linearGradient id="paint1_linear_751_44548" x1="200.146" y1="168.212" x2="200.146" y2="354.75" gradientUnits="userSpaceOnUse">
<stop stop-opacity="0.39"/>
<stop offset="1" stop-color="white" stop-opacity="0"/>
</linearGradient>
<linearGradient id="paint2_linear_751_44548" x1="200.147" y1="267.688" x2="200.147" y2="390.908" gradientUnits="userSpaceOnUse">
<stop stop-opacity="0.39"/>
<stop offset="1" stop-color="white" stop-opacity="0"/>
</linearGradient>
<linearGradient id="paint3_linear_751_44548" x1="200.5" y1="187" x2="200.5" y2="382.072" gradientUnits="userSpaceOnUse">
<stop stop-color="white" stop-opacity="0"/>
<stop offset="1" stop-color="white"/>
</linearGradient>
<linearGradient id="paint4_linear_751_44548" x1="549" y1="382" x2="549" y2="424" gradientUnits="userSpaceOnUse">
<stop stop-color="white" stop-opacity="0"/>
<stop offset="1" stop-color="white"/>
</linearGradient>
<linearGradient id="paint5_linear_751_44548" x1="234" y1="0" x2="234" y2="43" gradientUnits="userSpaceOnUse">
<stop stop-color="white" stop-opacity="0"/>
<stop offset="1" stop-color="white"/>
</linearGradient>
<clipPath id="clip0_751_44548">
<path d="M0 16C0 7.16345 7.16344 0 16 0H384C392.837 0 400 7.16344 400 16V366C400 374.837 392.837 382 384 382H16C7.16345 382 0 374.837 0 366V16Z" fill="white"/>
</clipPath>
<clipPath id="clip1_751_44548">
<rect width="29.5938" height="29.6037" fill="white" transform="translate(96.4585 192.356)"/>
</clipPath>
<clipPath id="clip2_751_44548">
<rect width="39.3086" height="26.7389" fill="white" transform="translate(312.537 109.85)"/>
</clipPath>
</defs>
</svg>
