<svg width="185" height="185" viewBox="0 0 185 185" fill="none" xmlns="http://www.w3.org/2000/svg">
<path d="M0 8C0 3.58172 3.58172 0 8 0H177C181.418 0 185 3.58172 185 8V177C185 181.418 181.418 185 177 185H8C3.58172 185 0 181.418 0 177V8Z" fill="#ECECEC"/>
<path d="M56.6712 100.524L40.8923 128.575C36.3927 136.574 42.1733 146.458 51.3512 146.458H126.888C137.329 146.458 142.789 134.046 135.733 126.349L120.239 109.447C115.623 104.411 107.739 104.239 102.908 109.07L102.112 109.867C97.0078 114.971 88.5855 114.447 84.1541 108.749L76.6023 99.0395C71.337 92.2699 60.8757 93.0489 56.6712 100.524Z" fill="#A7A7A7"/>
<circle cx="104.063" cy="57.8123" r="19.2708" fill="#A7A7A7"/>
</svg>
