<svg width="100" height="25" viewBox="0 0 100 25" fill="none" xmlns="http://www.w3.org/2000/svg">
<path d="M31.0734 16.9491L28.6723 11.5819L26.1299 16.9491H31.0734Z" fill="black"/>
<path d="M62.5706 16.9491L60.1695 11.5819L57.6271 16.9491H62.5706Z" fill="black"/>
<path d="M81.098 16.9491L78.6969 11.5819L76.1545 16.9491H81.098Z" fill="black"/>
<path d="M0 2.54236H3.10734V22.0339H0V2.54236Z" fill="black"/>
<path d="M84.1808 2.54236H87.2881V22.0339H84.1808V2.54236Z" fill="black"/>
<path d="M96.8927 2.54236H100V22.0339H96.8927V2.54236Z" fill="black"/>
<path d="M13.5593 2.54236H9.60452L3.10734 10.5932V13.1356L10.3107 22.0339H14.2655L5.9322 11.8644L13.5593 2.54236Z" fill="black"/>
<path d="M26.13 2.54237L29.2601 2.54282L20.6215 22.034L17.515 22.034L26.13 2.54237Z" fill="#2D67DA"/>
<path d="M76.1546 2.54237L79.2846 2.54282L70.6461 22.034L67.5396 22.034L76.1546 2.54237Z" fill="#2D67DA"/>
<path d="M61.8138 2.54237L58.6838 2.54282L67.3224 22.034L70.4289 22.034L61.8138 2.54237Z" fill="black"/>
<path d="M87.5933 2.54224L84.4632 2.5427L96.6108 22.0339L99.7173 22.0339L87.5933 2.54224Z" fill="black"/>
<path d="M58.358 2.54237L61.488 2.54282L52.8495 22.034L49.7429 22.034L58.358 2.54237Z" fill="#2D67DA"/>
<path fill-rule="evenodd" clip-rule="evenodd" d="M34.1808 2.54236H40.678V2.54867C43.9791 2.69635 46.6102 5.41945 46.6102 8.75705C46.6102 12.0377 44.0682 14.7246 40.8464 14.9556L46.6102 22.0339H42.6554L37.2881 15.2712V22.0339H34.1808V2.54236ZM40.678 5.36722L37.2881 5.36722V12.1469H40.678C42.5501 12.1469 44.0678 10.6292 44.0678 8.75705C44.0678 6.8849 42.5501 5.36722 40.678 5.36722Z" fill="black"/>
</svg>
