<svg width="51" height="60" viewBox="0 0 51 60" fill="none" xmlns="http://www.w3.org/2000/svg">
<path d="M25.0004 59.8498C22.5565 58.565 20.2625 57.0133 18.1605 55.223C10.4168 48.7617 5.56139 40.487 2.93465 30.8296C1.61936 25.9951 0.95595 21.0665 0.732889 16.0647C0.654049 14.2648 0.679047 12.4648 0.627127 10.6668C0.594437 9.51298 1.19055 8.60724 2.51161 8.42455C10.2034 7.3592 17.2413 4.44583 23.9716 0.690186C24.385 0.459424 24.7619 0.132511 25.2715 0.113281C25.6561 0.144049 25.6311 0.461347 25.6311 0.701724C25.6311 2.81704 25.7042 4.91313 25.5984 7.01691C25.5779 7.08587 25.543 7.14968 25.4959 7.20406C25.4488 7.25844 25.3907 7.30216 25.3253 7.33228C22.7851 8.5284 20.3622 9.96104 17.7624 11.0456C14.4405 12.4535 10.9603 13.4537 7.39779 14.0244C5.63638 14.2878 5.04989 15.0455 5.00374 16.8397C4.88304 21.2615 5.27016 25.6826 6.1575 30.0162C7.44202 36.116 9.76108 41.7639 13.5762 46.7464C16.5319 50.6161 20.2425 53.8453 24.4831 56.2384C24.7542 56.3942 25.06 56.4749 25.3253 56.6499C25.4203 56.7239 25.4966 56.8192 25.548 56.9281C25.5995 57.037 25.6246 57.1564 25.6215 57.2768C25.6465 57.973 25.6542 58.6691 25.6215 59.3633C25.608 59.7421 25.4792 60.0344 25.0004 59.8498Z" fill="#FDC440"/>
<path d="M25.7619 0.101562C26.9868 0.486166 28.031 1.22845 29.1541 1.81305C35.0135 4.87449 41.1095 7.24556 47.667 8.31091C48.0516 8.37245 48.4265 8.4186 48.8054 8.47822C49.8092 8.63398 50.3438 9.15896 50.3572 10.1416C50.5361 20.174 49.3227 29.9583 45.0766 39.1792C41.0614 47.8968 34.9154 54.6947 26.6388 59.5727C26.4286 59.7346 26.1776 59.8351 25.9138 59.8631C25.6811 59.9477 25.5292 59.8804 25.5292 59.6208C25.5292 58.6881 25.4677 57.7516 25.5677 56.8209C25.5677 56.7497 25.6484 56.7036 25.6984 56.6536C28.408 55.3075 30.7867 53.5075 33.0366 51.498C36.5481 48.3436 39.3998 44.5247 41.4268 40.2618C43.5132 35.9466 44.7786 31.3775 45.4439 26.6353C45.908 23.2588 46.1009 19.8506 46.0208 16.4433C45.9939 15.0434 45.3209 14.2319 43.9459 14.0415C39.4307 13.4127 35.1789 11.9743 31.0617 10.0262C29.3041 9.19358 27.6541 8.14938 25.8542 7.40517C25.6753 7.3321 25.5004 7.24364 25.508 7.00134C25.508 4.9091 25.508 2.81686 25.5196 0.726542C25.5292 0.516934 25.3331 0.174637 25.7619 0.101562Z" fill="#FDC440"/>
<path d="M25.8813 56.674H25.1486C23.9199 56.274 22.8911 55.5086 21.8489 54.7932C14.3802 49.678 9.59206 42.6263 6.99418 34.0247C5.86483 30.2056 5.17579 26.2699 4.94048 22.2943C4.80972 20.327 4.79433 18.3636 4.81933 16.3964C4.83664 14.9888 5.62697 14.0426 7.0384 13.8503C10.1726 13.4058 13.2443 12.5978 16.1916 11.4427C18.8707 10.3887 21.4718 9.14657 23.9756 7.72552C24.4371 7.46592 24.8871 7.18516 25.4371 7.16016L25.739 7.19092C27.0004 7.4813 28.0234 8.28127 29.1464 8.85626C33.8749 11.2716 38.7727 13.1542 44.0857 13.8503C45.3683 14.0176 46.1875 14.8791 46.2144 16.0868C46.3567 22.4597 45.7356 28.7325 43.7877 34.8362C41.8167 41.011 38.6188 46.4339 33.9384 50.9453C31.7677 53.0282 29.3544 54.8425 26.7504 56.349C26.4843 56.5121 26.1892 56.6224 25.8813 56.674Z" fill="#FEFEFE"/>
<path d="M6.72697 18.2312C6.75296 17.752 6.75296 17.2719 6.72697 16.7928C6.64813 16.087 6.95004 15.8197 7.62499 15.7274C12.4977 15.0467 17.0685 13.4198 21.4528 11.2391C22.5912 10.6622 23.7257 10.0853 24.8276 9.46029C25.0301 9.32079 25.2701 9.24609 25.516 9.24609C25.7619 9.24609 26.0019 9.32079 26.2044 9.46029C30.1772 11.6718 34.2808 13.5698 38.7035 14.7524C40.2494 15.1886 41.8253 15.51 43.4186 15.7139C44.0801 15.7909 44.3396 16.0312 44.3396 16.7562C44.3396 23.0579 43.7108 29.2558 41.6245 35.2537C38.7535 43.463 33.7116 49.8955 26.264 54.4242C25.7179 54.755 25.3333 54.7531 24.7853 54.4242C17.4608 50.0378 12.4939 43.7342 9.59408 35.7594C7.83074 30.9173 6.99234 25.8925 6.80582 20.7599C6.77697 19.9215 6.80582 19.0811 6.80582 18.2427L6.72697 18.2312Z" fill="#3B9F98"/>
<path d="M13.3435 30.3255C13.3435 29.1717 13.3762 28.0179 13.33 26.864C13.3089 26.3025 13.5031 26.1852 14.0262 26.191C16.2357 26.2179 18.4491 26.191 20.6548 26.216C21.2202 26.216 21.3952 26.0698 21.3855 25.4929C21.3529 23.2834 21.3855 21.07 21.3625 18.8624C21.3625 18.3528 21.4548 18.1509 22.0259 18.1605C24.3547 18.1932 26.6854 18.1874 29.0161 18.1605C29.5103 18.1605 29.6757 18.2855 29.6699 18.7989C29.643 21.0085 29.6853 23.2219 29.6411 25.4276C29.6276 26.0891 29.8449 26.2237 30.4583 26.2121C32.6429 26.1775 34.8293 26.2121 37.0158 26.1871C37.5562 26.1871 37.7062 26.3295 37.7004 26.8698C37.6696 29.2005 37.6696 31.5306 37.7004 33.86C37.7004 34.3792 37.5293 34.4984 37.0427 34.4946C34.8082 34.4715 32.5756 34.4946 30.341 34.4715C29.8064 34.4715 29.6411 34.6138 29.6468 35.158C29.6776 37.3676 29.6468 39.5809 29.6699 41.7886C29.6699 42.3232 29.5718 42.5385 28.9699 42.5289C26.6623 42.4905 24.3547 42.4962 22.0471 42.5289C21.5163 42.5289 21.3471 42.4039 21.3567 41.852C21.3875 39.6675 21.3394 37.481 21.3875 35.2965C21.4009 34.6042 21.1682 34.4638 20.5317 34.4734C18.3472 34.51 16.1607 34.4734 13.9762 34.4984C13.4723 34.4984 13.3147 34.358 13.33 33.8523C13.3685 32.6812 13.3435 31.5024 13.3435 30.3255Z" fill="#FEFEFE"/>
<path d="M25.7619 0.102984C25.5272 0.276055 25.5888 0.533739 25.5888 0.766424C25.5888 2.90353 25.5888 5.04065 25.5888 7.17776C25.5794 7.18939 25.5676 7.19878 25.5541 7.20523C25.5406 7.21169 25.5258 7.21503 25.5109 7.21503C25.496 7.21503 25.4812 7.21169 25.4677 7.20523C25.4543 7.19878 25.4424 7.18939 25.433 7.17776C25.433 5.04065 25.433 2.90546 25.433 0.772193C25.433 0.539508 25.4965 0.281824 25.2638 0.10683C25.296 0.0733762 25.3345 0.0466924 25.3771 0.028348C25.4197 0.0100035 25.4656 0.000368726 25.512 1.03779e-05C25.5584 -0.00034797 25.6044 0.00857734 25.6473 0.0262613C25.6902 0.0439453 25.7292 0.0700308 25.7619 0.102984Z" fill="#FDCC67"/>
<path d="M25.8812 56.696C25.7581 56.8287 25.5812 56.9114 25.585 57.1441C25.5946 57.9229 25.585 58.7017 25.585 59.4805C25.5803 59.5271 25.5849 59.5742 25.5987 59.619C25.6125 59.6637 25.6351 59.7053 25.6652 59.7412C25.6953 59.777 25.7324 59.8065 25.7741 59.8278C25.8158 59.8491 25.8614 59.8618 25.9081 59.8651C25.7727 59.9562 25.6124 60.0032 25.4493 59.9998C25.2861 59.9963 25.128 59.9426 24.9966 59.8459C25.2158 59.8305 25.437 59.8209 25.437 59.5094C25.437 58.7004 25.437 57.8902 25.437 57.0787C25.437 56.8729 25.2447 56.8229 25.1466 56.6941C25.1896 56.6373 25.2451 56.5912 25.309 56.5596C25.3728 56.5279 25.4431 56.5115 25.5144 56.5117C25.5856 56.5119 25.6558 56.5287 25.7195 56.5606C25.7831 56.5926 25.8385 56.639 25.8812 56.696Z" fill="#FDCC67"/>
</svg>
