<svg width="609" height="155" viewBox="0 0 609 155" fill="none" xmlns="http://www.w3.org/2000/svg">
<mask id="path-1-inside-1_4_33" fill="white">
<path d="M529 11H609V91H529V11Z"/>
</mask>
<path d="M529 11H609V91H529V11Z" fill="white"/>
<path d="M609 11H619V1H609V11ZM529 21H609V1H529V21ZM599 11V91H619V11H599Z" fill="#1470C6" mask="url(#path-1-inside-1_4_33)"/>
<mask id="path-3-inside-2_4_33" fill="white">
<path d="M0 64H80V144H0V64Z"/>
</mask>
<path d="M0 64H80V144H0V64Z" fill="white"/>
<path d="M0 144H-10V154H0V144ZM80 134H0V154H80V134ZM10 144V64H-10V144H10Z" fill="#1470C6" mask="url(#path-3-inside-2_4_33)"/>
<path d="M20.2727 124V30.9091H31.5455V77.0909H32.6364L74.4545 30.9091H89.1818L50.0909 72.9091L89.1818 124H75.5455L43.1818 80.7273L31.5455 93.8182V124H20.2727ZM107.591 124H95.7727L129.955 30.9091H141.591L175.773 124H163.955L136.136 45.6364H135.409L107.591 124ZM111.955 87.6364H159.591V97.6364H111.955V87.6364ZM190.273 124V30.9091H221.727C229 30.9091 234.97 32.1515 239.636 34.6364C244.303 37.0909 247.758 40.4697 250 44.7727C252.242 49.0758 253.364 53.9697 253.364 59.4545C253.364 64.9394 252.242 69.803 250 74.0455C247.758 78.2879 244.318 81.6212 239.682 84.0455C235.045 86.4394 229.121 87.6364 221.909 87.6364H196.455V77.4545H221.545C226.515 77.4545 230.515 76.7273 233.545 75.2727C236.606 73.8182 238.818 71.7576 240.182 69.0909C241.576 66.3939 242.273 63.1818 242.273 59.4545C242.273 55.7273 241.576 52.4697 240.182 49.6818C238.788 46.8939 236.561 44.7424 233.5 43.2273C230.439 41.6818 226.394 40.9091 221.364 40.9091H201.545V124H190.273ZM234.091 82.1818L257 124H243.909L221.364 82.1818H234.091ZM275.966 124H264.148L298.33 30.9091H309.966L344.148 124H332.33L304.511 45.6364H303.784L275.966 124ZM280.33 87.6364H327.966V97.6364H280.33V87.6364ZM353.716 30.9091L381.352 109.273H382.443L410.08 30.9091H421.898L387.716 124H376.08L341.898 30.9091H353.716ZM432.216 124H420.398L454.58 30.9091H466.216L500.398 124H488.58L460.761 45.6364H460.034L432.216 124ZM436.58 87.6364H484.216V97.6364H436.58V87.6364ZM588.716 30.9091V124H577.807L527.08 50.9091H526.17V124H514.898V30.9091H525.807L576.716 104.182H577.625V30.9091H588.716Z" fill="black"/>
</svg>
