<svg width="192" height="48" viewBox="0 0 192 48" fill="none" xmlns="http://www.w3.org/2000/svg">
<g clip-path="url(#clip0_804_29185)">
<path d="M119.951 40.488H48.6611C47.7734 40.488 47.8996 40.6019 47.8919 39.7542C47.8842 39.1727 47.9073 38.5912 47.8842 38.0112C47.8703 37.6804 47.9565 37.5097 48.3272 37.5635C48.4425 37.572 48.5581 37.572 48.6734 37.5635H191.194C191.995 37.5635 191.995 37.5635 191.995 38.3327C191.995 38.9142 191.982 39.4958 191.995 40.0757C192.006 40.3834 191.923 40.5373 191.582 40.4957C191.428 40.4865 191.274 40.4865 191.12 40.4957L119.951 40.488Z" fill="#FDC440"/>
<path d="M65.9953 23.4178C65.863 23.6547 65.9199 23.8685 65.9184 24.0716C65.9184 27.091 65.9184 30.1099 65.9184 33.1282C65.9184 34.0959 65.7492 34.2559 64.7692 34.2574C64.1154 34.2574 63.4616 34.2697 62.8078 34.2574C62.154 34.2451 61.9525 34.0267 61.9525 33.3698C61.9525 27.6407 61.95 21.9107 61.9448 16.1796C61.9448 15.6365 62.2079 15.3873 62.6986 15.375C63.5832 15.3519 64.4677 15.3488 65.3523 15.375C65.8768 15.3903 66.1445 15.7734 66.3614 16.2088C67.2844 18.0651 68.2121 19.9194 69.1443 21.7717C69.232 21.9471 69.2504 22.2501 69.5074 22.2332C69.7058 22.2178 69.7273 21.944 69.815 21.7717C70.7611 19.9041 71.7149 18.041 72.6425 16.1642C72.924 15.5965 73.324 15.3273 73.9624 15.3519C74.6531 15.3811 75.3469 15.3519 76.0392 15.3627C76.7053 15.3765 76.9361 15.6088 76.9376 16.2857C76.9376 21.9378 76.9376 27.591 76.9376 33.2452C76.9376 34.0467 76.7053 34.2528 75.8884 34.2574C75.2546 34.2574 74.6193 34.2574 73.9855 34.2574C73.1348 34.2482 72.9286 34.039 72.9286 33.1975C72.9286 30.2171 72.9286 27.2366 72.9286 24.2562C72.9286 24.0593 72.9902 23.8455 72.8533 23.6409C72.5994 23.7808 72.581 24.0301 72.4979 24.2285C71.8949 25.6623 71.2872 27.0931 70.7227 28.5361C70.4765 29.1684 70.0935 29.4053 69.4135 29.3961C68.7674 29.3853 68.4382 29.1145 68.2151 28.5438C67.5998 26.99 66.9645 25.447 66.326 23.9039C66.2507 23.747 66.2445 23.5286 65.9953 23.4178Z" fill="#3B9F98"/>
<path d="M89.946 23.5007C89.3307 24.976 88.7553 26.3529 88.1815 27.7298C88.0862 27.959 87.9969 28.1913 87.9 28.4236C87.5124 29.3467 87.1478 29.5359 86.1586 29.3774C85.7079 29.3067 85.5356 28.9775 85.3894 28.6082C84.7515 27.0452 84.1121 25.4822 83.4711 23.9192C83.4003 23.7469 83.3173 23.5807 83.2204 23.3607C83.0188 23.5961 83.0865 23.8115 83.085 24.0022C83.085 27.0411 83.085 30.079 83.085 33.1158C83.085 34.0681 82.8973 34.2527 81.9358 34.2542C81.262 34.2542 80.5898 34.2542 79.916 34.2542C79.4053 34.2542 79.1345 33.9911 79.0868 33.485C79.0699 33.3142 79.073 33.1404 79.073 32.9666V16.5363C79.073 15.5348 79.2453 15.3625 80.2421 15.361C80.8775 15.361 81.5128 15.384 82.1451 15.361C82.8081 15.3302 83.2219 15.6163 83.5127 16.2009C84.4357 18.0793 85.3787 19.9501 86.3186 21.8208C86.3986 21.9746 86.4171 22.2423 86.654 22.2315C86.8493 22.2238 86.8663 21.9838 86.9401 21.8361C87.8554 20.0177 88.7861 18.207 89.6722 16.3748C90.0245 15.6456 90.5014 15.2779 91.3398 15.3564C91.969 15.4148 92.6089 15.3564 93.2427 15.3733C93.8765 15.3902 94.0565 15.6056 94.0565 16.2317C94.0565 21.9423 94.0565 27.6529 94.0565 33.3635C94.0565 34.0434 93.8473 34.2496 93.1535 34.2619C92.4597 34.2742 91.769 34.2727 91.0783 34.2619C90.2922 34.2496 90.0922 34.0496 90.0922 33.2619C90.0922 30.2631 90.0922 27.2637 90.0922 24.2638C90.125 24.0004 90.0738 23.7333 89.946 23.5007Z" fill="#3B9F98"/>
<path d="M19.4986 47.8769C17.5435 46.849 15.7083 45.6076 14.0267 44.1755C7.83179 39.0064 3.94745 32.3866 1.84606 24.6607C0.793831 20.7931 0.2631 16.8502 0.0846511 12.8488C0.0215787 11.4088 0.0415772 9.96887 4.1777e-05 8.53045C-0.0261102 7.60741 0.450779 6.88281 1.50763 6.73666C7.66103 5.88438 13.2914 3.55369 18.6756 0.54917C19.0064 0.364561 19.3079 0.103031 19.7155 0.0876465C20.0232 0.112261 20.0032 0.366099 20.0032 0.558401C20.0032 2.25065 20.0617 3.92752 19.9771 5.61055C19.9607 5.66572 19.9327 5.71676 19.8951 5.76027C19.8574 5.80378 19.8109 5.83875 19.7586 5.86285C17.7265 6.81974 15.7881 7.96585 13.7083 8.83352C11.0508 9.95985 8.26658 10.76 5.41657 11.2165C4.00744 11.4273 3.53825 12.0334 3.50133 13.4688C3.40477 17.0062 3.71447 20.5431 4.42434 24.01C5.45196 28.8898 7.30721 33.4081 10.3593 37.3941C12.7239 40.4899 15.6923 43.0733 19.0848 44.9877C19.3017 45.1124 19.5463 45.177 19.7586 45.317C19.8346 45.3762 19.8956 45.4524 19.9368 45.5395C19.9779 45.6266 19.998 45.7222 19.9955 45.8185C20.0155 46.3754 20.0217 46.9323 19.9955 47.4877C19.9848 47.7907 19.8817 48.0246 19.4986 47.8769Z" fill="#FDC440"/>
<path d="M20.1078 0.0800781C21.0878 0.387761 21.9231 0.981588 22.8215 1.44926C27.5088 3.89842 32.3854 5.79528 37.6312 6.64756C37.9389 6.69679 38.2388 6.73371 38.5419 6.7814C39.3449 6.90601 39.7726 7.326 39.7833 8.11213C39.9264 16.138 38.9557 23.9655 35.559 31.3421C32.347 38.3163 27.4304 43.7546 20.8093 47.657C20.6412 47.7865 20.4404 47.8669 20.2294 47.8893C20.0432 47.957 19.9217 47.9032 19.9217 47.6955C19.9217 46.9493 19.8725 46.2001 19.9525 45.4555C19.9525 45.3986 20.0171 45.3617 20.0571 45.3217C22.2246 44.2448 24.1275 42.8049 25.9274 41.1972C28.7365 38.6737 31.0177 35.6186 32.6392 32.2083C34.3084 28.7561 35.3206 25.1008 35.8529 21.3071C36.2241 18.6059 36.3784 15.8793 36.3144 13.1535C36.2928 12.0335 35.7544 11.3843 34.6545 11.232C31.0424 10.729 27.6411 9.57823 24.3475 8.01982C22.9415 7.35369 21.6216 6.51833 20.1817 5.92297C20.0386 5.86451 19.8986 5.79374 19.9048 5.5999C19.9048 3.92611 19.9048 2.25232 19.914 0.580062C19.9217 0.412375 19.7648 0.138538 20.1078 0.0800781Z" fill="#FDC440"/>
<path d="M52.0422 24.9223L52.1499 24.9438C52.6627 23.6751 53.1755 22.4054 53.6883 21.1347C54.3313 19.5317 54.9697 17.9271 55.6158 16.3256C55.9619 15.4672 56.125 15.361 57.0265 15.361C57.6418 15.361 58.2572 15.3518 58.8725 15.361C59.5909 15.3749 59.8109 15.5872 59.8109 16.2841C59.8109 21.9547 59.8109 27.6258 59.8109 33.2974C59.8109 34.0143 59.6032 34.2204 58.8879 34.2435C58.1725 34.2666 57.4757 34.2589 56.7711 34.2435C56.5373 34.2409 56.3121 34.1551 56.1359 34.0014C55.9597 33.8478 55.844 33.6363 55.8096 33.4051C55.7909 33.1969 55.7852 32.9878 55.7927 32.7789C55.7927 29.9544 55.7927 27.1299 55.7927 24.2438C55.5435 24.4115 55.525 24.6484 55.4527 24.8392C54.4067 27.6083 53.3652 30.3734 52.3284 33.1343C51.9668 34.0974 51.7453 34.245 50.7054 34.2466C50.09 34.2466 49.4747 34.2466 48.8594 34.2466C48.3209 34.2466 48.0425 33.9681 48.0317 33.4297C48.024 32.9882 48.0317 32.5466 48.0317 32.1036V16.6564C48.0317 15.4718 48.1456 15.361 49.3593 15.361C49.8778 15.361 50.3962 15.361 50.9161 15.361C51.8561 15.361 52.053 15.5595 52.0545 16.521C52.0545 19.0204 52.0545 21.5198 52.0545 24.0192L52.0422 24.9223Z" fill="#3B9F98"/>
<path d="M110.526 24.7686C110.526 21.942 110.526 19.116 110.526 16.2904C110.526 15.5904 110.714 15.3812 111.394 15.3674C112.143 15.3504 112.893 15.3489 113.643 15.3674C114.293 15.3843 114.489 15.595 114.492 16.255C114.492 17.8888 114.492 19.5242 114.492 21.1579C114.492 21.9764 114.547 22.0271 115.384 22.0287C116.095 22.0287 116.807 22.0072 117.518 22.0287C118.064 22.0502 118.279 21.8348 118.271 21.2872C118.253 19.6534 118.264 18.018 118.271 16.3843C118.271 15.5612 118.467 15.3643 119.288 15.3566C119.981 15.3566 120.673 15.3458 121.365 15.3566C122.057 15.3674 122.288 15.5966 122.288 16.2596C122.294 21.9507 122.294 27.6429 122.288 33.336C122.288 33.9698 122.05 34.2268 121.428 34.2452C120.659 34.2698 119.89 34.2729 119.121 34.2452C118.49 34.2221 118.281 33.9729 118.279 33.3222C118.279 31.073 118.279 28.8223 118.279 26.5732C118.279 25.8424 118.241 25.804 117.488 25.804C116.736 25.804 115.987 25.827 115.239 25.804C114.678 25.7809 114.495 26.0255 114.499 26.5578C114.513 28.75 114.499 30.9422 114.499 33.1329C114.499 34.1006 114.335 34.2591 113.35 34.2606H111.613C110.707 34.2606 110.526 34.0806 110.526 33.1929V24.7686Z" fill="#3B9F98"/>
<path d="M164.534 24.73V16.3657C164.534 15.5734 164.728 15.3719 165.513 15.3626C166.184 15.3534 166.857 15.3534 167.531 15.3626C168.331 15.3734 168.542 15.5872 168.545 16.4088C168.545 18.2164 168.562 20.024 168.545 21.8317C168.545 22.3209 168.66 22.5578 169.186 22.4932C169.455 22.4778 169.725 22.4778 169.994 22.4932C171.026 22.4932 171.501 22.0609 171.584 21.0163C171.666 20.0025 171.555 18.9825 171.668 17.9656C171.848 16.3641 172.898 15.3796 174.5 15.3657C175.077 15.3657 175.655 15.3549 176.23 15.3657C176.87 15.3796 177.123 15.6488 177.129 16.2888C177.129 16.7887 177.119 17.2887 177.129 17.7887C177.138 18.2887 176.892 18.5164 176.4 18.5395C175.538 18.5795 175.404 18.7302 175.396 19.6163C175.396 20.3471 175.387 21.0778 175.396 21.8086C175.407 22.6009 175.133 23.2193 174.43 23.6439C173.898 23.9639 173.889 24.167 174.452 24.4131C175.918 25.07 176.332 26.2592 176.31 27.7422C176.284 29.5683 176.31 31.396 176.31 33.2221C176.31 34.002 176.095 34.2251 175.324 34.239C174.67 34.2513 174.017 34.2466 173.363 34.239C172.511 34.239 172.304 34.0205 172.3 33.1821C172.291 31.5852 172.314 29.9899 172.264 28.3945C172.22 26.8838 171.435 26.1608 169.932 26.1654C168.429 26.17 168.559 25.9577 168.557 27.5622C168.557 29.3899 168.557 31.216 168.557 33.0436C168.557 34.0651 168.374 34.239 167.339 34.2405C166.743 34.2405 166.146 34.2405 165.551 34.2405C164.745 34.2405 164.547 34.0267 164.547 33.1959C164.536 30.3786 164.532 27.5566 164.534 24.73Z" fill="#3B9F98"/>
<path d="M151.408 24.7791C151.408 22.049 151.408 19.3188 151.408 16.5886C151.408 15.5287 151.581 15.3579 152.654 15.3579H161.016C162.001 15.3579 162.144 15.5118 162.144 16.4871C162.144 17.0071 162.144 17.5255 162.144 18.0455C162.144 18.6932 161.958 18.8747 161.265 18.8793C159.727 18.8886 158.189 18.8793 156.65 18.8793C155.33 18.8793 155.429 18.7993 155.432 20.0916C155.432 20.707 155.467 21.3223 155.421 21.9377C155.38 22.4946 155.604 22.6223 156.119 22.6084C157.33 22.5746 158.541 22.5946 159.753 22.5992C160.456 22.5992 160.607 22.7531 160.611 23.4315C160.611 24.0858 160.611 24.7391 160.611 25.3914C160.611 26.016 160.488 26.1391 159.81 26.1453C158.599 26.156 157.387 26.176 156.178 26.136C155.61 26.1176 155.392 26.2576 155.418 26.8668C155.467 27.9606 155.45 29.0575 155.418 30.1528C155.407 30.5928 155.572 30.7113 155.987 30.7082C157.813 30.6897 159.639 30.6974 161.465 30.7005C162.388 30.7005 162.484 30.802 162.484 31.7235C162.484 32.282 162.464 32.8404 162.484 33.3958C162.504 33.9512 162.219 34.2065 161.701 34.2419C161.451 34.2604 161.201 34.2512 160.951 34.2512H152.715C151.564 34.2512 151.408 34.0973 151.408 32.9066C151.406 30.199 151.406 27.4898 151.408 24.7791Z" fill="#3B9F98"/>
<path d="M102.54 23.6531C102.848 23.2316 102.848 22.7531 102.986 22.3208C103.629 20.2317 104.268 18.1415 104.903 16.0502C105.057 15.5533 105.365 15.3441 105.888 15.3549C106.732 15.3733 107.58 15.3549 108.424 15.3549C109.158 15.3549 109.286 15.5257 109.061 16.2241C108.075 19.2917 107.083 22.3583 106.088 25.4238C105.583 26.9745 105.078 28.5252 104.549 30.0667C104.252 30.9217 103.831 31.7282 103.299 32.4605C102.245 33.9235 100.742 34.4143 99.0343 34.4527C98.3451 34.4681 97.6498 34.5112 96.9637 34.382C96.2776 34.2527 96.1068 34.0635 96.1038 33.3943C96.1007 32.7251 96.1253 32.0482 96.0961 31.3759C96.0776 30.9144 96.3037 30.7175 96.7022 30.7205C97.1617 30.7202 97.6202 30.7639 98.0713 30.8513C98.7882 30.9944 99.4158 30.8852 99.9173 30.3252C100.379 29.7975 100.319 29.196 100.093 28.5883C98.6046 24.5782 97.1175 20.5665 95.6315 16.5533C95.5543 16.3781 95.491 16.197 95.4423 16.0118C95.3684 15.6241 95.4992 15.361 95.9392 15.3595C96.9575 15.3595 97.9775 15.3503 98.9959 15.3595C99.4574 15.3595 99.702 15.6472 99.8481 16.0779C100.636 18.4056 101.439 20.7255 102.237 23.0485C102.3 23.2469 102.316 23.4669 102.54 23.6531Z" fill="#3B9F98"/>
<path d="M141.682 26.5423C141.682 24.2941 141.682 22.046 141.682 19.7979C141.682 19.0856 141.601 19.0041 140.887 19.0025C139.945 19.0025 139.004 19.0025 138.062 19.0025C137.258 19.0025 137.11 18.8487 137.107 18.0702C137.107 17.398 137.107 16.7257 137.107 16.0534C137.099 15.5672 137.326 15.3596 137.807 15.3611C141.727 15.3611 145.646 15.3611 149.565 15.3611C150.065 15.3611 150.246 15.6057 150.24 16.0765C150.229 16.8257 150.22 17.5749 150.24 18.3241C150.255 18.8379 149.997 19.0056 149.537 19.0056C148.537 19.0056 147.537 19.0056 146.539 19.0056C145.733 19.0056 145.653 19.0841 145.653 19.8994C145.653 24.3198 145.653 28.7386 145.653 33.1559C145.653 34.0913 145.488 34.2559 144.548 34.2605C143.914 34.2605 143.279 34.2713 142.645 34.2605C141.898 34.2466 141.687 34.0328 141.687 33.2913C141.684 31.0401 141.682 28.7904 141.682 26.5423Z" fill="#3B9F98"/>
<path d="M20.1079 0.0799455C19.9202 0.218403 19.9695 0.42455 19.9695 0.610698C19.9695 2.32039 19.9695 4.03008 19.9695 5.73976C19.962 5.74907 19.9525 5.75659 19.9417 5.76175C19.9309 5.76691 19.9191 5.76959 19.9072 5.76959C19.8952 5.76959 19.8834 5.76691 19.8726 5.76175C19.8618 5.75659 19.8523 5.74907 19.8448 5.73976C19.8448 4.03008 19.8448 2.32192 19.8448 0.615313C19.8448 0.429165 19.8956 0.223018 19.7095 0.0830223C19.7352 0.0562595 19.766 0.0349125 19.8001 0.020237C19.8342 0.00556139 19.8709 -0.00214643 19.908 -0.0024331C19.9452 -0.00271978 19.982 0.00442046 20.0163 0.0185676C20.0506 0.0327148 20.0818 0.0535833 20.1079 0.0799455Z" fill="#FDCC67"/>
<path d="M20.2032 45.3554C20.1048 45.4616 19.9633 45.5277 19.9663 45.7139C19.974 46.3369 19.9663 46.96 19.9663 47.5831C19.9625 47.6203 19.9663 47.658 19.9773 47.6938C19.9883 47.7296 20.0064 47.7629 20.0305 47.7916C20.0546 47.8203 20.0842 47.8438 20.1176 47.8609C20.151 47.8779 20.1874 47.8881 20.2248 47.8907C20.1165 47.9636 19.9883 48.0012 19.8578 47.9985C19.7272 47.9957 19.6008 47.9527 19.4956 47.8754C19.671 47.8631 19.8479 47.8554 19.8479 47.6061C19.8479 46.959 19.8479 46.3108 19.8479 45.6616C19.8479 45.497 19.6941 45.457 19.6156 45.3539C19.65 45.3084 19.6944 45.2716 19.7455 45.2463C19.7966 45.221 19.8528 45.2079 19.9098 45.208C19.9668 45.2082 20.023 45.2216 20.0739 45.2471C20.1248 45.2727 20.1691 45.3098 20.2032 45.3554Z" fill="#FDCC67"/>
<path d="M20.2033 45.3354H19.6172C18.6341 45.0154 17.8111 44.4031 16.9773 43.8308C11.0024 39.7387 7.17189 34.0973 5.09358 27.216C4.1901 24.1607 3.63887 21.0122 3.45062 17.8317C3.34602 16.2579 3.33371 14.6872 3.35371 13.1134C3.36755 11.9872 3.99981 11.2303 5.12896 11.0765C7.63629 10.7209 10.0937 10.0745 12.4515 9.15041C14.5948 8.30723 16.6757 7.3135 18.6788 6.17666C19.048 5.96897 19.4079 5.74436 19.8479 5.72437L20.0894 5.74898C21.0986 5.98128 21.917 6.62126 22.8154 7.08124C26.5982 9.01349 30.5164 10.5196 34.7668 11.0765C35.7929 11.2103 36.4482 11.8996 36.4698 12.8657C36.5836 17.964 36.0867 22.9823 34.5284 27.8652C32.9516 32.805 30.3933 37.1434 26.649 40.7525C24.9124 42.4188 22.9818 43.8702 20.8986 45.0754C20.6856 45.2059 20.4496 45.2942 20.2033 45.3354Z" fill="#FEFEFE"/>
<path d="M136.059 24.8884C135.998 23.0808 136.187 21.287 135.807 19.5194C135.365 17.4717 134.298 15.981 132.184 15.3903C131.681 15.2613 131.165 15.1865 130.646 15.1672C127.117 14.9734 124.771 16.5825 124.385 20.307C124.108 22.9869 124.275 25.6822 124.297 28.3714C124.304 29.1406 124.419 29.9049 124.639 30.6421C125.358 33.0558 127.029 34.2604 129.497 34.4327C132.607 34.6512 135.176 33.4943 135.85 29.9221C136.172 28.2422 135.99 26.5499 136.059 24.8884ZM131.876 29.4467C131.661 30.5529 130.998 31.0205 129.906 30.9205C129.606 30.9042 129.318 30.7968 129.08 30.6126C128.843 30.4285 128.667 30.1763 128.577 29.8898C128.388 29.364 128.297 28.8083 128.307 28.2499C128.307 25.9617 128.307 23.6741 128.307 21.387C128.291 20.7897 128.396 20.1953 128.615 19.6394C128.881 19.0055 129.363 18.704 130.049 18.6763C130.79 18.6486 131.369 18.8778 131.693 19.5855C132.001 20.2501 132.016 20.9624 132.023 21.6731C132.032 22.7116 132.023 23.75 132.023 25.0576C131.95 26.3407 132.176 27.9037 131.876 29.4467Z" fill="#3B9F98"/>
<path d="M191.446 33.3513C190.578 29.8898 189.707 26.4294 188.831 22.9701L187.154 16.3318C186.936 15.4657 186.806 15.3611 185.94 15.3611H183.114C182.207 15.3611 182.05 15.4888 181.847 16.3441C181.169 19.1994 180.488 22.0537 179.805 24.9069C179.125 27.7622 178.439 30.616 177.77 33.4728C177.632 34.0636 177.796 34.242 178.401 34.2543C179.188 34.2636 179.978 34.2543 180.765 34.2543C181.227 34.2543 181.522 34.0513 181.627 33.579C181.767 32.9421 181.934 32.3128 182.076 31.6744C182.171 31.2329 182.391 31.019 182.87 31.0298C183.983 31.0514 185.099 31.0483 186.214 31.0298C186.637 31.0221 186.843 31.1837 186.937 31.5944C187.091 32.2282 187.291 32.8498 187.437 33.4851C187.568 34.0559 187.909 34.2728 188.472 34.2543C189.222 34.2359 189.971 34.2543 190.721 34.2543C191.472 34.2543 191.623 34.0528 191.446 33.3513ZM185.403 27.4192C185.116 27.4084 184.828 27.4192 184.54 27.4192C184.253 27.4192 184 27.4007 183.734 27.4192C183.291 27.4576 183.147 27.2915 183.248 26.8515C183.585 25.3977 183.902 23.9393 184.231 22.4839C184.268 22.3301 184.251 22.0593 184.44 22.0532C184.682 22.0455 184.659 22.3332 184.7 22.5009C185.071 23.967 185.413 25.4392 185.797 26.9007C185.905 27.3115 185.789 27.4345 185.403 27.4192Z" fill="#3B9F98"/>
<path d="M4.87943 14.5826C4.90022 14.1993 4.90022 13.8152 4.87943 13.4319C4.81636 12.8673 5.05788 12.6534 5.59784 12.5796C9.49602 12.035 13.1527 10.7335 16.6601 8.98892C17.5708 8.5274 18.4785 8.06588 19.3599 7.56589C19.5219 7.45429 19.714 7.39453 19.9107 7.39453C20.1074 7.39453 20.2994 7.45429 20.4614 7.56589C23.6396 9.33507 26.9225 10.8535 30.4607 11.7996C31.6973 12.1486 32.9581 12.4057 34.2327 12.5688C34.7619 12.6303 34.9696 12.8226 34.9696 13.4026C34.9696 18.444 34.4665 23.4023 32.7974 28.2006C30.5007 34.7681 26.4671 39.9141 20.5091 43.537C20.0722 43.8017 19.7645 43.8001 19.3261 43.537C13.4665 40.0279 9.49295 34.985 7.17311 28.6052C5.76244 24.7315 5.09172 20.7116 4.9425 16.6056C4.91943 15.9349 4.9425 15.2626 4.9425 14.5918L4.87943 14.5826Z" fill="#3B9F98"/>
<path d="M10.1731 24.2576C10.1731 23.3346 10.1993 22.4116 10.1624 21.4885C10.1454 21.0393 10.3008 20.9454 10.7193 20.9501C12.4868 20.9716 14.2575 20.9501 16.0219 20.9701C16.4742 20.9701 16.6142 20.8531 16.6065 20.3916C16.5804 18.624 16.6065 16.8533 16.5881 15.0872C16.5881 14.6795 16.6619 14.518 17.1188 14.5257C18.9817 14.5518 20.8462 14.5472 22.7107 14.5257C23.1061 14.5257 23.2383 14.6256 23.2337 15.0364C23.2122 16.804 23.246 18.5748 23.2107 20.3393C23.1999 20.8685 23.3737 20.9762 23.8645 20.967C25.612 20.9393 27.3611 20.967 29.1102 20.947C29.5425 20.947 29.6625 21.0608 29.6579 21.4931C29.6333 23.3577 29.6333 25.2217 29.6579 27.0852C29.6579 27.5006 29.521 27.596 29.1318 27.5929C27.3442 27.5745 25.5582 27.5929 23.7706 27.5745C23.343 27.5745 23.2107 27.6883 23.2153 28.1237C23.2399 29.8913 23.2153 31.662 23.2337 33.4281C23.2337 33.8558 23.1553 34.0281 22.6738 34.0204C20.8278 33.9896 18.9817 33.9943 17.1357 34.0204C16.7111 34.0204 16.5758 33.9204 16.5834 33.4789C16.6081 31.7313 16.5696 29.9821 16.6081 28.2344C16.6188 27.6806 16.4327 27.5683 15.9235 27.576C14.1759 27.6052 12.4268 27.576 10.6793 27.596C10.2762 27.596 10.1501 27.4837 10.1624 27.0791C10.1931 26.1422 10.1731 25.1992 10.1731 24.2576Z" fill="#FEFEFE"/>
</g>
<defs>
<clipPath id="clip0_804_29185">
<rect width="192" height="48" fill="white"/>
</clipPath>
</defs>
</svg>
