<svg width="18" height="18" viewBox="0 0 18 18" fill="none" xmlns="http://www.w3.org/2000/svg">
<path d="M14.3999 2.39999H8.3999C7.7369 2.39999 7.1999 2.93699 7.1999 3.59999V5.99999C7.1999 6.66299 6.6629 7.19999 5.9999 7.19999H3.5999C2.9369 7.19999 2.3999 7.73699 2.3999 8.39999V14.4C2.3999 15.063 2.9369 15.6 3.5999 15.6H14.3999C15.0629 15.6 15.5999 15.063 15.5999 14.4V3.59999C15.5999 2.93699 15.0629 2.39999 14.3999 2.39999ZM11.9999 10.2C11.9999 11.1924 11.1923 12 10.1999 12H7.1999V13.8L4.7999 11.4L7.1999 8.99999V10.8H10.1999C10.5305 10.8 10.7999 10.5312 10.7999 10.2V6.59999C10.7999 6.26819 11.0687 5.99999 11.3999 5.99999C11.7311 5.99999 11.9999 6.26819 11.9999 6.59999V10.2Z" fill="#C1C6D0"/>
</svg>
