<svg width="269" height="84" viewBox="0 0 269 84" fill="none" xmlns="http://www.w3.org/2000/svg">
<mask id="path-1-outside-1_1030_9311" maskUnits="userSpaceOnUse" x="68.4046" y="16.7876" width="184" height="31" fill="black">
<rect fill="white" x="68.4046" y="16.7876" width="184" height="31"/>
<path d="M92.2303 42.1721C90.5356 43.6828 88.8762 44.7665 87.2521 45.4233C85.628 46.0473 83.7744 46.3593 81.6913 46.3593C79.8201 46.3593 78.1253 46.0966 76.6072 45.5711C75.089 45.0128 73.8003 44.2411 72.7411 43.2558C71.6819 42.2706 70.8522 41.1047 70.252 39.7583C69.6871 38.3789 69.4046 36.8518 69.4046 35.1769C69.4046 32.878 69.8636 30.6777 70.7816 28.5759C71.7349 26.474 73.0236 24.6349 74.6477 23.0586C76.3071 21.4493 78.2313 20.1685 80.4203 19.2162C82.6093 18.2638 84.9748 17.7876 87.5169 17.7876C89.6353 17.7876 91.3829 18.1324 92.7599 18.8221C94.1722 19.4789 95.3373 20.5626 96.2552 22.0733L96.9967 18.428H103.458L98.0029 45.7189H91.5418L92.2303 42.1721ZM76.6072 34.0439C76.6072 35.9487 77.2427 37.4758 78.5137 38.6252C79.8201 39.7747 81.603 40.3494 83.8627 40.3494C85.3455 40.3494 86.7225 40.0867 87.9935 39.5612C89.2646 39.0029 90.3591 38.2804 91.277 37.3937C92.195 36.4741 92.9188 35.4068 93.4484 34.1917C93.978 32.9766 94.2428 31.6958 94.2428 30.3493C94.2428 28.3788 93.572 26.8024 92.2303 25.6202C90.924 24.405 89.1586 23.7975 86.9343 23.7975C85.4868 23.7975 84.1275 24.0931 82.8564 24.6842C81.6207 25.2425 80.5262 25.9978 79.5729 26.9502C78.6549 27.9026 77.9312 29.0028 77.4016 30.2508C76.872 31.4659 76.6072 32.7303 76.6072 34.0439Z"/>
<path d="M109.177 18.428H115.638L115.109 21.0881C115.709 20.4313 116.256 19.8894 116.75 19.4625C117.28 19.0355 117.827 18.7071 118.392 18.4772C118.957 18.2145 119.575 18.0339 120.246 17.9354C120.916 17.8368 121.711 17.7876 122.629 17.7876L121.358 24.0931C117.156 24.0931 114.632 26.2441 113.785 30.5463L110.766 45.7189H103.722L109.177 18.428Z"/>
<path d="M145.035 42.1721C143.34 43.6828 141.681 44.7665 140.057 45.4233C138.433 46.0473 136.579 46.3593 134.496 46.3593C132.625 46.3593 130.93 46.0966 129.412 45.5711C127.894 45.0128 126.605 44.2411 125.546 43.2558C124.487 42.2706 123.657 41.1047 123.057 39.7583C122.492 38.3789 122.209 36.8518 122.209 35.1769C122.209 32.878 122.668 30.6777 123.586 28.5759C124.539 26.474 125.828 24.6349 127.452 23.0586C129.112 21.4493 131.036 20.1685 133.225 19.2162C135.414 18.2638 137.779 17.7876 140.322 17.7876C142.44 17.7876 144.188 18.1324 145.565 18.8221C146.977 19.4789 148.142 20.5626 149.06 22.0733L149.801 18.428H156.262L150.808 45.7189H144.346L145.035 42.1721ZM129.412 34.0439C129.412 35.9487 130.047 37.4758 131.318 38.6252C132.625 39.7747 134.408 40.3494 136.667 40.3494C138.15 40.3494 139.527 40.0867 140.798 39.5612C142.069 39.0029 143.164 38.2804 144.082 37.3937C145 36.4741 145.723 35.4068 146.253 34.1917C146.783 32.9766 147.047 31.6958 147.047 30.3493C147.047 28.3788 146.377 26.8024 145.035 25.6202C143.729 24.405 141.963 23.7975 139.739 23.7975C138.291 23.7975 136.932 24.0931 135.661 24.6842C134.425 25.2425 133.331 25.9978 132.378 26.9502C131.46 27.9026 130.736 29.0028 130.206 30.2508C129.677 31.4659 129.412 32.7303 129.412 34.0439Z"/>
<path d="M159.281 18.428H167.119L170.296 36.507L180.571 18.428H188.515L171.25 45.7189H165.636L159.281 18.428Z"/>
<path d="M209.89 42.1721C208.195 43.6828 206.536 44.7665 204.912 45.4233C203.288 46.0473 201.434 46.3593 199.351 46.3593C197.48 46.3593 195.785 46.0966 194.267 45.5711C192.749 45.0128 191.46 44.2411 190.401 43.2558C189.342 42.2706 188.512 41.1047 187.912 39.7583C187.347 38.3789 187.064 36.8518 187.064 35.1769C187.064 32.878 187.523 30.6777 188.441 28.5759C189.395 26.474 190.683 24.6349 192.307 23.0586C193.967 21.4493 195.891 20.1685 198.08 19.2162C200.269 18.2638 202.635 17.7876 205.177 17.7876C207.295 17.7876 209.043 18.1324 210.42 18.8221C211.832 19.4789 212.997 20.5626 213.915 22.0733L214.656 18.428H221.117L215.663 45.7189H209.202L209.89 42.1721ZM194.267 34.0439C194.267 35.9487 194.902 37.4758 196.173 38.6252C197.48 39.7747 199.263 40.3494 201.522 40.3494C203.005 40.3494 204.382 40.0867 205.653 39.5612C206.924 39.0029 208.019 38.2804 208.937 37.3937C209.855 36.4741 210.578 35.4068 211.108 34.1917C211.638 32.9766 211.902 31.6958 211.902 30.3493C211.902 28.3788 211.232 26.8024 209.89 25.6202C208.584 24.405 206.818 23.7975 204.594 23.7975C203.146 23.7975 201.787 24.0931 200.516 24.6842C199.28 25.2425 198.186 25.9978 197.233 26.9502C196.315 27.9026 195.591 29.0028 195.061 30.2508C194.532 31.4659 194.267 32.7303 194.267 34.0439Z"/>
<path d="M226.837 18.428H233.351L232.821 21.0388C234.375 19.8566 235.822 19.0191 237.164 18.5265C238.506 18.0339 240.024 17.7876 241.718 17.7876C244.508 17.7876 246.75 18.4444 248.444 19.758C250.174 21.0717 251.039 23.0421 251.039 25.6694C251.039 27.0488 250.81 28.855 250.351 31.0882L247.438 45.7189H240.394L243.042 32.369C243.395 30.6284 243.572 29.1998 243.572 28.0832C243.572 26.7039 243.219 25.653 242.513 24.9305C241.842 24.1752 240.712 23.7975 239.123 23.7975C237.676 23.7975 236.475 24.0602 235.522 24.5857C234.569 25.1111 233.792 25.8172 233.192 26.7039C232.592 27.5578 232.115 28.5266 231.762 29.6104C231.444 30.6941 231.179 31.7779 230.968 32.8616L228.426 45.7189H221.382L226.837 18.428Z"/>
</mask>
<path d="M92.2303 42.1721C90.5356 43.6828 88.8762 44.7665 87.2521 45.4233C85.628 46.0473 83.7744 46.3593 81.6913 46.3593C79.8201 46.3593 78.1253 46.0966 76.6072 45.5711C75.089 45.0128 73.8003 44.2411 72.7411 43.2558C71.6819 42.2706 70.8522 41.1047 70.252 39.7583C69.6871 38.3789 69.4046 36.8518 69.4046 35.1769C69.4046 32.878 69.8636 30.6777 70.7816 28.5759C71.7349 26.474 73.0236 24.6349 74.6477 23.0586C76.3071 21.4493 78.2313 20.1685 80.4203 19.2162C82.6093 18.2638 84.9748 17.7876 87.5169 17.7876C89.6353 17.7876 91.3829 18.1324 92.7599 18.8221C94.1722 19.4789 95.3373 20.5626 96.2552 22.0733L96.9967 18.428H103.458L98.0029 45.7189H91.5418L92.2303 42.1721ZM76.6072 34.0439C76.6072 35.9487 77.2427 37.4758 78.5137 38.6252C79.8201 39.7747 81.603 40.3494 83.8627 40.3494C85.3455 40.3494 86.7225 40.0867 87.9935 39.5612C89.2646 39.0029 90.3591 38.2804 91.277 37.3937C92.195 36.4741 92.9188 35.4068 93.4484 34.1917C93.978 32.9766 94.2428 31.6958 94.2428 30.3493C94.2428 28.3788 93.572 26.8024 92.2303 25.6202C90.924 24.405 89.1586 23.7975 86.9343 23.7975C85.4868 23.7975 84.1275 24.0931 82.8564 24.6842C81.6207 25.2425 80.5262 25.9978 79.5729 26.9502C78.6549 27.9026 77.9312 29.0028 77.4016 30.2508C76.872 31.4659 76.6072 32.7303 76.6072 34.0439Z" fill="white"/>
<path d="M109.177 18.428H115.638L115.109 21.0881C115.709 20.4313 116.256 19.8894 116.75 19.4625C117.28 19.0355 117.827 18.7071 118.392 18.4772C118.957 18.2145 119.575 18.0339 120.246 17.9354C120.916 17.8368 121.711 17.7876 122.629 17.7876L121.358 24.0931C117.156 24.0931 114.632 26.2441 113.785 30.5463L110.766 45.7189H103.722L109.177 18.428Z" fill="white"/>
<path d="M145.035 42.1721C143.34 43.6828 141.681 44.7665 140.057 45.4233C138.433 46.0473 136.579 46.3593 134.496 46.3593C132.625 46.3593 130.93 46.0966 129.412 45.5711C127.894 45.0128 126.605 44.2411 125.546 43.2558C124.487 42.2706 123.657 41.1047 123.057 39.7583C122.492 38.3789 122.209 36.8518 122.209 35.1769C122.209 32.878 122.668 30.6777 123.586 28.5759C124.539 26.474 125.828 24.6349 127.452 23.0586C129.112 21.4493 131.036 20.1685 133.225 19.2162C135.414 18.2638 137.779 17.7876 140.322 17.7876C142.44 17.7876 144.188 18.1324 145.565 18.8221C146.977 19.4789 148.142 20.5626 149.06 22.0733L149.801 18.428H156.262L150.808 45.7189H144.346L145.035 42.1721ZM129.412 34.0439C129.412 35.9487 130.047 37.4758 131.318 38.6252C132.625 39.7747 134.408 40.3494 136.667 40.3494C138.15 40.3494 139.527 40.0867 140.798 39.5612C142.069 39.0029 143.164 38.2804 144.082 37.3937C145 36.4741 145.723 35.4068 146.253 34.1917C146.783 32.9766 147.047 31.6958 147.047 30.3493C147.047 28.3788 146.377 26.8024 145.035 25.6202C143.729 24.405 141.963 23.7975 139.739 23.7975C138.291 23.7975 136.932 24.0931 135.661 24.6842C134.425 25.2425 133.331 25.9978 132.378 26.9502C131.46 27.9026 130.736 29.0028 130.206 30.2508C129.677 31.4659 129.412 32.7303 129.412 34.0439Z" fill="white"/>
<path d="M159.281 18.428H167.119L170.296 36.507L180.571 18.428H188.515L171.25 45.7189H165.636L159.281 18.428Z" fill="white"/>
<path d="M209.89 42.1721C208.195 43.6828 206.536 44.7665 204.912 45.4233C203.288 46.0473 201.434 46.3593 199.351 46.3593C197.48 46.3593 195.785 46.0966 194.267 45.5711C192.749 45.0128 191.46 44.2411 190.401 43.2558C189.342 42.2706 188.512 41.1047 187.912 39.7583C187.347 38.3789 187.064 36.8518 187.064 35.1769C187.064 32.878 187.523 30.6777 188.441 28.5759C189.395 26.474 190.683 24.6349 192.307 23.0586C193.967 21.4493 195.891 20.1685 198.08 19.2162C200.269 18.2638 202.635 17.7876 205.177 17.7876C207.295 17.7876 209.043 18.1324 210.42 18.8221C211.832 19.4789 212.997 20.5626 213.915 22.0733L214.656 18.428H221.117L215.663 45.7189H209.202L209.89 42.1721ZM194.267 34.0439C194.267 35.9487 194.902 37.4758 196.173 38.6252C197.48 39.7747 199.263 40.3494 201.522 40.3494C203.005 40.3494 204.382 40.0867 205.653 39.5612C206.924 39.0029 208.019 38.2804 208.937 37.3937C209.855 36.4741 210.578 35.4068 211.108 34.1917C211.638 32.9766 211.902 31.6958 211.902 30.3493C211.902 28.3788 211.232 26.8024 209.89 25.6202C208.584 24.405 206.818 23.7975 204.594 23.7975C203.146 23.7975 201.787 24.0931 200.516 24.6842C199.28 25.2425 198.186 25.9978 197.233 26.9502C196.315 27.9026 195.591 29.0028 195.061 30.2508C194.532 31.4659 194.267 32.7303 194.267 34.0439Z" fill="white"/>
<path d="M226.837 18.428H233.351L232.821 21.0388C234.375 19.8566 235.822 19.0191 237.164 18.5265C238.506 18.0339 240.024 17.7876 241.718 17.7876C244.508 17.7876 246.75 18.4444 248.444 19.758C250.174 21.0717 251.039 23.0421 251.039 25.6694C251.039 27.0488 250.81 28.855 250.351 31.0882L247.438 45.7189H240.394L243.042 32.369C243.395 30.6284 243.572 29.1998 243.572 28.0832C243.572 26.7039 243.219 25.653 242.513 24.9305C241.842 24.1752 240.712 23.7975 239.123 23.7975C237.676 23.7975 236.475 24.0602 235.522 24.5857C234.569 25.1111 233.792 25.8172 233.192 26.7039C232.592 27.5578 232.115 28.5266 231.762 29.6104C231.444 30.6941 231.179 31.7779 230.968 32.8616L228.426 45.7189H221.382L226.837 18.428Z" fill="white"/>
<path d="M92.2303 42.1721C90.5356 43.6828 88.8762 44.7665 87.2521 45.4233C85.628 46.0473 83.7744 46.3593 81.6913 46.3593C79.8201 46.3593 78.1253 46.0966 76.6072 45.5711C75.089 45.0128 73.8003 44.2411 72.7411 43.2558C71.6819 42.2706 70.8522 41.1047 70.252 39.7583C69.6871 38.3789 69.4046 36.8518 69.4046 35.1769C69.4046 32.878 69.8636 30.6777 70.7816 28.5759C71.7349 26.474 73.0236 24.6349 74.6477 23.0586C76.3071 21.4493 78.2313 20.1685 80.4203 19.2162C82.6093 18.2638 84.9748 17.7876 87.5169 17.7876C89.6353 17.7876 91.3829 18.1324 92.7599 18.8221C94.1722 19.4789 95.3373 20.5626 96.2552 22.0733L96.9967 18.428H103.458L98.0029 45.7189H91.5418L92.2303 42.1721ZM76.6072 34.0439C76.6072 35.9487 77.2427 37.4758 78.5137 38.6252C79.8201 39.7747 81.603 40.3494 83.8627 40.3494C85.3455 40.3494 86.7225 40.0867 87.9935 39.5612C89.2646 39.0029 90.3591 38.2804 91.277 37.3937C92.195 36.4741 92.9188 35.4068 93.4484 34.1917C93.978 32.9766 94.2428 31.6958 94.2428 30.3493C94.2428 28.3788 93.572 26.8024 92.2303 25.6202C90.924 24.405 89.1586 23.7975 86.9343 23.7975C85.4868 23.7975 84.1275 24.0931 82.8564 24.6842C81.6207 25.2425 80.5262 25.9978 79.5729 26.9502C78.6549 27.9026 77.9312 29.0028 77.4016 30.2508C76.872 31.4659 76.6072 32.7303 76.6072 34.0439Z" stroke="white" stroke-width="1.36056" mask="url(#path-1-outside-1_1030_9311)"/>
<path d="M109.177 18.428H115.638L115.109 21.0881C115.709 20.4313 116.256 19.8894 116.75 19.4625C117.28 19.0355 117.827 18.7071 118.392 18.4772C118.957 18.2145 119.575 18.0339 120.246 17.9354C120.916 17.8368 121.711 17.7876 122.629 17.7876L121.358 24.0931C117.156 24.0931 114.632 26.2441 113.785 30.5463L110.766 45.7189H103.722L109.177 18.428Z" stroke="white" stroke-width="1.36056" mask="url(#path-1-outside-1_1030_9311)"/>
<path d="M145.035 42.1721C143.34 43.6828 141.681 44.7665 140.057 45.4233C138.433 46.0473 136.579 46.3593 134.496 46.3593C132.625 46.3593 130.93 46.0966 129.412 45.5711C127.894 45.0128 126.605 44.2411 125.546 43.2558C124.487 42.2706 123.657 41.1047 123.057 39.7583C122.492 38.3789 122.209 36.8518 122.209 35.1769C122.209 32.878 122.668 30.6777 123.586 28.5759C124.539 26.474 125.828 24.6349 127.452 23.0586C129.112 21.4493 131.036 20.1685 133.225 19.2162C135.414 18.2638 137.779 17.7876 140.322 17.7876C142.44 17.7876 144.188 18.1324 145.565 18.8221C146.977 19.4789 148.142 20.5626 149.06 22.0733L149.801 18.428H156.262L150.808 45.7189H144.346L145.035 42.1721ZM129.412 34.0439C129.412 35.9487 130.047 37.4758 131.318 38.6252C132.625 39.7747 134.408 40.3494 136.667 40.3494C138.15 40.3494 139.527 40.0867 140.798 39.5612C142.069 39.0029 143.164 38.2804 144.082 37.3937C145 36.4741 145.723 35.4068 146.253 34.1917C146.783 32.9766 147.047 31.6958 147.047 30.3493C147.047 28.3788 146.377 26.8024 145.035 25.6202C143.729 24.405 141.963 23.7975 139.739 23.7975C138.291 23.7975 136.932 24.0931 135.661 24.6842C134.425 25.2425 133.331 25.9978 132.378 26.9502C131.46 27.9026 130.736 29.0028 130.206 30.2508C129.677 31.4659 129.412 32.7303 129.412 34.0439Z" stroke="white" stroke-width="1.36056" mask="url(#path-1-outside-1_1030_9311)"/>
<path d="M159.281 18.428H167.119L170.296 36.507L180.571 18.428H188.515L171.25 45.7189H165.636L159.281 18.428Z" stroke="white" stroke-width="1.36056" mask="url(#path-1-outside-1_1030_9311)"/>
<path d="M209.89 42.1721C208.195 43.6828 206.536 44.7665 204.912 45.4233C203.288 46.0473 201.434 46.3593 199.351 46.3593C197.48 46.3593 195.785 46.0966 194.267 45.5711C192.749 45.0128 191.46 44.2411 190.401 43.2558C189.342 42.2706 188.512 41.1047 187.912 39.7583C187.347 38.3789 187.064 36.8518 187.064 35.1769C187.064 32.878 187.523 30.6777 188.441 28.5759C189.395 26.474 190.683 24.6349 192.307 23.0586C193.967 21.4493 195.891 20.1685 198.08 19.2162C200.269 18.2638 202.635 17.7876 205.177 17.7876C207.295 17.7876 209.043 18.1324 210.42 18.8221C211.832 19.4789 212.997 20.5626 213.915 22.0733L214.656 18.428H221.117L215.663 45.7189H209.202L209.89 42.1721ZM194.267 34.0439C194.267 35.9487 194.902 37.4758 196.173 38.6252C197.48 39.7747 199.263 40.3494 201.522 40.3494C203.005 40.3494 204.382 40.0867 205.653 39.5612C206.924 39.0029 208.019 38.2804 208.937 37.3937C209.855 36.4741 210.578 35.4068 211.108 34.1917C211.638 32.9766 211.902 31.6958 211.902 30.3493C211.902 28.3788 211.232 26.8024 209.89 25.6202C208.584 24.405 206.818 23.7975 204.594 23.7975C203.146 23.7975 201.787 24.0931 200.516 24.6842C199.28 25.2425 198.186 25.9978 197.233 26.9502C196.315 27.9026 195.591 29.0028 195.061 30.2508C194.532 31.4659 194.267 32.7303 194.267 34.0439Z" stroke="white" stroke-width="1.36056" mask="url(#path-1-outside-1_1030_9311)"/>
<path d="M226.837 18.428H233.351L232.821 21.0388C234.375 19.8566 235.822 19.0191 237.164 18.5265C238.506 18.0339 240.024 17.7876 241.718 17.7876C244.508 17.7876 246.75 18.4444 248.444 19.758C250.174 21.0717 251.039 23.0421 251.039 25.6694C251.039 27.0488 250.81 28.855 250.351 31.0882L247.438 45.7189H240.394L243.042 32.369C243.395 30.6284 243.572 29.1998 243.572 28.0832C243.572 26.7039 243.219 25.653 242.513 24.9305C241.842 24.1752 240.712 23.7975 239.123 23.7975C237.676 23.7975 236.475 24.0602 235.522 24.5857C234.569 25.1111 233.792 25.8172 233.192 26.7039C232.592 27.5578 232.115 28.5266 231.762 29.6104C231.444 30.6941 231.179 31.7779 230.968 32.8616L228.426 45.7189H221.382L226.837 18.428Z" stroke="white" stroke-width="1.36056" mask="url(#path-1-outside-1_1030_9311)"/>
<path fill-rule="evenodd" clip-rule="evenodd" d="M66.9314 3.53418H52.5055L39.1932 20.9384C42.9644 22.1951 46.5825 23.7866 50.0122 25.6777L66.9314 3.53418Z" fill="white"/>
<path fill-rule="evenodd" clip-rule="evenodd" d="M38.4646 3.53418H25.7145L22.9096 18.3309C27.212 18.4802 31.4086 19.046 35.4602 19.9891L38.4646 3.53418Z" fill="white"/>
<path fill-rule="evenodd" clip-rule="evenodd" d="M51.5833 46.8015H69.1611C57.2271 31.3456 38.5122 21.3907 17.4716 21.3907C12.7839 21.3907 8.21164 21.8848 3.8041 22.8238C23.0682 23.6427 40.1706 32.8109 51.5833 46.8015Z" fill="#0FCBFF"/>
<mask id="mask0_1030_9311" style="mask-type:alpha" maskUnits="userSpaceOnUse" x="15" y="26" width="22" height="21">
<rect x="15.1088" y="26.8848" width="21.2954" height="19.9168" fill="#D9D9D9"/>
</mask>
<g mask="url(#mask0_1030_9311)">
<mask id="mask1_1030_9311" style="mask-type:alpha" maskUnits="userSpaceOnUse" x="-69" y="24" width="131" height="132">
<path d="M61.463 95.643C58.4635 131.552 26.9153 158.23 -9.00184 155.232C-44.919 152.233 -71.6041 120.692 -68.6046 84.7835C-65.6051 48.8748 -34.0569 22.196 1.86022 25.1948C37.7774 28.1936 64.4624 59.7343 61.463 95.643Z" fill="black"/>
</mask>
<g mask="url(#mask1_1030_9311)">
<path d="M25.7165 3.53406H38.4666L30.5667 46.8016H17.5147L25.7165 3.53406Z" fill="white"/>
</g>
</g>
<path d="M67.5513 77.2651V67.7326H63.8688V66.4651H72.5688V67.7326H68.8863V77.2651H67.5513ZM76.0117 77.4901C75.2067 77.4901 74.5117 77.3076 73.9267 76.9426C73.3467 76.5776 72.8992 76.0726 72.5842 75.4276C72.2692 74.7826 72.1117 74.0426 72.1117 73.2076C72.1117 72.3576 72.2717 71.6126 72.5917 70.9726C72.9117 70.3326 73.3642 69.8351 73.9492 69.4801C74.5342 69.1201 75.2217 68.9401 76.0117 68.9401C76.8217 68.9401 77.5192 69.1226 78.1042 69.4876C78.6892 69.8476 79.1367 70.3501 79.4467 70.9951C79.7617 71.6351 79.9192 72.3726 79.9192 73.2076C79.9192 74.0526 79.7617 74.7976 79.4467 75.4426C79.1317 76.0826 78.6817 76.5851 78.0967 76.9501C77.5117 77.3101 76.8167 77.4901 76.0117 77.4901ZM76.0117 76.2226C76.8517 76.2226 77.4767 75.9426 77.8867 75.3826C78.2967 74.8226 78.5017 74.0976 78.5017 73.2076C78.5017 72.2926 78.2942 71.5651 77.8792 71.0251C77.4642 70.4801 76.8417 70.2076 76.0117 70.2076C75.4467 70.2076 74.9817 70.3351 74.6167 70.5901C74.2517 70.8451 73.9792 71.1976 73.7992 71.6476C73.6192 72.0976 73.5292 72.6176 73.5292 73.2076C73.5292 74.1176 73.7392 74.8476 74.1592 75.3976C74.5792 75.9476 75.1967 76.2226 76.0117 76.2226ZM85.2905 77.4901C84.5305 77.4901 83.8905 77.3026 83.3705 76.9276C82.8505 76.5476 82.4555 76.0351 82.1855 75.3901C81.9205 74.7401 81.788 74.0126 81.788 73.2076C81.788 72.3926 81.9205 71.6626 82.1855 71.0176C82.4555 70.3726 82.8505 69.8651 83.3705 69.4951C83.8955 69.1251 84.538 68.9401 85.298 68.9401C86.048 68.9401 86.693 69.1276 87.233 69.5026C87.778 69.8726 88.1955 70.3801 88.4855 71.0251C88.7755 71.6701 88.9205 72.3976 88.9205 73.2076C88.9205 74.0176 88.7755 74.7451 88.4855 75.3901C88.1955 76.0351 87.778 76.5476 87.233 76.9276C86.693 77.3026 86.0455 77.4901 85.2905 77.4901ZM81.563 80.8651V69.1651H82.7555V75.1276H82.9055V80.8651H81.563ZM85.1255 76.2676C85.6605 76.2676 86.103 76.1326 86.453 75.8626C86.803 75.5926 87.0655 75.2276 87.2405 74.7676C87.4155 74.3026 87.503 73.7826 87.503 73.2076C87.503 72.6376 87.4155 72.1226 87.2405 71.6626C87.0705 71.2026 86.8055 70.8376 86.4455 70.5676C86.0905 70.2976 85.638 70.1626 85.088 70.1626C84.563 70.1626 84.128 70.2926 83.783 70.5526C83.438 70.8076 83.1805 71.1651 83.0105 71.6251C82.8405 72.0801 82.7555 72.6076 82.7555 73.2076C82.7555 73.7976 82.838 74.3251 83.003 74.7901C83.173 75.2501 83.433 75.6126 83.783 75.8776C84.133 76.1376 84.5805 76.2676 85.1255 76.2676ZM90.5646 77.2651V69.1651H96.1896V70.4326H91.8996V77.2651H90.5646ZM100.914 77.4901C100.109 77.4901 99.4141 77.3076 98.8291 76.9426C98.2491 76.5776 97.8016 76.0726 97.4866 75.4276C97.1716 74.7826 97.0141 74.0426 97.0141 73.2076C97.0141 72.3576 97.1741 71.6126 97.4941 70.9726C97.8141 70.3326 98.2666 69.8351 98.8516 69.4801C99.4366 69.1201 100.124 68.9401 100.914 68.9401C101.724 68.9401 102.422 69.1226 103.007 69.4876C103.592 69.8476 104.039 70.3501 104.349 70.9951C104.664 71.6351 104.822 72.3726 104.822 73.2076C104.822 74.0526 104.664 74.7976 104.349 75.4426C104.034 76.0826 103.584 76.5851 102.999 76.9501C102.414 77.3101 101.719 77.4901 100.914 77.4901ZM100.914 76.2226C101.754 76.2226 102.379 75.9426 102.789 75.3826C103.199 74.8226 103.404 74.0976 103.404 73.2076C103.404 72.2926 103.197 71.5651 102.782 71.0251C102.367 70.4801 101.744 70.2076 100.914 70.2076C100.349 70.2076 99.8841 70.3351 99.5191 70.5901C99.1541 70.8451 98.8816 71.1976 98.7016 71.6476C98.5216 72.0976 98.4316 72.6176 98.4316 73.2076C98.4316 74.1176 98.6416 74.8476 99.0616 75.3976C99.4816 75.9476 100.099 76.2226 100.914 76.2226ZM106.465 77.2651V69.1651H109.915C110.12 69.1651 110.34 69.1776 110.575 69.2026C110.815 69.2226 111.033 69.2601 111.228 69.3151C111.663 69.4301 112.02 69.6676 112.3 70.0276C112.585 70.3826 112.728 70.8326 112.728 71.3776C112.728 71.6826 112.68 71.9476 112.585 72.1726C112.495 72.3976 112.365 72.5926 112.195 72.7576C112.12 72.8326 112.038 72.9001 111.948 72.9601C111.858 73.0201 111.768 73.0676 111.678 73.1026C111.853 73.1326 112.03 73.2001 112.21 73.3051C112.495 73.4601 112.718 73.6776 112.878 73.9576C113.043 74.2376 113.125 74.5951 113.125 75.0301C113.125 75.5801 112.993 76.0351 112.728 76.3951C112.463 76.7501 112.098 76.9951 111.633 77.1301C111.438 77.1851 111.223 77.2226 110.988 77.2426C110.753 77.2576 110.525 77.2651 110.305 77.2651H106.465ZM107.815 76.1776H110.23C110.335 76.1776 110.46 76.1676 110.605 76.1476C110.755 76.1276 110.888 76.1026 111.003 76.0726C111.263 75.9976 111.45 75.8576 111.565 75.6526C111.685 75.4476 111.745 75.2251 111.745 74.9851C111.745 74.6651 111.655 74.4051 111.475 74.2051C111.3 74.0051 111.068 73.8801 110.778 73.8301C110.673 73.8001 110.558 73.7826 110.433 73.7776C110.313 73.7726 110.205 73.7701 110.11 73.7701H107.815V76.1776ZM107.815 72.6676H109.825C109.965 72.6676 110.113 72.6601 110.268 72.6451C110.423 72.6251 110.558 72.5926 110.673 72.5476C110.903 72.4626 111.07 72.3226 111.175 72.1276C111.285 71.9276 111.34 71.7101 111.34 71.4751C111.34 71.2151 111.28 70.9876 111.16 70.7926C111.045 70.5926 110.868 70.4551 110.628 70.3801C110.468 70.3201 110.288 70.2876 110.088 70.2826C109.893 70.2726 109.768 70.2676 109.713 70.2676H107.815V72.6676ZM116.935 77.4901C116.33 77.4901 115.822 77.3801 115.412 77.1601C115.007 76.9351 114.7 76.6401 114.49 76.2751C114.285 75.9101 114.182 75.5101 114.182 75.0751C114.182 74.6501 114.262 74.2826 114.422 73.9726C114.587 73.6576 114.817 73.3976 115.112 73.1926C115.407 72.9826 115.76 72.8176 116.17 72.6976C116.555 72.5926 116.985 72.5026 117.46 72.4276C117.94 72.3476 118.425 72.2751 118.915 72.2101C119.405 72.1451 119.862 72.0826 120.287 72.0226L119.807 72.3001C119.822 71.5801 119.677 71.0476 119.372 70.7026C119.072 70.3576 118.552 70.1851 117.812 70.1851C117.322 70.1851 116.892 70.2976 116.522 70.5226C116.157 70.7426 115.9 71.1026 115.75 71.6026L114.482 71.2201C114.677 70.5101 115.055 69.9526 115.615 69.5476C116.175 69.1426 116.912 68.9401 117.827 68.9401C118.562 68.9401 119.192 69.0726 119.717 69.3376C120.247 69.5976 120.627 69.9926 120.857 70.5226C120.972 70.7726 121.045 71.0451 121.075 71.3401C121.105 71.6301 121.12 71.9351 121.12 72.2551V77.2651H119.935V75.3226L120.212 75.5026C119.907 76.1576 119.48 76.6526 118.93 76.9876C118.385 77.3226 117.72 77.4901 116.935 77.4901ZM117.137 76.3726C117.617 76.3726 118.032 76.2876 118.382 76.1176C118.737 75.9426 119.022 75.7151 119.237 75.4351C119.452 75.1501 119.592 74.8401 119.657 74.5051C119.732 74.2551 119.772 73.9776 119.777 73.6726C119.787 73.3626 119.792 73.1251 119.792 72.9601L120.257 73.1626C119.822 73.2226 119.395 73.2801 118.975 73.3351C118.555 73.3901 118.157 73.4501 117.782 73.5151C117.407 73.5751 117.07 73.6476 116.77 73.7326C116.55 73.8026 116.342 73.8926 116.147 74.0026C115.957 74.1126 115.802 74.2551 115.682 74.4301C115.567 74.6001 115.51 74.8126 115.51 75.0676C115.51 75.2876 115.565 75.4976 115.675 75.6976C115.79 75.8976 115.965 76.0601 116.2 76.1851C116.44 76.3101 116.752 76.3726 117.137 76.3726ZM128.072 77.2651V74.3326H126.325C126.12 74.3326 125.892 74.3251 125.642 74.3101C125.397 74.2901 125.167 74.2626 124.952 74.2276C124.367 74.1176 123.872 73.8601 123.467 73.4551C123.067 73.0501 122.867 72.4901 122.867 71.7751C122.867 71.0801 123.055 70.5226 123.43 70.1026C123.81 69.6776 124.277 69.4026 124.832 69.2776C125.082 69.2176 125.335 69.1851 125.59 69.1801C125.85 69.1701 126.07 69.1651 126.25 69.1651H129.407L129.415 77.2651H128.072ZM122.62 77.2651L124.772 73.9651H126.212L124.06 77.2651H122.62ZM126.227 73.2301H128.072V70.2676H126.227C126.112 70.2676 125.96 70.2726 125.77 70.2826C125.585 70.2926 125.407 70.3226 125.237 70.3726C125.077 70.4176 124.92 70.5001 124.765 70.6201C124.615 70.7401 124.49 70.8951 124.39 71.0851C124.29 71.2751 124.24 71.5001 124.24 71.7601C124.24 72.1351 124.345 72.4401 124.555 72.6751C124.765 72.9051 125.02 73.0601 125.32 73.1401C125.485 73.1801 125.647 73.2051 125.807 73.2151C125.972 73.2251 126.112 73.2301 126.227 73.2301ZM134.517 77.2651V69.1651H141.155V77.2651H139.82V70.4326H135.852V77.2651H134.517ZM142.505 77.2651V76.1176C142.805 76.1726 143.033 76.1626 143.188 76.0876C143.348 76.0076 143.465 75.8701 143.54 75.6751C143.62 75.4751 143.685 75.2251 143.735 74.9251C143.82 74.4501 143.893 73.9201 143.953 73.3351C144.018 72.7501 144.075 72.1101 144.125 71.4151C144.18 70.7151 144.23 69.9651 144.275 69.1651H149.938V77.2651H148.603V70.4326H145.49C145.46 70.8926 145.423 71.3651 145.378 71.8501C145.338 72.3351 145.295 72.8076 145.25 73.2676C145.205 73.7226 145.155 74.1476 145.1 74.5426C145.05 74.9326 144.995 75.2701 144.935 75.5551C144.84 76.0451 144.708 76.4376 144.538 76.7326C144.368 77.0226 144.123 77.2101 143.803 77.2951C143.483 77.3851 143.05 77.3751 142.505 77.2651ZM155.494 77.4901C154.689 77.4901 153.994 77.3076 153.409 76.9426C152.829 76.5776 152.382 76.0726 152.067 75.4276C151.752 74.7826 151.594 74.0426 151.594 73.2076C151.594 72.3576 151.754 71.6126 152.074 70.9726C152.394 70.3326 152.847 69.8351 153.432 69.4801C154.017 69.1201 154.704 68.9401 155.494 68.9401C156.304 68.9401 157.002 69.1226 157.587 69.4876C158.172 69.8476 158.619 70.3501 158.929 70.9951C159.244 71.6351 159.402 72.3726 159.402 73.2076C159.402 74.0526 159.244 74.7976 158.929 75.4426C158.614 76.0826 158.164 76.5851 157.579 76.9501C156.994 77.3101 156.299 77.4901 155.494 77.4901ZM155.494 76.2226C156.334 76.2226 156.959 75.9426 157.369 75.3826C157.779 74.8226 157.984 74.0976 157.984 73.2076C157.984 72.2926 157.777 71.5651 157.362 71.0251C156.947 70.4801 156.324 70.2076 155.494 70.2076C154.929 70.2076 154.464 70.3351 154.099 70.5901C153.734 70.8451 153.462 71.1976 153.282 71.6476C153.102 72.0976 153.012 72.6176 153.012 73.2076C153.012 74.1176 153.222 74.8476 153.642 75.3976C154.062 75.9476 154.679 76.2226 155.494 76.2226ZM170.113 78.7651V77.2651H161.045V69.1651H162.335V76.0501H165.125V69.1651H166.415V76.0501H169.198V69.1651H170.488V76.0501H171.448V78.7651H170.113ZM174.957 77.4901C174.352 77.4901 173.844 77.3801 173.434 77.1601C173.029 76.9351 172.722 76.6401 172.512 76.2751C172.307 75.9101 172.204 75.5101 172.204 75.0751C172.204 74.6501 172.284 74.2826 172.444 73.9726C172.609 73.6576 172.839 73.3976 173.134 73.1926C173.429 72.9826 173.782 72.8176 174.192 72.6976C174.577 72.5926 175.007 72.5026 175.482 72.4276C175.962 72.3476 176.447 72.2751 176.937 72.2101C177.427 72.1451 177.884 72.0826 178.309 72.0226L177.829 72.3001C177.844 71.5801 177.699 71.0476 177.394 70.7026C177.094 70.3576 176.574 70.1851 175.834 70.1851C175.344 70.1851 174.914 70.2976 174.544 70.5226C174.179 70.7426 173.922 71.1026 173.772 71.6026L172.504 71.2201C172.699 70.5101 173.077 69.9526 173.637 69.5476C174.197 69.1426 174.934 68.9401 175.849 68.9401C176.584 68.9401 177.214 69.0726 177.739 69.3376C178.269 69.5976 178.649 69.9926 178.879 70.5226C178.994 70.7726 179.067 71.0451 179.097 71.3401C179.127 71.6301 179.142 71.9351 179.142 72.2551V77.2651H177.957V75.3226L178.234 75.5026C177.929 76.1576 177.502 76.6526 176.952 76.9876C176.407 77.3226 175.742 77.4901 174.957 77.4901ZM175.159 76.3726C175.639 76.3726 176.054 76.2876 176.404 76.1176C176.759 75.9426 177.044 75.7151 177.259 75.4351C177.474 75.1501 177.614 74.8401 177.679 74.5051C177.754 74.2551 177.794 73.9776 177.799 73.6726C177.809 73.3626 177.814 73.1251 177.814 72.9601L178.279 73.1626C177.844 73.2226 177.417 73.2801 176.997 73.3351C176.577 73.3901 176.179 73.4501 175.804 73.5151C175.429 73.5751 175.092 73.6476 174.792 73.7326C174.572 73.8026 174.364 73.8926 174.169 74.0026C173.979 74.1126 173.824 74.2551 173.704 74.4301C173.589 74.6001 173.532 74.8126 173.532 75.0676C173.532 75.2876 173.587 75.4976 173.697 75.6976C173.812 75.8976 173.987 76.0601 174.222 76.1851C174.462 76.3101 174.774 76.3726 175.159 76.3726ZM180.492 79.0651V76.1626C180.947 76.1626 181.272 76.0151 181.467 75.7201C181.662 75.4201 181.819 74.9276 181.939 74.2426C182.019 73.8126 182.084 73.3526 182.134 72.8626C182.184 72.3726 182.227 71.8276 182.262 71.2276C182.302 70.6226 182.339 69.9351 182.374 69.1651H187.954V76.1626H188.742V79.0651H187.467V77.2651H181.767V79.0651H180.492ZM182.547 76.1626H186.619V70.2676H183.582C183.567 70.6226 183.547 70.9951 183.522 71.3851C183.497 71.7701 183.467 72.1551 183.432 72.5401C183.402 72.9251 183.364 73.2901 183.319 73.6351C183.279 73.9751 183.232 74.2801 183.177 74.5501C183.112 74.9251 183.037 75.2426 182.952 75.5026C182.867 75.7626 182.732 75.9826 182.547 76.1626ZM190.24 77.2651L190.247 69.1651H191.597V73.0651L194.995 69.1651H196.727L193.15 73.2151L197.147 77.2651H195.28L191.597 73.3651V77.2651H190.24ZM200.196 77.4901C199.591 77.4901 199.084 77.3801 198.674 77.1601C198.269 76.9351 197.961 76.6401 197.751 76.2751C197.546 75.9101 197.444 75.5101 197.444 75.0751C197.444 74.6501 197.524 74.2826 197.684 73.9726C197.849 73.6576 198.079 73.3976 198.374 73.1926C198.669 72.9826 199.021 72.8176 199.431 72.6976C199.816 72.5926 200.246 72.5026 200.721 72.4276C201.201 72.3476 201.686 72.2751 202.176 72.2101C202.666 72.1451 203.124 72.0826 203.549 72.0226L203.069 72.3001C203.084 71.5801 202.939 71.0476 202.634 70.7026C202.334 70.3576 201.814 70.1851 201.074 70.1851C200.584 70.1851 200.154 70.2976 199.784 70.5226C199.419 70.7426 199.161 71.1026 199.011 71.6026L197.744 71.2201C197.939 70.5101 198.316 69.9526 198.876 69.5476C199.436 69.1426 200.174 68.9401 201.089 68.9401C201.824 68.9401 202.454 69.0726 202.979 69.3376C203.509 69.5976 203.889 69.9926 204.119 70.5226C204.234 70.7726 204.306 71.0451 204.336 71.3401C204.366 71.6301 204.381 71.9351 204.381 72.2551V77.2651H203.196V75.3226L203.474 75.5026C203.169 76.1576 202.741 76.6526 202.191 76.9876C201.646 77.3226 200.981 77.4901 200.196 77.4901ZM200.399 76.3726C200.879 76.3726 201.294 76.2876 201.644 76.1176C201.999 75.9426 202.284 75.7151 202.499 75.4351C202.714 75.1501 202.854 74.8401 202.919 74.5051C202.994 74.2551 203.034 73.9776 203.039 73.6726C203.049 73.3626 203.054 73.1251 203.054 72.9601L203.519 73.1626C203.084 73.2226 202.656 73.2801 202.236 73.3351C201.816 73.3901 201.419 73.4501 201.044 73.5151C200.669 73.5751 200.331 73.6476 200.031 73.7326C199.811 73.8026 199.604 73.8926 199.409 74.0026C199.219 74.1126 199.064 74.2551 198.944 74.4301C198.829 74.6001 198.771 74.8126 198.771 75.0676C198.771 75.2876 198.826 75.4976 198.936 75.6976C199.051 75.8976 199.226 76.0601 199.461 76.1851C199.701 76.3101 200.014 76.3726 200.399 76.3726Z" fill="white"/>
</svg>
