<svg width="949" height="191" viewBox="0 0 949 191" fill="none" xmlns="http://www.w3.org/2000/svg">
<mask id="path-1-outside-1_3086_501" maskUnits="userSpaceOnUse" x="253.018" y="64.1274" width="695" height="115" fill="black">
<rect fill="white" x="253.018" y="64.1274" width="695" height="115"/>
<path d="M342.645 159.671C336.213 165.404 329.916 169.517 323.752 172.01C317.588 174.378 310.553 175.562 302.648 175.562C295.546 175.562 289.114 174.565 283.352 172.571C277.591 170.452 272.7 167.523 268.68 163.784C264.66 160.045 261.511 155.62 259.233 150.51C257.09 145.275 256.018 139.48 256.018 133.123C256.018 124.399 257.76 116.048 261.243 108.071C264.861 100.094 269.752 93.1144 275.916 87.1318C282.214 81.0246 289.516 76.1637 297.824 72.5492C306.132 68.9347 315.109 67.1274 324.757 67.1274C332.797 67.1274 339.429 68.4361 344.655 71.0535C350.015 73.5463 354.437 77.6593 357.921 83.3927L360.734 69.5579H385.255L364.553 173.132H340.032L342.645 159.671ZM283.352 128.823C283.352 136.052 285.764 141.848 290.588 146.21C295.546 150.572 302.313 152.754 310.888 152.754C316.516 152.754 321.742 151.757 326.566 149.762C331.39 147.644 335.543 144.901 339.027 141.536C342.511 138.046 345.258 133.996 347.268 129.384C349.278 124.772 350.283 119.912 350.283 114.801C350.283 107.323 347.737 101.341 342.645 96.8536C337.687 92.242 330.988 89.9362 322.546 89.9362C317.052 89.9362 311.893 91.0579 307.07 93.3014C302.38 95.4202 298.226 98.2869 294.608 101.901C291.124 105.516 288.377 109.691 286.367 114.428C284.357 119.039 283.352 123.838 283.352 128.823Z"/>
<path d="M406.961 69.5579H431.482L429.472 79.6536C431.75 77.1608 433.827 75.1043 435.703 73.484C437.713 71.8637 439.79 70.6173 441.934 69.7448C444.077 68.7477 446.422 68.0622 448.968 67.6883C451.514 67.3144 454.529 67.1274 458.013 67.1274L453.189 91.0579C437.244 91.0579 427.663 99.2217 424.447 115.549L412.991 173.132H386.259L406.961 69.5579Z"/>
<path d="M543.048 159.671C536.617 165.404 530.319 169.517 524.155 172.01C517.991 174.378 510.957 175.562 503.051 175.562C495.949 175.562 489.517 174.565 483.756 172.571C477.994 170.452 473.103 167.523 469.083 163.784C465.063 160.045 461.914 155.62 459.637 150.51C457.493 145.275 456.421 139.48 456.421 133.123C456.421 124.399 458.163 116.048 461.646 108.071C465.264 100.094 470.155 93.1144 476.319 87.1318C482.617 81.0246 489.919 76.1637 498.227 72.5492C506.535 68.9347 515.512 67.1274 525.16 67.1274C533.2 67.1274 539.832 68.4361 545.058 71.0535C550.418 73.5463 554.84 77.6593 558.324 83.3927L561.138 69.5579H585.659L564.956 173.132H540.435L543.048 159.671ZM483.756 128.823C483.756 136.052 486.168 141.848 490.991 146.21C495.949 150.572 502.716 152.754 511.292 152.754C516.919 152.754 522.145 151.757 526.969 149.762C531.793 147.644 535.947 144.901 539.43 141.536C542.914 138.046 545.661 133.996 547.671 129.384C549.681 124.772 550.686 119.912 550.686 114.801C550.686 107.323 548.14 101.341 543.048 96.8536C538.09 92.242 531.391 89.9362 522.949 89.9362C517.455 89.9362 512.296 91.0579 507.473 93.3014C502.783 95.4202 498.629 98.2869 495.011 101.901C491.527 105.516 488.78 109.691 486.771 114.428C484.761 119.039 483.756 123.838 483.756 128.823Z"/>
<path d="M597.114 69.5579H626.86L638.92 138.171L677.912 69.5579H708.061L642.538 173.132H621.233L597.114 69.5579Z"/>
<path d="M789.185 159.671C782.753 165.404 776.455 169.517 770.292 172.01C764.128 174.378 757.093 175.562 749.188 175.562C742.086 175.562 735.654 174.565 729.892 172.571C724.13 170.452 719.24 167.523 715.22 163.784C711.2 160.045 708.051 155.62 705.773 150.51C703.629 145.275 702.557 139.48 702.557 133.123C702.557 124.399 704.299 116.048 707.783 108.071C711.401 100.094 716.292 93.1144 722.456 87.1318C728.753 81.0246 736.056 76.1637 744.364 72.5492C752.671 68.9347 761.649 67.1274 771.297 67.1274C779.336 67.1274 785.969 68.4361 791.195 71.0535C796.555 73.5463 800.976 77.6593 804.46 83.3927L807.274 69.5579H831.795L811.093 173.132H786.572L789.185 159.671ZM729.892 128.823C729.892 136.052 732.304 141.848 737.128 146.21C742.086 150.572 748.852 152.754 757.428 152.754C763.056 152.754 768.282 151.757 773.106 149.762C777.929 147.644 782.083 144.901 785.567 141.536C789.051 138.046 791.798 133.996 793.808 129.384C795.818 124.772 796.823 119.912 796.823 114.801C796.823 107.323 794.277 101.341 789.185 96.8536C784.227 92.242 777.527 89.9362 769.086 89.9362C763.592 89.9362 758.433 91.0579 753.609 93.3014C748.919 95.4202 744.766 98.2869 741.148 101.901C737.664 105.516 734.917 109.691 732.907 114.428C730.897 119.039 729.892 123.838 729.892 128.823Z"/>
<path d="M853.501 69.5579H878.223L876.213 79.4666C882.109 74.9796 887.602 71.8014 892.694 69.9318C897.786 68.0622 903.548 67.1274 909.979 67.1274C920.565 67.1274 929.074 69.6202 935.505 74.6057C942.071 79.5912 945.354 87.0695 945.354 97.0405C945.354 102.275 944.483 109.13 942.741 117.606L931.687 173.132H904.955L915.004 122.467C916.344 115.861 917.014 110.439 917.014 106.201C917.014 100.967 915.674 96.9782 912.994 94.2362C910.448 91.3695 906.161 89.9362 900.131 89.9362C894.637 89.9362 890.081 90.9333 886.463 92.9275C882.846 94.9217 879.898 97.6014 877.62 100.967C875.342 104.207 873.533 107.884 872.193 111.997C870.987 116.11 869.982 120.223 869.178 124.336L859.53 173.132H832.799L853.501 69.5579Z"/>
</mask>
<path d="M342.645 159.671C336.213 165.404 329.916 169.517 323.752 172.01C317.588 174.378 310.553 175.562 302.648 175.562C295.546 175.562 289.114 174.565 283.352 172.571C277.591 170.452 272.7 167.523 268.68 163.784C264.66 160.045 261.511 155.62 259.233 150.51C257.09 145.275 256.018 139.48 256.018 133.123C256.018 124.399 257.76 116.048 261.243 108.071C264.861 100.094 269.752 93.1144 275.916 87.1318C282.214 81.0246 289.516 76.1637 297.824 72.5492C306.132 68.9347 315.109 67.1274 324.757 67.1274C332.797 67.1274 339.429 68.4361 344.655 71.0535C350.015 73.5463 354.437 77.6593 357.921 83.3927L360.734 69.5579H385.255L364.553 173.132H340.032L342.645 159.671ZM283.352 128.823C283.352 136.052 285.764 141.848 290.588 146.21C295.546 150.572 302.313 152.754 310.888 152.754C316.516 152.754 321.742 151.757 326.566 149.762C331.39 147.644 335.543 144.901 339.027 141.536C342.511 138.046 345.258 133.996 347.268 129.384C349.278 124.772 350.283 119.912 350.283 114.801C350.283 107.323 347.737 101.341 342.645 96.8536C337.687 92.242 330.988 89.9362 322.546 89.9362C317.052 89.9362 311.893 91.0579 307.07 93.3014C302.38 95.4202 298.226 98.2869 294.608 101.901C291.124 105.516 288.377 109.691 286.367 114.428C284.357 119.039 283.352 123.838 283.352 128.823Z" fill="#436CFB"/>
<path d="M406.961 69.5579H431.482L429.472 79.6536C431.75 77.1608 433.827 75.1043 435.703 73.484C437.713 71.8637 439.79 70.6173 441.934 69.7448C444.077 68.7477 446.422 68.0622 448.968 67.6883C451.514 67.3144 454.529 67.1274 458.013 67.1274L453.189 91.0579C437.244 91.0579 427.663 99.2217 424.447 115.549L412.991 173.132H386.259L406.961 69.5579Z" fill="#436CFB"/>
<path d="M543.048 159.671C536.617 165.404 530.319 169.517 524.155 172.01C517.991 174.378 510.957 175.562 503.051 175.562C495.949 175.562 489.517 174.565 483.756 172.571C477.994 170.452 473.103 167.523 469.083 163.784C465.063 160.045 461.914 155.62 459.637 150.51C457.493 145.275 456.421 139.48 456.421 133.123C456.421 124.399 458.163 116.048 461.646 108.071C465.264 100.094 470.155 93.1144 476.319 87.1318C482.617 81.0246 489.919 76.1637 498.227 72.5492C506.535 68.9347 515.512 67.1274 525.16 67.1274C533.2 67.1274 539.832 68.4361 545.058 71.0535C550.418 73.5463 554.84 77.6593 558.324 83.3927L561.138 69.5579H585.659L564.956 173.132H540.435L543.048 159.671ZM483.756 128.823C483.756 136.052 486.168 141.848 490.991 146.21C495.949 150.572 502.716 152.754 511.292 152.754C516.919 152.754 522.145 151.757 526.969 149.762C531.793 147.644 535.947 144.901 539.43 141.536C542.914 138.046 545.661 133.996 547.671 129.384C549.681 124.772 550.686 119.912 550.686 114.801C550.686 107.323 548.14 101.341 543.048 96.8536C538.09 92.242 531.391 89.9362 522.949 89.9362C517.455 89.9362 512.296 91.0579 507.473 93.3014C502.783 95.4202 498.629 98.2869 495.011 101.901C491.527 105.516 488.78 109.691 486.771 114.428C484.761 119.039 483.756 123.838 483.756 128.823Z" fill="#436CFB"/>
<path d="M597.114 69.5579H626.86L638.92 138.171L677.912 69.5579H708.061L642.538 173.132H621.233L597.114 69.5579Z" fill="#436CFB"/>
<path d="M789.185 159.671C782.753 165.404 776.455 169.517 770.292 172.01C764.128 174.378 757.093 175.562 749.188 175.562C742.086 175.562 735.654 174.565 729.892 172.571C724.13 170.452 719.24 167.523 715.22 163.784C711.2 160.045 708.051 155.62 705.773 150.51C703.629 145.275 702.557 139.48 702.557 133.123C702.557 124.399 704.299 116.048 707.783 108.071C711.401 100.094 716.292 93.1144 722.456 87.1318C728.753 81.0246 736.056 76.1637 744.364 72.5492C752.671 68.9347 761.649 67.1274 771.297 67.1274C779.336 67.1274 785.969 68.4361 791.195 71.0535C796.555 73.5463 800.976 77.6593 804.46 83.3927L807.274 69.5579H831.795L811.093 173.132H786.572L789.185 159.671ZM729.892 128.823C729.892 136.052 732.304 141.848 737.128 146.21C742.086 150.572 748.852 152.754 757.428 152.754C763.056 152.754 768.282 151.757 773.106 149.762C777.929 147.644 782.083 144.901 785.567 141.536C789.051 138.046 791.798 133.996 793.808 129.384C795.818 124.772 796.823 119.912 796.823 114.801C796.823 107.323 794.277 101.341 789.185 96.8536C784.227 92.242 777.527 89.9362 769.086 89.9362C763.592 89.9362 758.433 91.0579 753.609 93.3014C748.919 95.4202 744.766 98.2869 741.148 101.901C737.664 105.516 734.917 109.691 732.907 114.428C730.897 119.039 729.892 123.838 729.892 128.823Z" fill="#436CFB"/>
<path d="M853.501 69.5579H878.223L876.213 79.4666C882.109 74.9796 887.602 71.8014 892.694 69.9318C897.786 68.0622 903.548 67.1274 909.979 67.1274C920.565 67.1274 929.074 69.6202 935.505 74.6057C942.071 79.5912 945.354 87.0695 945.354 97.0405C945.354 102.275 944.483 109.13 942.741 117.606L931.687 173.132H904.955L915.004 122.467C916.344 115.861 917.014 110.439 917.014 106.201C917.014 100.967 915.674 96.9782 912.994 94.2362C910.448 91.3695 906.161 89.9362 900.131 89.9362C894.637 89.9362 890.081 90.9333 886.463 92.9275C882.846 94.9217 879.898 97.6014 877.62 100.967C875.342 104.207 873.533 107.884 872.193 111.997C870.987 116.11 869.982 120.223 869.178 124.336L859.53 173.132H832.799L853.501 69.5579Z" fill="#436CFB"/>
<path d="M342.645 159.671C336.213 165.404 329.916 169.517 323.752 172.01C317.588 174.378 310.553 175.562 302.648 175.562C295.546 175.562 289.114 174.565 283.352 172.571C277.591 170.452 272.7 167.523 268.68 163.784C264.66 160.045 261.511 155.62 259.233 150.51C257.09 145.275 256.018 139.48 256.018 133.123C256.018 124.399 257.76 116.048 261.243 108.071C264.861 100.094 269.752 93.1144 275.916 87.1318C282.214 81.0246 289.516 76.1637 297.824 72.5492C306.132 68.9347 315.109 67.1274 324.757 67.1274C332.797 67.1274 339.429 68.4361 344.655 71.0535C350.015 73.5463 354.437 77.6593 357.921 83.3927L360.734 69.5579H385.255L364.553 173.132H340.032L342.645 159.671ZM283.352 128.823C283.352 136.052 285.764 141.848 290.588 146.21C295.546 150.572 302.313 152.754 310.888 152.754C316.516 152.754 321.742 151.757 326.566 149.762C331.39 147.644 335.543 144.901 339.027 141.536C342.511 138.046 345.258 133.996 347.268 129.384C349.278 124.772 350.283 119.912 350.283 114.801C350.283 107.323 347.737 101.341 342.645 96.8536C337.687 92.242 330.988 89.9362 322.546 89.9362C317.052 89.9362 311.893 91.0579 307.07 93.3014C302.38 95.4202 298.226 98.2869 294.608 101.901C291.124 105.516 288.377 109.691 286.367 114.428C284.357 119.039 283.352 123.838 283.352 128.823Z" stroke="#436CFB" stroke-width="5.16357" mask="url(#path-1-outside-1_3086_501)"/>
<path d="M406.961 69.5579H431.482L429.472 79.6536C431.75 77.1608 433.827 75.1043 435.703 73.484C437.713 71.8637 439.79 70.6173 441.934 69.7448C444.077 68.7477 446.422 68.0622 448.968 67.6883C451.514 67.3144 454.529 67.1274 458.013 67.1274L453.189 91.0579C437.244 91.0579 427.663 99.2217 424.447 115.549L412.991 173.132H386.259L406.961 69.5579Z" stroke="#436CFB" stroke-width="5.16357" mask="url(#path-1-outside-1_3086_501)"/>
<path d="M543.048 159.671C536.617 165.404 530.319 169.517 524.155 172.01C517.991 174.378 510.957 175.562 503.051 175.562C495.949 175.562 489.517 174.565 483.756 172.571C477.994 170.452 473.103 167.523 469.083 163.784C465.063 160.045 461.914 155.62 459.637 150.51C457.493 145.275 456.421 139.48 456.421 133.123C456.421 124.399 458.163 116.048 461.646 108.071C465.264 100.094 470.155 93.1144 476.319 87.1318C482.617 81.0246 489.919 76.1637 498.227 72.5492C506.535 68.9347 515.512 67.1274 525.16 67.1274C533.2 67.1274 539.832 68.4361 545.058 71.0535C550.418 73.5463 554.84 77.6593 558.324 83.3927L561.138 69.5579H585.659L564.956 173.132H540.435L543.048 159.671ZM483.756 128.823C483.756 136.052 486.168 141.848 490.991 146.21C495.949 150.572 502.716 152.754 511.292 152.754C516.919 152.754 522.145 151.757 526.969 149.762C531.793 147.644 535.947 144.901 539.43 141.536C542.914 138.046 545.661 133.996 547.671 129.384C549.681 124.772 550.686 119.912 550.686 114.801C550.686 107.323 548.14 101.341 543.048 96.8536C538.09 92.242 531.391 89.9362 522.949 89.9362C517.455 89.9362 512.296 91.0579 507.473 93.3014C502.783 95.4202 498.629 98.2869 495.011 101.901C491.527 105.516 488.78 109.691 486.771 114.428C484.761 119.039 483.756 123.838 483.756 128.823Z" stroke="#436CFB" stroke-width="5.16357" mask="url(#path-1-outside-1_3086_501)"/>
<path d="M597.114 69.5579H626.86L638.92 138.171L677.912 69.5579H708.061L642.538 173.132H621.233L597.114 69.5579Z" stroke="#436CFB" stroke-width="5.16357" mask="url(#path-1-outside-1_3086_501)"/>
<path d="M789.185 159.671C782.753 165.404 776.455 169.517 770.292 172.01C764.128 174.378 757.093 175.562 749.188 175.562C742.086 175.562 735.654 174.565 729.892 172.571C724.13 170.452 719.24 167.523 715.22 163.784C711.2 160.045 708.051 155.62 705.773 150.51C703.629 145.275 702.557 139.48 702.557 133.123C702.557 124.399 704.299 116.048 707.783 108.071C711.401 100.094 716.292 93.1144 722.456 87.1318C728.753 81.0246 736.056 76.1637 744.364 72.5492C752.671 68.9347 761.649 67.1274 771.297 67.1274C779.336 67.1274 785.969 68.4361 791.195 71.0535C796.555 73.5463 800.976 77.6593 804.46 83.3927L807.274 69.5579H831.795L811.093 173.132H786.572L789.185 159.671ZM729.892 128.823C729.892 136.052 732.304 141.848 737.128 146.21C742.086 150.572 748.852 152.754 757.428 152.754C763.056 152.754 768.282 151.757 773.106 149.762C777.929 147.644 782.083 144.901 785.567 141.536C789.051 138.046 791.798 133.996 793.808 129.384C795.818 124.772 796.823 119.912 796.823 114.801C796.823 107.323 794.277 101.341 789.185 96.8536C784.227 92.242 777.527 89.9362 769.086 89.9362C763.592 89.9362 758.433 91.0579 753.609 93.3014C748.919 95.4202 744.766 98.2869 741.148 101.901C737.664 105.516 734.917 109.691 732.907 114.428C730.897 119.039 729.892 123.838 729.892 128.823Z" stroke="#436CFB" stroke-width="5.16357" mask="url(#path-1-outside-1_3086_501)"/>
<path d="M853.501 69.5579H878.223L876.213 79.4666C882.109 74.9796 887.602 71.8014 892.694 69.9318C897.786 68.0622 903.548 67.1274 909.979 67.1274C920.565 67.1274 929.074 69.6202 935.505 74.6057C942.071 79.5912 945.354 87.0695 945.354 97.0405C945.354 102.275 944.483 109.13 942.741 117.606L931.687 173.132H904.955L915.004 122.467C916.344 115.861 917.014 110.439 917.014 106.201C917.014 100.967 915.674 96.9782 912.994 94.2362C910.448 91.3695 906.161 89.9362 900.131 89.9362C894.637 89.9362 890.081 90.9333 886.463 92.9275C882.846 94.9217 879.898 97.6014 877.62 100.967C875.342 104.207 873.533 107.884 872.193 111.997C870.987 116.11 869.982 120.223 869.178 124.336L859.53 173.132H832.799L853.501 69.5579Z" stroke="#436CFB" stroke-width="5.16357" mask="url(#path-1-outside-1_3086_501)"/>
<path fill-rule="evenodd" clip-rule="evenodd" d="M246.631 13.0332H191.882L141.36 79.0854C155.672 83.8549 169.404 89.8949 182.42 97.0716L246.631 13.0332Z" fill="#436CFB"/>
<path fill-rule="evenodd" clip-rule="evenodd" d="M138.595 13.0332H90.2055L79.5605 69.1893C95.889 69.7562 111.816 71.9034 127.192 75.4825L138.595 13.0332Z" fill="#436CFB"/>
<path fill-rule="evenodd" clip-rule="evenodd" d="M188.382 177.24H255.093C209.801 118.583 138.775 80.8018 58.9222 80.8018C41.1316 80.8018 23.7791 82.6771 7.05176 86.2407C80.1625 89.3487 145.069 124.144 188.382 177.24Z" fill="#0FCBFF"/>
<mask id="mask0_3086_501" style="mask-type:alpha" maskUnits="userSpaceOnUse" x="49" y="101" width="82" height="77">
<rect x="49.9551" y="101.653" width="80.82" height="75.5879" fill="#D9D9D9"/>
</mask>
<g mask="url(#mask0_3086_501)">
<mask id="mask1_3086_501" style="mask-type:alpha" maskUnits="userSpaceOnUse" x="-269" y="94" width="496" height="496">
<path d="M225.878 362.603C214.494 498.883 94.763 600.134 -41.5491 588.753C-177.861 577.372 -279.136 457.669 -267.752 321.389C-256.369 185.109 -136.638 83.8584 -0.325641 95.2393C135.986 106.62 237.261 226.323 225.878 362.603Z" fill="black"/>
</mask>
<g mask="url(#mask1_3086_501)">
<path d="M90.2132 13.0327H138.602L108.621 177.241H59.0859L90.2132 13.0327Z" fill="#436CFB"/>
</g>
</g>
</svg>
