<svg width="100" height="27" viewBox="0 0 100 27" fill="none" xmlns="http://www.w3.org/2000/svg">
<path d="M15.8336 12.554C15.8071 9.68394 18.2438 8.28764 18.3553 8.22264C16.9752 6.26088 14.8362 5.99284 14.0845 5.97147C12.288 5.78713 10.5454 7.01958 9.63023 7.01958C8.6968 7.01958 7.28754 5.98927 5.76867 6.01955C3.81415 6.04894 1.98566 7.15226 0.982829 8.86557C-1.08677 12.359 0.456752 17.4927 2.43959 20.3165C3.43146 21.6994 4.59048 23.2435 6.10752 23.1892C7.59168 23.1295 8.14607 22.2666 9.9371 22.2666C11.7117 22.2666 12.2323 23.1892 13.7795 23.1545C15.3723 23.1295 16.3752 21.7653 17.3323 20.3699C18.4786 18.7848 18.9389 17.2238 18.9571 17.1436C18.9197 17.1312 15.8637 15.994 15.8336 12.554Z" fill="white"/>
<path d="M12.9109 4.11389C13.7092 3.14058 14.2553 1.81641 14.1037 0.472656C12.9483 0.522524 11.5035 1.25184 10.6714 2.20378C9.93528 3.04263 9.27768 4.41755 9.44756 5.71055C10.7454 5.80494 12.0779 5.07206 12.9109 4.11389Z" fill="white"/>
<path d="M37.312 22.9913H35.2379L34.1017 19.5104H30.1524L29.0701 22.9913H27.0508L30.9635 11.1406H33.3801L37.312 22.9913ZM33.7592 18.05L32.7317 14.9555C32.623 14.6394 32.4193 13.8949 32.1188 12.723H32.0823C31.9627 13.2271 31.7699 13.9715 31.5051 14.9555L30.4959 18.05H33.7592Z" fill="white"/>
<path d="M47.3737 18.6135C47.3737 20.0667 46.9709 21.2155 46.1653 22.0588C45.4438 22.8095 44.5478 23.1844 43.4783 23.1844C42.3239 23.1844 41.4946 22.7801 40.9895 21.9715H40.953V26.473H39.0057V17.259C39.0057 16.3454 38.9811 15.4077 38.9336 14.4459H40.6461L40.7548 15.8004H40.7913C41.4407 14.7799 42.4262 14.2705 43.7487 14.2705C44.7826 14.2705 45.6456 14.6686 46.3361 15.4656C47.0284 16.2634 47.3737 17.3124 47.3737 18.6135ZM45.3899 18.6829C45.3899 17.8512 45.1981 17.1655 44.8127 16.6259C44.3916 16.0631 43.8263 15.7817 43.1176 15.7817C42.6371 15.7817 42.2006 15.9384 41.8106 16.2474C41.4197 16.5591 41.1639 16.966 41.0443 17.4701C40.984 17.7051 40.9539 17.8975 40.9539 18.0489V19.4737C40.9539 20.0952 41.1493 20.6197 41.5402 21.0481C41.9311 21.4764 42.4389 21.6901 43.0637 21.6901C43.7971 21.6901 44.3679 21.4141 44.7762 20.8637C45.1853 20.3125 45.3899 19.5859 45.3899 18.6829Z" fill="white"/>
<path d="M57.4587 18.6135C57.4587 20.0667 57.0559 21.2155 56.2494 22.0588C55.5288 22.8095 54.6328 23.1844 53.5633 23.1844C52.4089 23.1844 51.5796 22.7801 51.0754 21.9715H51.0389V26.473H49.0917V17.259C49.0917 16.3454 49.067 15.4077 49.0195 14.4459H50.732L50.8407 15.8004H50.8772C51.5257 14.7799 52.5112 14.2705 53.8346 14.2705C54.8676 14.2705 55.7307 14.6686 56.423 15.4656C57.1125 16.2634 57.4587 17.3124 57.4587 18.6135ZM55.4749 18.6829C55.4749 17.8512 55.2822 17.1655 54.8968 16.6259C54.4758 16.0631 53.9122 15.7817 53.2026 15.7817C52.7213 15.7817 52.2856 15.9384 51.8947 16.2474C51.5038 16.5591 51.249 16.966 51.1293 17.4701C51.07 17.7051 51.0389 17.8975 51.0389 18.0489V19.4737C51.0389 20.0952 51.2344 20.6197 51.6234 21.0481C52.0143 21.4755 52.5222 21.6901 53.1487 21.6901C53.8821 21.6901 54.4529 21.4141 54.8612 20.8637C55.2704 20.3125 55.4749 19.5859 55.4749 18.6829Z" fill="white"/>
<path d="M68.724 19.6678C68.724 20.6759 68.3651 21.496 67.6445 22.1292C66.8526 22.8211 65.7502 23.1666 64.3337 23.1666C63.0258 23.1666 61.9773 22.9208 61.1836 22.4284L61.6348 20.846C62.4897 21.35 63.4276 21.6029 64.4497 21.6029C65.1831 21.6029 65.7539 21.4408 66.164 21.1184C66.5722 20.7961 66.7759 20.3633 66.7759 19.8237C66.7759 19.3428 66.6079 18.9376 66.2708 18.609C65.9356 18.2804 65.3758 17.975 64.594 17.6927C62.4659 16.9189 61.4028 15.7853 61.4028 14.2946C61.4028 13.3204 61.7754 12.5216 62.5216 11.9C63.2651 11.2776 64.2569 10.9668 65.4972 10.9668C66.6033 10.9668 67.5221 11.1547 68.2555 11.5296L67.7687 13.0773C67.0837 12.714 66.3092 12.5323 65.4424 12.5323C64.7574 12.5323 64.2222 12.697 63.8386 13.0247C63.5144 13.3177 63.3518 13.6748 63.3518 14.0978C63.3518 14.5662 63.5372 14.9535 63.9099 15.2581C64.2341 15.5395 64.8232 15.844 65.6781 16.1726C66.7238 16.5832 67.492 17.0631 67.9861 17.6135C68.4784 18.162 68.724 18.8486 68.724 19.6678Z" fill="white"/>
<path d="M75.1617 15.8713H73.0154V20.0202C73.0154 21.0754 73.3935 21.6026 74.1516 21.6026C74.4995 21.6026 74.7882 21.5732 75.0165 21.5144L75.0704 22.9561C74.6868 23.0959 74.1817 23.1663 73.5561 23.1663C72.7871 23.1663 72.1861 22.9374 71.7523 22.4806C71.3203 22.0229 71.1029 21.2553 71.1029 20.1769V15.8696H69.8242V14.4448H71.1029V12.8802L73.0154 12.3174V14.4448H75.1617V15.8713Z" fill="white"/>
<path d="M84.8461 18.6483C84.8461 19.9618 84.4607 21.0401 83.6916 21.8834C82.8852 22.7517 81.8148 23.1845 80.4804 23.1845C79.1944 23.1845 78.1706 22.7686 77.407 21.9369C76.6435 21.1051 76.2617 20.0553 76.2617 18.7899C76.2617 17.4657 76.6544 16.3811 77.4427 15.5378C78.229 14.6936 79.2903 14.2715 80.6247 14.2715C81.9107 14.2715 82.9455 14.6873 83.7263 15.52C84.4735 16.3276 84.8461 17.3704 84.8461 18.6483ZM82.8258 18.7097C82.8258 17.9216 82.6532 17.2457 82.3034 16.6821C81.8951 15.9999 81.3115 15.6598 80.5553 15.6598C79.7725 15.6598 79.178 16.0008 78.7697 16.6821C78.4199 17.2466 78.2473 17.9332 78.2473 18.7453C78.2473 19.5334 78.4199 20.2093 78.7697 20.7721C79.1908 21.4542 79.7789 21.7944 80.5379 21.7944C81.2814 21.7944 81.865 21.4471 82.286 20.7543C82.645 20.1799 82.8258 19.4969 82.8258 18.7097Z" fill="white"/>
<path d="M91.1773 16.1156C90.9846 16.0809 90.7791 16.0631 90.5636 16.0631C89.8786 16.0631 89.3488 16.3151 88.9762 16.82C88.652 17.2652 88.4894 17.828 88.4894 18.5075V22.9911H86.5431L86.5613 17.137C86.5613 16.1521 86.5367 15.2554 86.4883 14.4468H88.1843L88.2556 16.0818H88.3095C88.515 15.5199 88.8392 15.0675 89.2831 14.7282C89.7169 14.4228 90.1855 14.2705 90.6905 14.2705C90.8704 14.2705 91.033 14.283 91.1773 14.3052V16.1156Z" fill="white"/>
<path d="M99.8865 18.3147C99.8865 18.6548 99.8637 18.9416 99.8153 19.1758H93.9736C93.9965 20.0199 94.2787 20.6656 94.8212 21.1108C95.3135 21.5089 95.9501 21.7083 96.7319 21.7083C97.5968 21.7083 98.3859 21.5739 99.0956 21.304L99.4006 22.622C98.5713 22.9746 97.5922 23.15 96.4624 23.15C95.1034 23.15 94.0367 22.76 93.2603 21.9808C92.4858 21.2016 92.0977 20.1553 92.0977 18.8427C92.0977 17.5542 92.4584 16.4811 93.1809 15.6254C93.9371 14.7117 94.9591 14.2549 96.2451 14.2549C97.5082 14.2549 98.4645 14.7117 99.1138 15.6254C99.628 16.3511 99.8865 17.2487 99.8865 18.3147ZM98.0297 17.8222C98.0425 17.2594 97.9156 16.7732 97.6516 16.3627C97.3146 15.8346 96.7967 15.571 96.0999 15.571C95.4633 15.571 94.9454 15.8284 94.5499 16.3449C94.2257 16.7554 94.033 17.2478 93.9736 17.8213H98.0297V17.8222Z" fill="white"/>
<path d="M70.49 5.15356H71.7109C72.0047 5.15356 72.2678 5.18416 72.5004 5.24536C72.7329 5.30656 72.9165 5.41365 73.0512 5.56665C73.1858 5.71964 73.2531 5.93383 73.2531 6.20922C73.2531 6.52745 73.146 6.79978 72.9318 7.02622C72.7238 7.24653 72.378 7.35668 71.8945 7.35668H70.49V6.71411H71.7109C71.9863 6.71411 72.1883 6.65597 72.3168 6.53969C72.4514 6.42342 72.5187 6.28266 72.5187 6.11743C72.5187 6.03175 72.5004 5.95525 72.4637 5.88794C72.4331 5.82062 72.3841 5.75942 72.3168 5.70434C72.2556 5.64926 72.173 5.60949 72.0689 5.58501C71.971 5.55441 71.8517 5.53911 71.7109 5.53911H70.49V5.15356ZM70.49 5.33716V4.90571H71.6191C71.7293 4.90571 71.8272 4.89347 71.9129 4.86899C72.0047 4.83839 72.0812 4.79555 72.1424 4.74048C72.2036 4.6854 72.2495 4.6242 72.2801 4.55688C72.3168 4.48345 72.3352 4.40695 72.3352 4.32739C72.3352 4.16216 72.2709 4.03058 72.1424 3.93266C72.0139 3.82863 71.8395 3.77661 71.6191 3.77661H70.49V3.13403H71.6191C71.8823 3.13403 72.121 3.17381 72.3352 3.25337C72.5555 3.32681 72.7329 3.4492 72.8676 3.62056C73.0022 3.78579 73.0695 4.0061 73.0695 4.28149C73.0695 4.52016 73.0022 4.71906 72.8676 4.87817C72.7329 5.03117 72.5555 5.14744 72.3352 5.227C72.121 5.30044 71.8823 5.33716 71.6191 5.33716H70.49ZM70.0586 3.13403H70.793V7.35668H70.0586V3.13403Z" fill="white"/>
<path d="M62.5893 5.42895V4.80473H65.4074C65.3829 4.58442 65.3217 4.39165 65.2238 4.22641C65.132 4.05506 65.0005 3.92349 64.8291 3.83169C64.6639 3.73377 64.4589 3.68481 64.2141 3.68481C63.9693 3.68481 63.7459 3.73683 63.5439 3.84087C63.342 3.9449 63.1798 4.09484 63.0574 4.29067C62.9411 4.48039 62.883 4.70682 62.883 4.96997L62.8646 5.24536C62.8646 5.56971 62.9197 5.8451 63.0299 6.07153C63.14 6.29796 63.2961 6.46932 63.498 6.58559C63.7 6.70187 63.9387 6.76001 64.2141 6.76001C64.4221 6.76001 64.6057 6.72941 64.7648 6.66821C64.9301 6.60089 65.0769 6.51215 65.2055 6.402C65.334 6.28572 65.4441 6.15109 65.5359 5.99809L66.1326 6.37446C65.9919 6.58865 65.8358 6.77836 65.6644 6.9436C65.4931 7.10271 65.285 7.22817 65.0402 7.31997C64.7954 7.40564 64.4894 7.44848 64.1223 7.44848C63.7428 7.44848 63.4001 7.35362 63.0941 7.16391C62.7943 6.9742 62.5556 6.71411 62.3781 6.38364C62.2068 6.04705 62.1211 5.66762 62.1211 5.24536C62.1211 5.1658 62.1242 5.0893 62.1303 5.01587C62.1364 4.94243 62.1456 4.86899 62.1578 4.79555C62.219 4.44673 62.3414 4.14074 62.525 3.87759C62.7086 3.61444 62.9442 3.40942 63.2318 3.26255C63.5256 3.11567 63.853 3.04224 64.2141 3.04224C64.6118 3.04224 64.9607 3.13097 65.2605 3.30845C65.5604 3.48592 65.793 3.73683 65.9582 4.06118C66.1234 4.37941 66.2061 4.7619 66.2061 5.20864C66.2061 5.24536 66.2061 5.28208 66.2061 5.3188C66.2061 5.35552 66.203 5.39223 66.1969 5.42895H62.5893Z" fill="white"/>
<path d="M59.3555 3.13403H61.834V3.82251H59.3555V3.13403ZM60.2275 3.31763H60.9619V7.35668H60.2275V3.31763Z" fill="white"/>
<path d="M58.4805 3.86938L54.9922 7.67895L55.0381 6.62329L58.5264 2.81372L58.4805 3.86938ZM55.7266 3.13501V6.66919L54.9922 7.67895V3.13501H55.7266ZM58.5264 2.81372V7.35766H57.792V3.82349L58.5264 2.81372Z" fill="white"/>
<path d="M52.0715 5.24536V4.78638C52.353 4.78638 52.5549 4.73436 52.6773 4.63032C52.7997 4.52016 52.8609 4.38859 52.8609 4.23559C52.8609 4.07036 52.7997 3.94184 52.6773 3.85005C52.5549 3.75213 52.3836 3.70317 52.1633 3.70317C51.9797 3.70317 51.8267 3.73989 51.7043 3.81333C51.588 3.88065 51.5023 3.96632 51.4473 4.07036C51.3922 4.16828 51.3646 4.26619 51.3646 4.36411H50.6211C50.6211 4.12544 50.6884 3.90513 50.823 3.70317C50.9577 3.50122 51.1413 3.34211 51.3738 3.22583C51.6064 3.10343 51.8695 3.04224 52.1633 3.04224C52.4387 3.04224 52.6865 3.09425 52.9068 3.19829C53.1271 3.30233 53.2985 3.44002 53.4209 3.61138C53.5494 3.78273 53.6137 3.97244 53.6137 4.18052C53.6137 4.48651 53.476 4.74048 53.2006 4.94243C52.9313 5.14438 52.5549 5.24536 52.0715 5.24536ZM52.1449 7.44848C51.6492 7.44848 51.2514 7.31385 50.9516 7.04458C50.6578 6.77531 50.4865 6.43566 50.4375 6.02563H51.1811C51.2239 6.22758 51.3157 6.40812 51.4564 6.56723C51.5972 6.72635 51.8267 6.8059 52.1449 6.8059C52.3408 6.8059 52.506 6.77836 52.6406 6.72329C52.7814 6.66821 52.8885 6.58865 52.9619 6.48461C53.0353 6.38058 53.0721 6.26124 53.0721 6.12661C53.0721 5.97973 53.0323 5.85428 52.9527 5.75024C52.8793 5.6462 52.7661 5.56665 52.6131 5.51157C52.4662 5.45649 52.2857 5.42895 52.0715 5.42895V4.96997C52.5978 4.96997 53.017 5.06176 53.3291 5.24536C53.6412 5.42895 53.7973 5.71964 53.7973 6.11743C53.7973 6.39282 53.7208 6.63149 53.5678 6.83344C53.4209 7.02928 53.222 7.18227 52.9711 7.29243C52.7202 7.39646 52.4448 7.44848 52.1449 7.44848Z" fill="white"/>
<path d="M49.8359 3.13403L47.082 9.37621H46.2559L47.4125 6.76001L45.7969 3.13403H46.6689L48.0092 6.43872L47.7062 6.402L49.0098 3.13403H49.8359Z" fill="white"/>
<path d="M42.0195 9.37621H41.2852V3.13403H42.0195V9.37621ZM45.5537 5.24536C45.5537 5.69822 45.4588 6.08989 45.2691 6.42036C45.0794 6.75083 44.8255 7.0048 44.5072 7.18227C44.1951 7.35974 43.8463 7.44848 43.4607 7.44848C43.1119 7.44848 42.8029 7.35974 42.5336 7.18227C42.2704 7.0048 42.0624 6.75083 41.9094 6.42036C41.7625 6.08989 41.6891 5.69822 41.6891 5.24536C41.6891 4.78637 41.7625 4.39471 41.9094 4.07036C42.0624 3.73989 42.2704 3.48592 42.5336 3.30845C42.8029 3.13097 43.1119 3.04224 43.4607 3.04224C43.8463 3.04224 44.1951 3.13097 44.5072 3.30845C44.8255 3.48592 45.0794 3.73989 45.2691 4.07036C45.4588 4.39471 45.5537 4.78637 45.5537 5.24536ZM44.8102 5.24536C44.8102 4.92101 44.7428 4.64562 44.6082 4.41919C44.4797 4.19276 44.3053 4.0214 44.085 3.90513C43.8708 3.78885 43.6321 3.73071 43.3689 3.73071C43.1548 3.73071 42.9436 3.78885 42.7355 3.90513C42.5275 4.0214 42.3561 4.19276 42.2215 4.41919C42.0868 4.64562 42.0195 4.92101 42.0195 5.24536C42.0195 5.56971 42.0868 5.8451 42.2215 6.07153C42.3561 6.29796 42.5275 6.46932 42.7355 6.58559C42.9436 6.70187 43.1548 6.76001 43.3689 6.76001C43.6321 6.76001 43.8708 6.70187 44.085 6.58559C44.3053 6.46932 44.4797 6.29796 44.6082 6.07153C44.7428 5.8451 44.8102 5.56971 44.8102 5.24536Z" fill="white"/>
<path d="M38.3008 3.13428H40.5498V3.82275H39.0352V7.35693H38.3008V3.13428Z" fill="white"/>
<path d="M34.0834 6.11743C34.0834 6.2643 34.1232 6.38976 34.2027 6.49379C34.2823 6.59171 34.3894 6.66821 34.524 6.72329C34.6587 6.77224 34.8086 6.79672 34.9738 6.79672C35.2186 6.79672 35.4359 6.76001 35.6256 6.68657C35.8153 6.61313 35.9622 6.49685 36.0662 6.33774C36.1764 6.17863 36.2314 5.96749 36.2314 5.70434L36.3783 6.16333C36.3783 6.4326 36.3049 6.66515 36.158 6.86098C36.0172 7.05069 35.8275 7.19757 35.5889 7.30161C35.3502 7.39952 35.084 7.44848 34.7902 7.44848C34.5271 7.44848 34.2854 7.39952 34.065 7.30161C33.8447 7.20369 33.6673 7.05988 33.5326 6.87016C33.4041 6.67433 33.3398 6.4326 33.3398 6.14497C33.3398 5.8451 33.4133 5.59113 33.5602 5.38305C33.707 5.17498 33.9151 5.01587 34.1844 4.90571C34.4536 4.78943 34.7719 4.7313 35.1391 4.7313C35.4083 4.7313 35.6378 4.76802 35.8275 4.84145C36.0234 4.90877 36.1794 4.98833 36.2957 5.08012C36.412 5.1658 36.4915 5.23618 36.5344 5.29126V5.7227C36.3263 5.57583 36.1152 5.46873 35.901 5.40141C35.6868 5.32798 35.445 5.29126 35.1758 5.29126C34.931 5.29126 34.726 5.32492 34.5607 5.39223C34.4016 5.45955 34.2823 5.55441 34.2027 5.6768C34.1232 5.7992 34.0834 5.94607 34.0834 6.11743ZM34.0834 4.12544L33.7254 3.56548C33.8845 3.4492 34.0987 3.33293 34.368 3.21665C34.6372 3.10037 34.9616 3.04224 35.341 3.04224C35.6654 3.04224 35.9469 3.09425 36.1855 3.19829C36.4303 3.29621 36.62 3.44002 36.7547 3.62974C36.8954 3.81945 36.9658 4.052 36.9658 4.32739V7.35668H36.2314V4.32739C36.2314 4.1132 36.1396 3.95408 35.9561 3.85005C35.7786 3.73989 35.5736 3.68481 35.341 3.68481C35.1391 3.68481 34.9555 3.71235 34.7902 3.76743C34.625 3.81639 34.4812 3.87759 34.3588 3.95102C34.2425 4.01834 34.1507 4.07648 34.0834 4.12544Z" fill="white"/>
<path d="M30.0432 4.18969V3.68481C30.3797 3.68481 30.6643 3.63585 30.8969 3.53794C31.1294 3.4339 31.3069 3.29926 31.4293 3.13403C31.5517 2.96268 31.6129 2.77602 31.6129 2.57407C31.6129 2.37212 31.567 2.19464 31.4752 2.04165C31.3834 1.88253 31.2426 1.76014 31.0529 1.67446C30.8693 1.58879 30.6398 1.54595 30.3645 1.54595C30.1074 1.54595 29.8749 1.58879 29.6668 1.67446C29.4648 1.76014 29.3057 1.87641 29.1895 2.02329C29.0732 2.17016 29.015 2.33846 29.015 2.52817H28.2715C28.2715 2.19158 28.3572 1.89783 28.5285 1.64692C28.706 1.39601 28.9508 1.20018 29.2629 1.05942C29.5811 0.912549 29.9452 0.839111 30.3553 0.839111C30.7837 0.839111 31.1508 0.918669 31.4568 1.07778C31.7628 1.2369 31.9984 1.44497 32.1637 1.702C32.3289 1.95903 32.4115 2.24054 32.4115 2.54653C32.4115 2.77296 32.3534 2.98716 32.2371 3.18911C32.1269 3.38494 31.9678 3.55936 31.7598 3.71235C31.5517 3.85922 31.3008 3.9755 31.007 4.06118C30.7194 4.14685 30.3981 4.18969 30.0432 4.18969ZM30.3186 7.44848C29.9391 7.44848 29.6056 7.40258 29.318 7.31078C29.0303 7.21899 28.7886 7.09353 28.5928 6.93442C28.3969 6.76918 28.247 6.57947 28.143 6.36528C28.0451 6.14496 27.9961 5.90935 27.9961 5.65844H28.7855C28.81 5.86039 28.8773 6.04093 28.9875 6.20004C29.1038 6.35916 29.269 6.48461 29.4832 6.57641C29.7035 6.66821 29.982 6.7141 30.3186 6.7141C30.8265 6.7141 31.1998 6.61007 31.4385 6.402C31.6771 6.19392 31.7965 5.91547 31.7965 5.56665C31.7965 5.30349 31.72 5.08318 31.567 4.90571C31.414 4.72823 31.2059 4.59666 30.9428 4.51098C30.6796 4.41919 30.3797 4.37329 30.0432 4.37329V3.8684C30.5205 3.8684 30.9519 3.9296 31.3375 4.052C31.723 4.17439 32.029 4.36717 32.2555 4.63032C32.4819 4.88735 32.5951 5.23006 32.5951 5.65844C32.5951 6.01951 32.5033 6.33468 32.3197 6.60395C32.1422 6.87322 31.8822 7.08129 31.5394 7.22817C31.2029 7.37504 30.7959 7.44848 30.3186 7.44848Z" fill="white"/>
</svg>
