<svg width="102" height="27" viewBox="0 0 102 27" fill="none" xmlns="http://www.w3.org/2000/svg">
<path d="M32.7751 4.91674V4.41498C33.1096 4.41498 33.3924 4.36633 33.6235 4.26902C33.8546 4.16563 34.031 4.03183 34.1527 3.86762C34.2743 3.69732 34.3351 3.51183 34.3351 3.31112C34.3351 3.11042 34.2895 2.93405 34.1983 2.782C34.107 2.62387 33.9672 2.50224 33.7786 2.41709C33.5962 2.33194 33.3681 2.28937 33.0944 2.28937C32.839 2.28937 32.6079 2.33194 32.4011 2.41709C32.2004 2.50224 32.0422 2.61779 31.9267 2.76376C31.8111 2.90972 31.7534 3.07697 31.7534 3.26551H31.0144C31.0144 2.93101 31.0996 2.63908 31.2698 2.38972C31.4462 2.14036 31.6895 1.94574 31.9997 1.80586C32.3159 1.6599 32.6778 1.58691 33.0853 1.58691C33.511 1.58691 33.8759 1.66598 34.18 1.82411C34.4841 1.98224 34.7183 2.18902 34.8825 2.44446C35.0467 2.6999 35.1288 2.97966 35.1288 3.28376C35.1288 3.50879 35.071 3.72165 34.9555 3.92235C34.846 4.11697 34.6879 4.29031 34.4811 4.44235C34.2743 4.58832 34.0249 4.70387 33.733 4.78902C33.4472 4.87417 33.1279 4.91674 32.7751 4.91674ZM33.0488 8.15533C32.6717 8.15533 32.3403 8.10972 32.0544 8.01849C31.7686 7.92727 31.5283 7.80259 31.3337 7.64446C31.1391 7.48025 30.9901 7.29171 30.8867 7.07884C30.7894 6.8599 30.7407 6.62574 30.7407 6.37639H31.5253C31.5496 6.57709 31.6165 6.75651 31.726 6.91463C31.8415 7.07276 32.0058 7.19744 32.2186 7.28867C32.4376 7.3799 32.7143 7.42551 33.0488 7.42551C33.5536 7.42551 33.9246 7.32212 34.1618 7.11534C34.399 6.90855 34.5176 6.63183 34.5176 6.28516C34.5176 6.02364 34.4415 5.80469 34.2895 5.62832C34.1374 5.45194 33.9307 5.32118 33.6691 5.23604C33.4076 5.14481 33.1096 5.09919 32.7751 5.09919V4.59744C33.2495 4.59744 33.6783 4.65826 34.0614 4.7799C34.4446 4.90153 34.7487 5.09311 34.9737 5.35463C35.1987 5.61007 35.3112 5.95066 35.3112 6.37639C35.3112 6.73522 35.22 7.04843 35.0376 7.31604C34.8612 7.58364 34.6027 7.79042 34.2621 7.93639C33.9276 8.08235 33.5232 8.15533 33.0488 8.15533Z" fill="white"/>
<path d="M36.7873 6.83253C36.7873 6.97849 36.8269 7.10317 36.9059 7.20656C36.985 7.30387 37.0914 7.3799 37.2252 7.43463C37.359 7.48329 37.508 7.50762 37.6723 7.50762C37.9155 7.50762 38.1314 7.47112 38.32 7.39814C38.5085 7.32516 38.6545 7.2096 38.7579 7.05148C38.8673 6.89335 38.9221 6.68352 38.9221 6.422L39.068 6.87814C39.068 7.14574 38.9951 7.37686 38.8491 7.57148C38.7092 7.76001 38.5207 7.90598 38.2835 8.00937C38.0463 8.10668 37.7817 8.15533 37.4898 8.15533C37.2283 8.15533 36.988 8.10668 36.7691 8.00937C36.5501 7.91206 36.3738 7.76914 36.24 7.5806C36.1123 7.38598 36.0484 7.14574 36.0484 6.8599C36.0484 6.56189 36.1214 6.30949 36.2673 6.1027C36.4133 5.89592 36.6201 5.73779 36.8877 5.62832C37.1553 5.51276 37.4716 5.45498 37.8365 5.45498C38.1041 5.45498 38.3321 5.49148 38.5207 5.56446C38.7153 5.63136 38.8704 5.71042 38.9859 5.80165C39.1015 5.8868 39.1806 5.95674 39.2231 6.01148V6.44025C39.0163 6.29428 38.8065 6.18785 38.5937 6.12095C38.3808 6.04797 38.1406 6.01148 37.873 6.01148C37.6297 6.01148 37.4259 6.04493 37.2617 6.11183C37.1036 6.17873 36.985 6.273 36.9059 6.39463C36.8269 6.51627 36.7873 6.66224 36.7873 6.83253ZM36.7873 4.85288L36.4316 4.29639C36.5897 4.18083 36.8025 4.06528 37.0701 3.94972C37.3378 3.83417 37.6601 3.77639 38.0372 3.77639C38.3595 3.77639 38.6393 3.82808 38.8765 3.93148C39.1197 4.02879 39.3083 4.17171 39.4421 4.36025C39.582 4.54879 39.6519 4.7799 39.6519 5.05358V8.06411H38.9221V5.05358C38.9221 4.84072 38.8309 4.68259 38.6484 4.57919C38.472 4.46972 38.2683 4.41498 38.0372 4.41498C37.8365 4.41498 37.654 4.44235 37.4898 4.49709C37.3256 4.54574 37.1827 4.60656 37.061 4.67955C36.9455 4.74645 36.8542 4.80422 36.7873 4.85288Z" fill="white"/>
<path d="M40.9812 3.86762H43.2163V4.55183H41.711V8.06411H40.9812V3.86762Z" fill="white"/>
<path d="M44.6799 10.0711H43.9501V3.86762H44.6799V10.0711ZM48.1922 5.96586C48.1922 6.41592 48.0979 6.80516 47.9094 7.13358C47.7208 7.462 47.4684 7.7144 47.1522 7.89077C46.842 8.06715 46.4953 8.15533 46.1122 8.15533C45.7655 8.15533 45.4584 8.06715 45.1908 7.89077C44.9292 7.7144 44.7225 7.462 44.5704 7.13358C44.4244 6.80516 44.3515 6.41592 44.3515 5.96586C44.3515 5.50972 44.4244 5.12048 44.5704 4.79814C44.7225 4.46972 44.9292 4.21732 45.1908 4.04095C45.4584 3.86457 45.7655 3.77639 46.1122 3.77639C46.4953 3.77639 46.842 3.86457 47.1522 4.04095C47.4684 4.21732 47.7208 4.46972 47.9094 4.79814C48.0979 5.12048 48.1922 5.50972 48.1922 5.96586ZM47.4532 5.96586C47.4532 5.64352 47.3863 5.36984 47.2525 5.14481C47.1248 4.91978 46.9515 4.74949 46.7325 4.63393C46.5197 4.51838 46.2825 4.4606 46.0209 4.4606C45.8081 4.4606 45.5982 4.51838 45.3915 4.63393C45.1847 4.74949 45.0144 4.91978 44.8806 5.14481C44.7468 5.36984 44.6799 5.64352 44.6799 5.96586C44.6799 6.2882 44.7468 6.56188 44.8806 6.78691C45.0144 7.01194 45.1847 7.18224 45.3915 7.29779C45.5982 7.41335 45.8081 7.47112 46.0209 7.47112C46.2825 7.47112 46.5197 7.41335 46.7325 7.29779C46.9515 7.18224 47.1248 7.01194 47.2525 6.78691C47.3863 6.56188 47.4532 6.2882 47.4532 5.96586Z" fill="white"/>
<path d="M52.4436 3.86762L49.7067 10.0711H48.8857L50.0352 7.47112L48.4296 3.86762H49.2962L50.6281 7.15183L50.3271 7.11534L51.6225 3.86762H52.4436Z" fill="white"/>
<path d="M54.6676 5.96586V5.50972C54.9474 5.50972 55.1481 5.45803 55.2697 5.35463C55.3913 5.24516 55.4522 5.1144 55.4522 4.96235C55.4522 4.79814 55.3913 4.67042 55.2697 4.57919C55.1481 4.48188 54.9778 4.43323 54.7588 4.43323C54.5764 4.43323 54.4243 4.46972 54.3027 4.5427C54.1871 4.6096 54.102 4.69475 54.0473 4.79814C53.9925 4.89545 53.9652 4.99276 53.9652 5.09007H53.2262C53.2262 4.85288 53.2931 4.63393 53.4269 4.43323C53.5607 4.23253 53.7432 4.0744 53.9743 3.95884C54.2054 3.83721 54.4669 3.77639 54.7588 3.77639C55.0325 3.77639 55.2788 3.82808 55.4978 3.93148C55.7167 4.03487 55.887 4.17171 56.0087 4.342C56.1364 4.51229 56.2002 4.70083 56.2002 4.90762C56.2002 5.21171 56.0634 5.46411 55.7897 5.66481C55.5221 5.86551 55.1481 5.96586 54.6676 5.96586ZM54.7406 8.15533C54.248 8.15533 53.8526 8.02153 53.5546 7.75393C53.2627 7.48633 53.0924 7.14879 53.0437 6.7413H53.7827C53.8253 6.942 53.9165 7.12142 54.0564 7.27955C54.1963 7.43767 54.4243 7.51674 54.7406 7.51674C54.9352 7.51674 55.0994 7.48937 55.2332 7.43463C55.3731 7.3799 55.4795 7.30083 55.5525 7.19744C55.6255 7.09405 55.662 6.97545 55.662 6.84165C55.662 6.69569 55.6225 6.57101 55.5434 6.46762C55.4704 6.36422 55.3579 6.28516 55.2059 6.23042C55.0599 6.17569 54.8805 6.14832 54.6676 6.14832V5.69218C55.1906 5.69218 55.6073 5.78341 55.9174 5.96586C56.2276 6.14832 56.3827 6.43721 56.3827 6.83253C56.3827 7.10621 56.3067 7.34341 56.1546 7.54411C56.0087 7.73873 55.811 7.89077 55.5616 8.00025C55.3123 8.10364 55.0386 8.15533 54.7406 8.15533Z" fill="white"/>
<path d="M61.0359 4.59744L57.5692 8.38341L57.6148 7.33428L61.0815 3.54832L61.0359 4.59744ZM58.299 3.86762V7.3799L57.5692 8.38341V3.86762H58.299ZM61.0815 3.54832V8.06411H60.3517V4.55183L61.0815 3.54832Z" fill="white"/>
<path d="M61.9051 3.86762H64.3682V4.55183H61.9051V3.86762ZM62.7718 4.05007H63.5016V8.06411H62.7718V4.05007Z" fill="white"/>
<path d="M65.1162 6.14832V5.52797H67.9169C67.8925 5.30902 67.8317 5.11744 67.7344 4.95323C67.6432 4.78294 67.5124 4.65218 67.3421 4.56095C67.1779 4.46364 66.9742 4.41498 66.7309 4.41498C66.4876 4.41498 66.2656 4.46668 66.0649 4.57007C65.8642 4.67346 65.7031 4.82247 65.5814 5.01709C65.4659 5.20563 65.4081 5.43066 65.4081 5.69218L65.3898 5.96586C65.3898 6.2882 65.4446 6.56188 65.5541 6.78691C65.6635 7.01194 65.8186 7.18224 66.0193 7.29779C66.22 7.41335 66.4572 7.47112 66.7309 7.47112C66.9377 7.47112 67.1201 7.44072 67.2783 7.3799C67.4425 7.313 67.5884 7.22481 67.7162 7.11534C67.8439 6.99978 67.9534 6.86598 68.0446 6.71393L68.6376 7.08797C68.4977 7.30083 68.3426 7.48937 68.1723 7.65358C68.002 7.81171 67.7952 7.93639 67.5519 8.02762C67.3087 8.11276 67.0046 8.15533 66.6397 8.15533C66.2626 8.15533 65.922 8.06107 65.6179 7.87253C65.3199 7.68399 65.0827 7.42551 64.9063 7.09709C64.736 6.76259 64.6509 6.38551 64.6509 5.96586C64.6509 5.8868 64.6539 5.81077 64.66 5.73779C64.6661 5.66481 64.6752 5.59183 64.6874 5.51884C64.7482 5.17218 64.8698 4.86808 65.0523 4.60656C65.2348 4.34504 65.4689 4.1413 65.7547 3.99534C66.0467 3.84937 66.3721 3.77639 66.7309 3.77639C67.1262 3.77639 67.4729 3.86457 67.7709 4.04095C68.0689 4.21732 68.3 4.46668 68.4642 4.78902C68.6284 5.10528 68.7105 5.48539 68.7105 5.92937C68.7105 5.96586 68.7105 6.00235 68.7105 6.03884C68.7105 6.07534 68.7075 6.11183 68.7014 6.14832H65.1162Z" fill="white"/>
<path d="M72.9724 5.87463H74.1858C74.4777 5.87463 74.7392 5.90504 74.9703 5.96586C75.2014 6.02668 75.3839 6.13311 75.5177 6.28516C75.6515 6.43721 75.7184 6.65007 75.7184 6.92376C75.7184 7.24001 75.612 7.51066 75.3991 7.73569C75.1923 7.95463 74.8487 8.06411 74.3682 8.06411H72.9724V7.42551H74.1858C74.4594 7.42551 74.6601 7.36773 74.7879 7.25218C74.9217 7.13662 74.9886 6.99674 74.9886 6.83253C74.9886 6.74738 74.9703 6.67136 74.9338 6.60446C74.9034 6.53756 74.8548 6.47674 74.7879 6.422C74.727 6.36726 74.6449 6.32773 74.5415 6.30341C74.4442 6.273 74.3256 6.25779 74.1858 6.25779H72.9724V5.87463ZM72.9724 6.05709V5.62832H74.0945C74.204 5.62832 74.3013 5.61615 74.3865 5.59183C74.4777 5.56142 74.5537 5.51884 74.6145 5.46411C74.6753 5.40937 74.721 5.34855 74.7514 5.28165C74.7879 5.20867 74.8061 5.13265 74.8061 5.05358C74.8061 4.88937 74.7422 4.75861 74.6145 4.6613C74.4868 4.55791 74.3135 4.50621 74.0945 4.50621H72.9724V3.86762H74.0945C74.356 3.86762 74.5932 3.90715 74.8061 3.98621C75.0251 4.05919 75.2014 4.18083 75.3352 4.35112C75.469 4.51534 75.5359 4.73428 75.5359 5.00797C75.5359 5.24516 75.469 5.44282 75.3352 5.60095C75.2014 5.753 75.0251 5.86855 74.8061 5.94762C74.5932 6.0206 74.356 6.05709 74.0945 6.05709H72.9724ZM72.5436 3.86762H73.2735V8.06411H72.5436V3.86762Z" fill="white"/>
<path d="M52.8669 15.1308C50.873 15.1308 49.2442 16.6103 49.2442 18.6516C49.2442 20.6763 50.873 22.1713 52.8669 22.1713C54.865 22.1713 56.4939 20.6763 56.4939 18.6516C56.4939 16.6103 54.865 15.1308 52.8669 15.1308ZM52.8669 20.7849C51.7729 20.7849 50.8316 19.9045 50.8316 18.6516C50.8316 17.3821 51.7729 16.5172 52.8669 16.5172C53.9609 16.5172 54.9064 17.3821 54.9064 18.6516C54.9064 19.9045 53.9609 20.7849 52.8669 20.7849ZM44.9625 15.1308C42.9644 15.1308 41.3398 16.6103 41.3398 18.6516C41.3398 20.6763 42.9644 22.1713 44.9625 22.1713C46.9595 22.1713 48.5852 20.6763 48.5852 18.6516C48.5852 16.6103 46.9595 15.1308 44.9625 15.1308ZM44.9625 20.7849C43.8674 20.7849 42.923 19.9045 42.923 18.6516C42.923 17.3821 43.8674 16.5172 44.9625 16.5172C46.0565 16.5172 46.9978 17.3821 46.9978 18.6516C46.9978 19.9045 46.0565 20.7849 44.9625 20.7849ZM35.5566 16.2099V17.7059H39.2207C39.1135 18.5419 38.827 19.1565 38.3877 19.5848C37.8529 20.1021 37.0199 20.6763 35.5566 20.6763C33.3017 20.6763 31.5359 18.9019 31.5359 16.7034C31.5359 14.5049 33.3017 12.7305 35.5566 12.7305C36.7758 12.7305 37.6629 13.1951 38.3177 13.7972L39.399 12.7429C38.4832 11.8904 37.265 11.2355 35.5566 11.2355C32.4644 11.2355 29.8657 13.6886 29.8657 16.7034C29.8657 19.7183 32.4644 22.1713 35.5566 22.1713C37.2279 22.1713 38.4832 21.6374 39.4701 20.6359C40.4813 19.65 40.7965 18.2636 40.7965 17.1442C40.7965 16.7965 40.7668 16.4768 40.7137 16.2099H35.5566ZM74.0185 17.3697C73.7203 16.5824 72.8003 15.1308 70.9263 15.1308C69.0694 15.1308 67.5233 16.5575 67.5233 18.6516C67.5233 20.6235 69.0534 22.1713 71.1046 22.1713C72.7632 22.1713 73.7203 21.1853 74.114 20.6111L72.8831 19.8114C72.4724 20.397 71.9132 20.7849 71.1046 20.7849C70.3013 20.7849 69.7251 20.4259 69.3559 19.7183L74.1851 17.7701L74.0185 17.3697ZM69.0948 18.5419C69.0534 17.1845 70.1761 16.4892 70.9805 16.4892C71.6108 16.4892 72.1456 16.7965 72.3239 17.2362L69.0948 18.5419ZM65.1697 21.9571H66.7571V11.6111H65.1697V21.9571ZM62.5699 15.915H62.5168C62.1603 15.5033 61.4801 15.1308 60.6185 15.1308C58.8103 15.1308 57.1571 16.6786 57.1571 18.663C57.1571 20.636 58.8103 22.1713 60.6185 22.1713C61.4801 22.1713 62.1603 21.7957 62.5168 21.3716H62.5699V21.8764C62.5699 23.2225 61.8324 23.9457 60.6429 23.9457C59.673 23.9457 59.0713 23.2628 58.823 22.6886L57.4425 23.2504C57.8404 24.1836 58.8941 25.332 60.6429 25.332C62.5041 25.332 64.0746 24.2643 64.0746 21.6664V15.345H62.5699V15.915ZM60.7543 20.7849C59.6603 20.7849 58.7445 19.8921 58.7445 18.663C58.7445 17.4225 59.6603 16.5172 60.7543 16.5172C61.8324 16.5172 62.6824 17.4225 62.6824 18.663C62.6824 19.8921 61.8324 20.7849 60.7543 20.7849ZM81.4507 11.6111H77.6539V21.9571H79.2372V18.037H81.4507C83.209 18.037 84.9333 16.7965 84.9333 14.8235C84.9333 12.8516 83.2047 11.6111 81.4507 11.6111ZM81.4921 16.5979H79.2372V13.0502H81.4921C82.6742 13.0502 83.3491 14.0072 83.3491 14.8235C83.3491 15.6243 82.6742 16.5979 81.4921 16.5979ZM91.2789 15.1111C90.135 15.1111 88.9455 15.6036 88.4563 16.6951L89.8612 17.2693C90.1637 16.6951 90.7197 16.5089 91.3076 16.5089C92.1289 16.5089 92.9619 16.99 92.9746 17.8394V17.948C92.6881 17.7866 92.0748 17.5476 91.3203 17.5476C89.8071 17.5476 88.2653 18.3598 88.2653 19.8755C88.2653 21.2619 89.5047 22.1548 90.898 22.1548C91.9634 22.1548 92.5512 21.6861 92.9205 21.1408H92.9746V21.9406H94.5037V17.9718C94.5037 16.1375 93.0988 15.1111 91.2789 15.1111ZM91.0879 20.7808C90.5701 20.7808 89.8485 20.5304 89.8485 19.9045C89.8485 19.1037 90.7484 18.7964 91.5272 18.7964C92.2244 18.7964 92.5512 18.9464 92.9746 19.144C92.8505 20.1021 92.0047 20.7808 91.0879 20.7808ZM100.075 15.3377L98.2548 19.8227H98.2007L96.3193 15.3377H94.6119L97.4388 21.6054L95.8259 25.093H97.4802L101.836 15.3377H100.075ZM85.8035 21.9571H87.3909V11.6111H85.8035V21.9571Z" fill="white"/>
<path d="M23.2526 12.4438L20.241 10.938C20.0352 10.8296 19.786 10.8729 19.6127 11.0354L17.5868 13.0613C17.3701 13.2779 17.3701 13.6138 17.5868 13.8304L19.6451 15.8888C19.8076 16.0513 20.0676 16.0946 20.2735 15.9863L23.2526 14.4913C24.1085 14.0796 24.1085 12.8663 23.2526 12.4438Z" fill="white"/>
<path d="M17.724 17.2752C18.0598 17.1127 18.1248 16.6686 17.8648 16.4086L16.0556 14.5994L15.2865 13.8302C15.0698 13.6135 14.734 13.6135 14.5173 13.8302L6.78231 21.5652C6.34898 21.9986 6.85814 22.7027 7.41064 22.4319L17.724 17.2752Z" fill="white"/>
<path d="M2.23291 4.64448V22.7036C2.23291 23.1803 2.80708 23.4295 3.15374 23.0936L12.6546 13.8745C12.8821 13.6578 12.8712 13.3003 12.6437 13.0837L3.14291 4.24365C2.79624 3.91865 2.23291 4.16781 2.23291 4.64448Z" fill="white"/>
<path d="M17.6964 9.66036L7.52393 4.56868C6.97143 4.29785 6.46226 5.002 6.89559 5.43533L14.5331 13.0729C14.7498 13.2895 15.0856 13.2895 15.3023 13.0729L17.8481 10.527C18.0973 10.267 18.0214 9.82286 17.6964 9.66036Z" fill="white"/>
</svg>
